<?xml version="1.0" encoding="utf-8"?>
<!-- Generator: Adobe Illustrator 26.0.1, SVG Export Plug-In . SVG Version: 6.00 Build 0)  -->
<svg version="1.1" id="Layer_1" xmlns="http://www.w3.org/2000/svg" xmlns:xlink="http://www.w3.org/1999/xlink" x="0px" y="0px"
	 width="200px" height="133.33px" viewBox="0 0 200 133.33" style="enable-background:new 0 0 200 133.33;" xml:space="preserve">
<style type="text/css">
	.st0{fill:#B5D6D9;}
	.st1{fill:#97C1C3;}
	.st2{fill:#C13043;}
	.st3{fill:#699B9B;}
	.st4{fill:#99C4C6;}
	.st5{fill:#FFFFFF;}
	.st6{fill:#F27893;}
	.st7{fill:#E54353;}
	.st8{fill:#F9B964;}
	.st9{fill:#FFDFBC;}
	.st10{fill:#F7A421;}
	.st11{fill:#DCF0F1;}
	.st12{opacity:0.63;fill:#B5D6D9;}
	.st13{fill:#FCCAA6;}
	.st14{fill:#E99F6D;}
	.st15{fill:#513119;}
	.st16{fill:#404083;}
	.st17{fill:#313370;}
	.st18{fill:#F48170;}
	.st19{fill:#6C74B7;}
	.st20{fill:#475EA9;}
	.st21{fill:#171818;}
	.st22{fill:none;stroke:#FFFFFF;stroke-width:3;stroke-miterlimit:10;}
	.st23{fill:none;stroke:#6C74B7;stroke-width:3;stroke-miterlimit:10;}
</style>
<g>
	<path class="st0" d="M15.41,49.46c-20.88,22.89,7.38,81.87,61.12,79.33c53.75-2.53,131.53-45.83,111.84-84.74
		s-68.06,14.04-96.52,5.41C63.4,40.83,32.47,30.75,15.41,49.46z"/>
	<path class="st1" d="M158.76,100.88c5.26-3.47,10.09-7.16,14.33-11.02V30.39c-4.41-1.16-9.24-0.96-14.33,0.08V100.88z"/>
	<path class="st1" d="M78.84,119.93C34.95,122,8.06,83.04,11.05,56.22c-11.39,25.96,16.43,74.88,65.48,72.57
		c46.53-2.19,111.07-34.94,114.79-68.94C178.78,90.48,121.31,117.93,78.84,119.93z"/>
	<path class="st2" d="M169.41,29.95V18.47c0-2.14-1.74-3.88-3.88-3.88h-10.45v15.36H169.41z"/>
	<path class="st3" d="M155.08,29.95v78.35h10.45c2.14,0,3.88-1.74,3.88-3.88V29.95H155.08z"/>
	<path class="st0" d="M36.05,28.17v76.24c0,2.14,1.74,3.88,3.88,3.88H161.5c2.14,0,3.88-1.74,3.88-3.88V28.17H36.05z"/>
	<path class="st4" d="M37.98,28.17v2.49l-1.94,26.68v47.07c0,2.14,1.74,3.88,3.88,3.88h120.34c0.99-0.7,1.64-1.86,1.64-3.16
		l3.47-47.79V28.17H37.98z"/>
	<path class="st5" d="M36.05,26.88v3.06l-6,76.95c0,2.14,1.74,3.88,3.88,3.88H155.5c2.14,0,3.88-1.74,3.88-3.88l6-76.95v-3.06H36.05
		z"/>
	<polygon class="st0" points="165.2,32.26 165.38,29.95 165.38,26.88 36.05,26.88 36.05,29.95 35.87,32.26 	"/>
	<path class="st6" d="M165.38,27.96v-9.49c0-2.14-1.74-3.88-3.88-3.88H39.93c-2.14,0-3.88,1.74-3.88,3.88v11.48L165.38,27.96z"/>
	<path class="st7" d="M163.92,29.14v-8.59c0-1.85-1.5-3.35-3.35-3.35H40.68c-1.85,0-3.35,1.5-3.35,3.35v8.59H163.92z"/>
	<g>
		<circle class="st2" cx="54.54" cy="22.93" r="2.8"/>
		<path class="st2" d="M67.53,17.13c-0.32,1.98-1.98,3.98-4.4,5.02c-2.69,1.17-5.53,0.9-7.22-0.45c-0.46-0.36-1.19-0.44-1.88-0.16
			c-1.16,0.47-1.63,1.65-0.92,2.32c2.57,2.38,7.29,2.87,11.66,0.8c3.49-1.65,5.84-4.61,6.23-7.53H67.53z"/>
		<path class="st8" d="M55.01,21.2c-2.53-1.07-4.28-3.62-4.17-6.57c0.13-3.48,2.96-6.37,6.44-6.57c3.86-0.22,7.07,2.76,7.24,6.53
			h2.93C67.27,8.8,62.33,4.21,56.41,4.62c-5.02,0.35-9.11,4.39-9.53,9.4c-0.4,4.86,2.57,9.08,6.83,10.59
			c1.19,0.42,2.44-0.46,2.44-1.72l0,0C56.15,22.15,55.69,21.5,55.01,21.2z"/>
		<g>
			<path class="st9" d="M48.47,15.87c0.25-5.28,4.48-9.63,9.75-10.03c0.04,0,0.08-0.01,0.12-0.01c0.71-0.05,0.74-1.07,0.04-1.16
				c-0.74-0.09-1.51-0.1-2.29-0.02c-4.89,0.49-8.81,4.49-9.2,9.39c-0.13,1.57,0.1,3.08,0.61,4.45c0.25,0.67,1.24,0.4,1.12-0.3
				C48.48,17.44,48.43,16.66,48.47,15.87z"/>
		</g>
		<path class="st10" d="M64.52,14.59h1.69c-0.32-4.34-4.09-8.2-8.58-7.89c-3.91,0.27-7.1,3.4-7.42,7.28c-0.31,3.76,2,7.04,5.32,8.2
			c0.17,0.06,0.33,0.07,0.49,0.07c-0.18-0.47-0.54-0.85-1.02-1.05c-2.53-1.07-4.28-3.62-4.17-6.57c0.13-3.48,2.96-6.37,6.44-6.57
			C61.14,7.84,64.35,10.82,64.52,14.59z"/>
	</g>
	<polygon class="st2" points="36.05,27.96 36.05,29.95 165.86,29.95 165.92,27.96 	"/>
	<g>
		<g>
			<path class="st5" d="M114.69,40.25c-0.07,0-0.16,0.02-0.25,0.07c-0.14,0.09-0.18,0.22-0.2,0.29c-0.01,0.07-0.03,0.2,0.06,0.34
				l6.25,9.55c0.08,0.12,0.2,0.19,0.34,0.2l0.04,0c0.12,0,0.24-0.05,0.32-0.14l15.29-15.82c0.11-0.12,0.13-0.25,0.13-0.32
				c0-0.07-0.02-0.2-0.14-0.32c-0.12-0.11-0.25-0.13-0.32-0.13c-0.07,0-0.2,0.02-0.32,0.14L123,47.47
				c-1.02,1.06-2.76,0.89-3.56-0.34l-4.37-6.68c-0.09-0.14-0.22-0.18-0.29-0.2C114.76,40.25,114.73,40.25,114.69,40.25z"/>
		</g>
	</g>
	<path class="st11" d="M150.83,53.05h-12.31c-1.15,0-2.05-1-1.93-2.14l1.31-12.34c0.1-0.99,0.94-1.73,1.93-1.73h12.31
		c1.15,0,2.05,1,1.93,2.14l-1.31,12.34C152.66,52.3,151.82,53.05,150.83,53.05z"/>
	<path class="st11" d="M147.12,76.4h-12.31c-1.15,0-2.05-1-1.93-2.14l1.31-12.34c0.1-0.99,0.94-1.73,1.93-1.73h12.31
		c1.15,0,2.05,1,1.93,2.14l-1.31,12.34C148.95,75.65,148.11,76.4,147.12,76.4z"/>
	<path class="st11" d="M144.95,99.75h-12.31c-1.15,0-2.05-1-1.93-2.14l1.31-12.34c0.1-0.99,0.94-1.73,1.93-1.73h12.31
		c1.15,0,2.05,1,1.93,2.14l-1.31,12.34C146.77,99.01,145.94,99.75,144.95,99.75z"/>
	<path class="st11" d="M127.63,53.05h-12.31c-1.15,0-2.05-1-1.93-2.14l1.31-12.34c0.1-0.99,0.94-1.73,1.93-1.73h12.31
		c1.15,0,2.05,1,1.93,2.14l-1.31,12.34C129.45,52.3,128.62,53.05,127.63,53.05z"/>
	<path class="st11" d="M123.92,76.4H111.6c-1.15,0-2.05-1-1.93-2.14l1.31-12.34c0.1-0.99,0.94-1.73,1.93-1.73h12.31
		c1.15,0,2.05,1,1.93,2.14l-1.31,12.34C125.74,75.65,124.91,76.4,123.92,76.4z"/>
	<path class="st11" d="M121.74,99.75h-12.31c-1.15,0-2.05-1-1.93-2.14l1.31-12.34c0.1-0.99,0.94-1.73,1.93-1.73h12.31
		c1.15,0,2.05,1,1.93,2.14l-1.31,12.34C123.56,99.01,122.73,99.75,121.74,99.75z"/>
	<path class="st11" d="M104.42,53.05H92.1c-1.15,0-2.05-1-1.93-2.14l1.31-12.34c0.1-0.99,0.94-1.73,1.93-1.73h12.31
		c1.15,0,2.05,1,1.93,2.14l-1.31,12.34C106.24,52.3,105.41,53.05,104.42,53.05z"/>
	<path class="st11" d="M100.71,76.4H88.39c-1.15,0-2.05-1-1.93-2.14l1.31-12.34c0.1-0.99,0.94-1.73,1.93-1.73h12.31
		c1.15,0,2.05,1,1.93,2.14l-1.31,12.34C102.53,75.65,101.7,76.4,100.71,76.4z"/>
	<polygon class="st11" points="100.27,99.75 84.06,99.75 85.78,83.54 101.99,83.54 	"/>
	<path class="st11" d="M81.21,53.05H68.9c-1.15,0-2.05-1-1.93-2.14l1.31-12.34c0.1-0.99,0.94-1.73,1.93-1.73h12.31
		c1.15,0,2.05,1,1.93,2.14l-1.31,12.34C83.03,52.3,82.2,53.05,81.21,53.05z"/>
	<path class="st11" d="M77.5,76.4H65.19c-1.15,0-2.05-1-1.93-2.14l1.31-12.34c0.1-0.99,0.94-1.73,1.93-1.73h12.31
		c1.15,0,2.05,1,1.93,2.14l-1.31,12.34C79.32,75.65,78.49,76.4,77.5,76.4z"/>
	<path class="st12" d="M54.33,29.88c-1.61,4.07-1.6,21.79-3.18,31.52c-0.36,2.23-0.78,4.16-1.21,5.81
		c-0.53,1.36-0.98,2.92-1.32,4.29c-0.94,2.57-1.69,3.73-1.69,3.73s0.54,0.73,1.67,1.72c-0.03,0.16-0.06,0.33-0.09,0.5
		c0,0.01,0,0.01,0,0.02c-1.13,6.08-2.67,16.06-1.26,18.63c1.5,2.73,6.33,4.33,11.41,5.27c-0.06,0.13-0.11,0.26-0.17,0.39
		c-0.1,0.23-0.2,0.45-0.3,0.67c-1.17,2.56-2.18,5.77-2.89,8.34h40.39l10.9-18.49c0.44-0.74,0.19-1.7-0.55-2.14l-2.19-1.29
		c3.73-4.93,8.7-11.63,10.46-14.59l3.92-3.8c0.45-0.51,0.82-1.09,1.09-1.71c0.42-1,0.68-1.45,0.88-2.15
		c0.32-1.09,1.6-4.22,1.29-5.09c-0.25-0.71-0.78-0.12-0.97,0.13c0.16-0.24,0.5-0.9,0.02-1.62c-0.54-0.81-1.11,0.18-1.23,0.4
		c0.14-0.27,0.93-1.91,0.23-2.43c-0.48-0.36-1.01,0.24-1.34,0.74c0.83-1.46,2.96-5.34,2.35-5.64c-1.12-0.56-4.28,5.46-5.32,7.83
		c-0.43,0.97-1.03,1.86-1.6,2.59c-0.52-0.08-1.68-0.19-2.39,0.32c-0.76,0.55-0.25,3.65-0.03,4.79c0,0.03,0,0.06,0,0.09
		c0.02,0.23,0.07,0.48,0.13,0.75c-3.44,3.31-9.07,9.58-13.04,14.12c-0.84-3.33-2.01-6.56-2.83-8.66l1.28,0.06
		c0,0-0.07-0.29-0.22-0.79c-0.24-0.82-0.65-2.16-1.21-3.63c-0.18-0.47-0.37-0.95-0.57-1.43c-0.81-1.88-1.82-3.74-2.97-4.8
		c-0.03-0.03-0.06-0.06-0.09-0.08c-0.06-0.05-0.12-0.12-0.19-0.17c-0.06-0.05-0.13-0.09-0.19-0.14c-0.06-0.04-0.11-0.08-0.17-0.13
		c-0.06-0.05-0.13-0.09-0.19-0.14c-0.11-0.08-0.22-0.16-0.34-0.24c-0.02-0.02-0.05-0.03-0.07-0.05c-0.16-0.11-0.32-0.21-0.49-0.32
		C90.02,63.02,90,63,89.97,62.99c-0.73-0.46-1.55-0.92-2.41-1.38c0,0-0.01-0.01-0.01-0.01c-0.08-0.04-0.17-0.09-0.25-0.13
		c-2.12-5.28-4.69-13.45-5.88-24.17c-0.51-4.56-1.47-7.93-2.7-10.41H55.73C55.25,27.75,54.78,28.74,54.33,29.88z M87.51,86.04
		c0.09,0.38,0.18,0.76,0.28,1.14l-1.55,2.63C86.63,88.5,87.07,87.22,87.51,86.04z M61.46,82.1c0.04,0.42,0.09,0.83,0.14,1.25
		c0.11,0.93,0.17,1.84,0.19,2.73c0,0,0,0.01,0,0.02c0.01,0.4,0.01,0.8,0.01,1.19c0,0.06,0,0.13,0,0.19
		c-0.01,0.36-0.02,0.72-0.04,1.08c0,0.09-0.01,0.19-0.01,0.28c-0.02,0.33-0.05,0.66-0.08,0.99c-0.01,0.12-0.02,0.24-0.03,0.36
		c-0.03,0.3-0.07,0.6-0.1,0.9c-0.02,0.15-0.04,0.3-0.06,0.44c-0.04,0.27-0.08,0.53-0.12,0.79c-0.03,0.19-0.06,0.37-0.1,0.56
		c-0.04,0.22-0.08,0.44-0.12,0.66c-0.02,0.11-0.05,0.21-0.07,0.31c-2.27-0.6-4.28-1.06-5.56-1.17l2.15-11.29
		c0.09,0.02,0.17,0.04,0.26,0.06C59.29,81.75,60.46,81.95,61.46,82.1z"/>
	<path class="st11" d="M75.32,99.75H63.01c-1.15,0-2.05-1-1.93-2.14l1.31-12.34c0.1-0.99,0.94-1.73,1.93-1.73h12.31
		c1.15,0,2.05,1,1.93,2.14l-1.31,12.34C77.14,99.01,76.31,99.75,75.32,99.75z"/>
	<path class="st11" d="M58,53.05H45.69c-1.15,0-2.05-1-1.93-2.14l1.31-12.34c0.1-0.99,0.94-1.73,1.93-1.73h12.31
		c1.15,0,2.05,1,1.93,2.14l-1.31,12.34C59.82,52.3,58.99,53.05,58,53.05z"/>
	<path class="st12" d="M36.05,29.95l-1.42,18.17c1.31,0.43,2.71,0.67,4.17,0.67c3.2,0,6.14-1.14,8.43-3.03l7.62,0.92l-3.76-6.18
		c0.62-1.54,0.97-3.21,0.97-4.97c0-3.31-1.21-6.33-3.21-8.65h-12.8V29.95z"/>
	<path class="st11" d="M54.29,76.4H41.98c-1.15,0-2.05-1-1.93-2.14l1.31-12.34c0.1-0.99,0.94-1.73,1.93-1.73H55.6
		c1.15,0,2.05,1,1.93,2.14l-1.31,12.34C56.11,75.65,55.28,76.4,54.29,76.4z"/>
	<path class="st11" d="M52.12,99.75H39.8c-1.15,0-2.05-1-1.93-2.14l1.31-12.34c0.1-0.99,0.94-1.73,1.93-1.73h12.31
		c1.15,0,2.05,1,1.93,2.14l-1.31,12.34C53.94,99.01,53.11,99.75,52.12,99.75z"/>
	<g>
		<path class="st0" d="M122.21,52.52c-0.04,0-0.09,0-0.13-0.01c-0.41-0.04-0.78-0.26-1.01-0.61l-6.25-9.55
			c-0.41-0.63-0.23-1.47,0.39-1.88c0.63-0.41,1.47-0.23,1.88,0.39l5.32,8.13l14.1-14.6c0.52-0.54,1.38-0.55,1.92-0.03
			c0.54,0.52,0.55,1.38,0.03,1.92L123.19,52.1C122.93,52.37,122.58,52.52,122.21,52.52z"/>
	</g>
	<g>
		<path class="st7" d="M120.04,51.34c-0.04,0-0.09,0-0.13-0.01c-0.41-0.04-0.78-0.26-1.01-0.61l-6.25-9.55
			c-0.41-0.63-0.23-1.47,0.39-1.88c0.63-0.41,1.47-0.23,1.88,0.39l5.32,8.13l14.1-14.6c0.52-0.54,1.38-0.55,1.92-0.03
			c0.54,0.52,0.55,1.38,0.03,1.92l-15.29,15.82C120.76,51.19,120.4,51.34,120.04,51.34z"/>
	</g>
	<g>
		<path class="st13" d="M91.3,66.82c0,0,8.77,19.88,1.14,21.04c-7.63,1.16-8.51-18.33-8.51-18.33L91.3,66.82z"/>
		<path class="st14" d="M86.51,80.05c0.28-3.84,3.22-6.93,6.75-8.1c-1.01-2.94-1.96-5.12-1.96-5.12l-7.37,2.71
			c0,0,0.39,8.72,2.94,14.15C86.55,82.52,86.42,81.29,86.51,80.05z"/>
		<path class="st15" d="M65.32,22.15c0,0,12.34-6.06,14.56,13.91c1.89,17.04,7.78,26.74,7.98,27.16c0.2,0.42-3.42,4.36-7,7.08
			c-3.58,2.73-6.48,4.66-6.48,4.66l-7.2,0.16c0,0-1.14,0.98-7.84-0.48c-6.7-1.46-9.6-5.43-9.6-5.43s2.3-3.58,3.69-12.09
			c1.39-8.5,1.37-23.99,2.78-27.54C60.03,19.95,65.32,22.15,65.32,22.15z"/>
		<path class="st13" d="M90.3,68.62l-36.95,0.57c0,0-0.93-1.68,1.03-6.85c1.96-5.16,7.36-5.2,10.25-8.68
			c1.04-1.25,1.43-1.52,1.72-3.05c0.51-2.73,0.16-5.26,0.16-5.26l7.69-2.24c0,0-0.21,4.15,0.97,7.68c0.53,1.6,1.51,1.75,2.76,2.65
			c1.87,1.34,8.08,3.88,10.76,6C91.36,61.55,90.3,68.62,90.3,68.62z"/>
		<path class="st16" d="M63.69,97.98c-5.12-0.82-7.66,5.94-7.66,5.94s-1.35,11.94-1.39,22.33c4.59,1.34,9.47,2.22,14.62,2.51
			c2.27-6.09,4.46-14.21,4.93-21.19C74.45,103.65,68.81,98.8,63.69,97.98z"/>
		<path class="st16" d="M86.87,101c0,0-1.32-3.5-5.89-1.99c-4.57,1.51-11.76,8.01-10.68,11.35c2.46,7.58,4.38,13.69,6.1,18.44
			c0.04,0,0.08,0,0.13,0c4.96-0.23,10.13-0.82,15.41-1.71C90.53,115.73,86.87,101,86.87,101z"/>
		<path class="st17" d="M54.79,120.31c-0.08,1.97-0.14,3.98-0.15,5.94c4.59,1.34,9.47,2.22,14.62,2.51
			c0.68-1.82,1.35-3.82,1.97-5.92C65.61,122.51,60.13,121.66,54.79,120.31z"/>
		<path class="st17" d="M76.41,123.01c-0.68,0-1.35-0.02-2.02-0.04c0.71,2.13,1.37,4.07,2.01,5.82c0.04,0,0.08,0,0.13,0
			c4.96-0.23,10.13-0.82,15.41-1.71c-0.2-1.64-0.46-3.35-0.74-5.08C86.42,122.86,81.49,123.2,76.41,123.01z"/>
		<path class="st13" d="M61.89,63.4l23.75,0.28c0,0,2.22,8.36,1.48,10.29c-0.74,1.94-4.73,10.07-3.81,15.07
			c0.93,5,4.2,10.11,4.61,12.35c0.41,2.24-6.5,3.62-15.76,4.88c-4.67,0.64-16.11-2.08-16.11-2.08s1.47-6.74,3.52-11.22
			c2.05-4.48,3.73-10.18,2.99-16.68s-0.9-13.77-0.9-13.77"/>
		<path class="st14" d="M75.17,50.79c-0.73,0.43,0.45-0.04-0.38,0.14c-1.95,0.44-6.35,0.77-8.43-0.32c0.51-2.73,0.16-5.26,0.16-5.26
			l7.69-2.24C74.2,43.1,73.99,47.25,75.17,50.79z"/>
		<path class="st13" d="M62.2,37.19c0,0-3.31-2.42-5.32-0.63c-2.01,1.79-1.1,5.49,0.82,6.39c1.92,0.9,5.31-1.17,5.31-1.17
			L62.2,37.19z"/>
		<path class="st14" d="M72.99,33.85c0,0,3.66-1.84,5.35,0.25c1.69,2.09,0.19,5.6-1.85,6.17c-2.04,0.58-5.05-2.02-5.05-2.02
			L72.99,33.85z"/>
		<path class="st13" d="M76.13,27.64c0,0,2.78,11.52,1.61,14.91c-1.17,3.39-3.33,4.87-5.86,5.44c-3.3,0.74-7.95-1.04-10.03-4.2
			c-2.08-3.16-3.14-14.07-3.14-14.07s6.13-3.87,8.77-4.18C70.13,25.24,76.13,27.64,76.13,27.64z"/>
		<path class="st18" d="M66.94,41.66c-0.07,0.61-0.63,1.05-1.24,0.98c-0.61-0.07-1.05-0.63-0.98-1.24c0.07-0.61,0.63-1.05,1.24-0.98
			C66.57,40.49,67.01,41.04,66.94,41.66z"/>
		<path class="st18" d="M76.89,41.65c-0.07,0.61-0.63,1.05-1.24,0.98c-0.61-0.07-1.05-0.63-0.98-1.24c0.07-0.61,0.63-1.05,1.24-0.98
			C76.52,40.48,76.96,41.04,76.89,41.65z"/>
		<path class="st15" d="M60.03,27.94c0,0,3.98,3.93,7.91,4.76c4.83,1.02,9.65,0.69,9.65,0.69s3.41-7.92-7.3-10.53
			C61.53,20.71,60.03,27.94,60.03,27.94z"/>
		<path class="st15" d="M64.7,27.81c0,0,0.77,3.01,0.01,5.62c-1.57,5.38-3.4,5.89-3.64,6.09c0,0-4.71-5.28-3.76-9.44
			C58.28,25.75,64.7,27.81,64.7,27.81z"/>
		<path class="st14" d="M72.34,35.91c-0.04-0.37-0.6-0.28-0.56,0.09c0.15,1.37,2.34,5.17,0.11,5.61c-0.36,0.07-0.28,0.64,0.09,0.56
			C74.95,41.58,72.53,37.63,72.34,35.91z"/>
		<path class="st15" d="M74.93,37.63c0.04,0.46-0.18,0.86-0.5,0.89c-0.32,0.03-0.62-0.32-0.66-0.78c-0.04-0.46,0.18-0.86,0.5-0.89
			C74.59,36.82,74.89,37.17,74.93,37.63z"/>
		<path class="st15" d="M67,37.94c0.04,0.46-0.18,0.86-0.5,0.89c-0.32,0.03-0.62-0.32-0.66-0.78c-0.04-0.46,0.18-0.86,0.5-0.89
			C66.66,37.13,66.96,37.48,67,37.94z"/>
		<path class="st15" d="M65.86,35.82c0.45-0.35,1.03-0.42,1.58-0.48c0.86-0.11,0.61-1.42-0.25-1.32c-0.79,0.1-1.55,0.27-2.19,0.77
			C64.32,35.33,65.18,36.35,65.86,35.82z"/>
		<path class="st15" d="M74.13,35.42c0.54-0.17,1.11-0.03,1.65,0.09c0.84,0.2,1.06-1.12,0.22-1.32c-0.77-0.18-1.55-0.28-2.32-0.03
			C72.85,34.42,73.31,35.68,74.13,35.42z"/>
		<path class="st14" d="M59.96,40.61c-0.17-0.23-0.58-0.25-0.67-0.53c-0.08-0.22,0.14-0.49,0.17-0.72c0.03-0.32-0.02-0.62-0.19-0.9
			c-0.59-1.01-1.96-0.48-2.32,0.42c-0.17,0.43,0.5,0.66,0.67,0.23c0.13-0.32,0.4-0.51,0.75-0.48c0.5,0.04,0.38,0.68,0.26,0.98
			c-0.12,0.3-0.07,0.65,0.1,0.93c0.13,0.22,0.72,0.43,0.69,0.65c-0.06,0.46,0.65,0.51,0.71,0.05C60.16,41,60.11,40.81,59.96,40.61z"
			/>
		<path class="st19" d="M87.93,101.4c0.41,2.24-6.5,3.62-15.76,4.88c-4.68,0.64-16.11-2.08-16.11-2.08s0.52-2.39,1.38-5.27
			c0.12-0.42,0.25-0.84,0.39-1.28c0.51-1.59,1.1-3.24,1.75-4.67c0.06-0.13,0.12-0.26,0.17-0.39c0.18-0.4,0.36-0.81,0.53-1.24
			c0.5-1.23,0.96-2.54,1.34-3.92c0.12-0.42,0.23-0.85,0.33-1.29c0.71-3,1.02-6.3,0.61-9.84c-0.2-1.72-0.36-3.48-0.48-5.16
			c-0.04-0.48-0.07-0.95-0.1-1.41c-0.01-0.22-0.03-0.45-0.04-0.67l-10.5-1.02c0,0,0.49-0.22,0.99-3.3c0.06-0.42,0.14-0.88,0.25-1.39
			c0.12-0.59,0.26-1.24,0.42-1.97c1.14-4.89,7.68-4.19,10.68-6.85c2.84,3.61,6.54,5.29,9.67,5.66c3.34,0.4,4.88-1.59,6.68-5.49
			c2.66,1.37,6.57,3.17,8.56,4.74c1.1,0.87,2.07,2.64,2.84,4.42c0.18,0.43,0.35,0.84,0.5,1.25c0.49,1.29,0.85,2.46,1.05,3.17
			c0.13,0.43,0.19,0.69,0.19,0.69l-2.22-0.1l-4.07,1.02c0.07,0.41-0.07-0.4,0,0c0.08,0.46,0.15,0.91,0.21,1.33
			c0.16,1.21,0.19,2.24-0.07,2.75c-1.2,2.3-3.42,7.15-3.88,11.55c-0.05,0.47-0.08,0.93-0.08,1.39c-0.01,0.74,0.03,1.45,0.16,2.13
			c0.13,0.69,0.3,1.38,0.5,2.06c0.12,0.43,0.27,0.86,0.41,1.29c0.55,1.54,1.21,3.03,1.82,4.37c0.2,0.43,0.39,0.85,0.58,1.24
			C87.26,99.41,87.78,100.59,87.93,101.4z"/>
		<path class="st20" d="M86.96,69.88l2.69-0.68c-1.19-3.53-5.72-6.01-5.72-6.01C85.97,65.72,86.96,69.88,86.96,69.88
			C86.92,69.66,86.94,69.77,86.96,69.88z"/>
		<path class="st20" d="M87.93,101.4c-0.15-0.81-0.66-1.98-1.31-3.39c-0.19-0.39-0.38-0.81-0.58-1.24
			c-0.61-1.34-1.27-2.83-1.82-4.37c-0.14-0.43-0.29-0.86-0.41-1.29c-0.2-0.68-0.37-1.37-0.5-2.06c-0.13-0.68-0.17-1.39-0.16-2.13
			c0.01-0.45,0.03-0.92,0.08-1.39c0.01-0.06,0.02-0.11,0.02-0.17l-2.78,4.71c-1.03-0.26-1.74-0.55-1.74-0.55l-0.68,0.29
			c0,0-0.9-0.81-2.21-0.02c-0.68,0.41-1.52,1.32-2.18,2.09c-2.16-0.73-7.82-2.6-12.25-3.76c-0.34,1.13-0.73,2.21-1.14,3.23
			c-0.17,0.43-0.35,0.84-0.53,1.24c-0.06,0.13-0.11,0.26-0.17,0.39c-0.24,0.52-0.46,1.08-0.68,1.65c5.99,1.19,12.64,1.29,13.23,1.29
			L75.85,97c0.18,0.05,0.36,0.09,0.54,0.12c-0.15,0.58,0.08,1.21,0.62,1.53l8.45,4.98C87.17,102.98,88.08,102.25,87.93,101.4z"/>
		<path class="st20" d="M58.97,68.77l2.97,0.29c0.01,0.22,0.03,0.45,0.04,0.67c0.03,0.46,0.07,0.93,0.1,1.41
			c0.12,1.67,0.27,3.44,0.48,5.16c0.41,3.54,0.09,6.84-0.61,9.84c-0.1,0.44-0.21,0.87-0.33,1.29c-0.38,1.38-0.85,2.69-1.34,3.92
			c-0.17,0.43-0.35,0.84-0.53,1.24c-0.06,0.13-0.11,0.26-0.17,0.39c-0.65,1.43-1.24,3.08-1.75,4.67c-0.13,0.4-0.25,0.78-0.36,1.17
			c1.6-2.91,7.76-14.34,8.08-18.36c0.36-4.62-4.51-13.32-4.51-13.32L58.97,68.77z"/>
		<path class="st13" d="M95.54,86.24c0,0-2.82,2.7-4.63,1.15c-1.81-1.55-1.76-4.45-0.19-6.36c1.56-1.92,17.05-19.84,17.94-18.8
			c0.58,0.68,2.89-1.17,2.49,0.36c-0.15,0.59-1.82,4.17-2.03,4.77C108.24,69.85,95.54,86.24,95.54,86.24z"/>
		<path class="st13" d="M76.27,87.08c0,0,7.47-3.55,8.53-3.18c1.06,0.38-3.47,3.78-3.47,3.78l-2.53,0.23L76.27,87.08z"/>
		<path class="st21" d="M87.41,101.82L79.23,97c-1.64-0.97-2.19-3.09-1.22-4.73l8.66-14.69c0.97-1.64,3.09-2.19,4.73-1.22l8.17,4.82
			c1.64,0.97,2.19,3.09,1.22,4.73l-8.66,14.69C91.17,102.24,89.05,102.79,87.41,101.82z"/>
		<path class="st13" d="M73.04,90.51c0,0,1.92-2.64,3.23-3.43c1.31-0.79,2.21,0.02,2.21,0.02l0.68-0.29c0,0,2.52,1.04,5,0.95
			c2.42-0.08,7.7,0.15,7.68,1.33c-0.01,0.78-5.22,0.24-5.22,0.24s3.82-0.01,3.64,0.87C90.1,91.08,86.2,91,86.2,91
			s3.26-0.11,2.74,0.77c-0.52,0.88-3.35,0.72-3.35,0.72s2.41,0.01,1.8,0.63c-0.61,0.62-4.95,0.96-6,1.14
			c-0.67,0.11-2.2,0.2-3.22,0.25c-0.64,0.03-1.27-0.04-1.89-0.22l-5.66-1.63L73.04,90.51z"/>
		<path class="st5" d="M67.16,43.24c0,0,1.65,4.46,4.61,2.47c1.13-0.76,1.56-1.42,1.49-1.93C73.26,43.78,67.23,43.42,67.16,43.24z"
			/>
		<path class="st13" d="M51.95,66.97c0,0-3.74,17.19-1.94,20.48c3.1,5.65,22.58,5.77,22.58,5.77l2.4-3.74c0,0-13.5-4.64-17.75-5.03
			l3.14-16.49L51.95,66.97z"/>
		<path class="st14" d="M59.53,72.26l0.84-4.29l-8.43-1c0,0-0.49,2.26-1.03,5.29H59.53z"/>
		<path class="st19" d="M50.5,69.19c0,0,1.47-8.23,3.57-9.83s9.08,4.8,9.08,4.8l-0.7,5.9L50.5,69.19z"/>
		<path class="st13" d="M107.22,67.16c0,0-1.18-2.24-1.32-3.66c-0.13-1.42,0.66-2.3,0.66-2.3l0.03-0.69c0,0,1.89-1.7,2.82-3.82
			c0.91-2.07,3.67-7.33,4.65-6.84c0.65,0.33-2.33,5.41-2.33,5.41s0.78-1.62,1.44-1.12c0.67,0.5-0.22,2.16-0.22,2.16
			s0.56-1.18,1.09-0.38c0.53,0.8-0.08,1.5-0.08,1.5s0.64-0.96,0.91-0.2c0.27,0.76-0.85,3.49-1.13,4.45c-0.18,0.61-0.4,1-0.77,1.88
			c-0.23,0.55-0.55,1.05-0.95,1.5l-4.61,4.47L107.22,67.16z"/>
		<path class="st13" d="M105.97,63.78c0,0-0.87-3.96-0.05-4.54c0.82-0.59,2.33-0.24,2.33-0.24l-0.65,2.03L105.97,63.78z"/>
	</g>
	<path class="st19" d="M53.23,43.29l-3.76-6.18c0.62-1.54,0.97-3.21,0.97-4.97c0-7.32-5.94-13.26-13.26-13.26
		c-7.32,0-13.26,5.94-13.26,13.26s5.94,13.26,13.26,13.26c3.2,0,6.14-1.14,8.43-3.03L53.23,43.29z"/>
	<g>
		<circle class="st5" cx="29.62" cy="32.14" r="2.86"/>
		<circle class="st5" cx="37.34" cy="32.14" r="2.86"/>
		<circle class="st5" cx="45.05" cy="32.14" r="2.86"/>
	</g>
	<g>
		<circle class="st2" cx="140.56" cy="22.93" r="2.8"/>
		<path class="st2" d="M153.56,17.13c-0.32,1.98-1.98,3.98-4.4,5.02c-2.69,1.17-5.53,0.9-7.22-0.45c-0.46-0.36-1.19-0.44-1.88-0.16
			c-1.16,0.47-1.63,1.65-0.92,2.32c2.57,2.38,7.29,2.87,11.66,0.8c3.49-1.65,5.84-4.61,6.23-7.53H153.56z"/>
		<path class="st8" d="M141.03,21.2c-2.53-1.07-4.28-3.62-4.17-6.57c0.13-3.48,2.96-6.37,6.44-6.57c3.86-0.22,7.07,2.76,7.24,6.53
			h2.93c-0.17-5.79-5.12-10.38-11.04-9.97c-5.02,0.35-9.11,4.39-9.53,9.4c-0.4,4.86,2.57,9.08,6.83,10.59
			c1.19,0.42,2.44-0.46,2.44-1.72l0,0C142.17,22.15,141.72,21.5,141.03,21.2z"/>
		<g>
			<path class="st9" d="M134.49,15.87c0.25-5.28,4.48-9.63,9.75-10.03c0.04,0,0.08-0.01,0.12-0.01c0.71-0.05,0.74-1.07,0.04-1.16
				c-0.74-0.09-1.51-0.1-2.29-0.02c-4.89,0.49-8.81,4.49-9.2,9.39c-0.13,1.57,0.1,3.08,0.61,4.45c0.25,0.67,1.24,0.4,1.12-0.3
				C134.5,17.44,134.45,16.66,134.49,15.87z"/>
		</g>
		<path class="st10" d="M150.54,14.59h1.69c-0.32-4.34-4.09-8.2-8.58-7.89c-3.91,0.27-7.1,3.4-7.42,7.28c-0.31,3.76,2,7.04,5.32,8.2
			c0.17,0.06,0.33,0.07,0.49,0.07c-0.18-0.47-0.54-0.85-1.02-1.05c-2.53-1.07-4.28-3.62-4.17-6.57c0.13-3.48,2.96-6.37,6.44-6.57
			C147.16,7.84,150.37,10.82,150.54,14.59z"/>
	</g>
	<g>
		<circle class="st2" cx="94.5" cy="22.93" r="2.8"/>
		<path class="st2" d="M107.49,17.13c-0.32,1.98-1.98,3.98-4.4,5.02c-2.69,1.17-5.53,0.9-7.22-0.45c-0.46-0.36-1.19-0.44-1.88-0.16
			c-1.16,0.47-1.63,1.65-0.92,2.32c2.57,2.38,7.29,2.87,11.66,0.8c3.49-1.65,5.84-4.61,6.23-7.53H107.49z"/>
		<path class="st8" d="M94.97,21.2c-2.53-1.07-4.28-3.62-4.17-6.57c0.13-3.48,2.96-6.37,6.44-6.57c3.86-0.22,7.07,2.76,7.24,6.53
			h2.93c-0.17-5.79-5.12-10.38-11.04-9.97c-5.02,0.35-9.11,4.39-9.53,9.4c-0.4,4.86,2.57,9.08,6.83,10.59
			c1.19,0.42,2.44-0.46,2.44-1.72l0,0C96.11,22.15,95.65,21.5,94.97,21.2z"/>
		<g>
			<path class="st9" d="M88.43,15.87c0.25-5.28,4.48-9.63,9.75-10.03c0.04,0,0.08-0.01,0.12-0.01c0.71-0.05,0.74-1.07,0.04-1.16
				c-0.74-0.09-1.51-0.1-2.29-0.02c-4.89,0.49-8.81,4.49-9.2,9.39c-0.13,1.57,0.1,3.08,0.61,4.45c0.25,0.67,1.24,0.4,1.12-0.3
				C88.44,17.44,88.39,16.66,88.43,15.87z"/>
		</g>
		<path class="st10" d="M104.48,14.59h1.69c-0.32-4.34-4.09-8.2-8.58-7.89c-3.91,0.27-7.1,3.4-7.42,7.28c-0.31,3.76,2,7.04,5.32,8.2
			c0.17,0.06,0.33,0.07,0.49,0.07c-0.18-0.47-0.54-0.85-1.02-1.05c-2.53-1.07-4.28-3.62-4.17-6.57c0.13-3.48,2.96-6.37,6.44-6.57
			C101.1,7.84,104.31,10.82,104.48,14.59z"/>
	</g>
	<g>
		<polygon class="st20" points="86.41,71.23 86.41,71.24 86.41,71.23 		"/>
	</g>
	<circle class="st22" cx="24.18" cy="75.44" r="4.59"/>
	
		<ellipse transform="matrix(0.2298 -0.9732 0.9732 0.2298 62.1123 224.1373)" class="st23" cx="172.66" cy="72.83" rx="4.59" ry="4.59"/>
	<path class="st23" d="M26.22,51.34c0,1.27-1.03,2.3-2.3,2.3c-1.27,0-2.3-1.03-2.3-2.3c0-1.27,1.03-2.3,2.3-2.3
		C25.19,49.04,26.22,50.07,26.22,51.34z"/>
	<path class="st22" d="M183.77,48.36c0,1.27-1.03,2.3-2.3,2.3c-1.27,0-2.3-1.03-2.3-2.3c0-1.27,1.03-2.3,2.3-2.3
		C182.74,46.07,183.77,47.1,183.77,48.36z"/>
</g>
</svg>
