<?xml version="1.0" encoding="utf-8"?>
<!-- Generator: Adobe Illustrator 26.0.1, SVG Export Plug-In . SVG Version: 6.00 Build 0)  -->
<svg version="1.1" id="Layer_1" xmlns="http://www.w3.org/2000/svg" xmlns:xlink="http://www.w3.org/1999/xlink" x="0px" y="0px"
	 width="55.2px" height="55.2px" viewBox="0 0 55.2 55.2" style="enable-background:new 0 0 55.2 55.2;" xml:space="preserve">
<style type="text/css">
	.st0{fill:#0F0F0F;}
</style>
<g>
	<path class="st0" d="M26.24,50.84c-0.88-0.12-1.77-0.21-2.64-0.36c-5.34-0.95-9.82-3.48-13.41-7.53
		c-3.29-3.71-5.21-8.06-5.69-12.99c-0.59-6.07,0.94-11.58,4.65-16.44c3.48-4.56,8.07-7.47,13.69-8.65c1.54-0.32,3.14-0.4,4.72-0.5
		c0.98-0.07,1.74,0.69,1.79,1.62c0.05,0.99-0.58,1.73-1.6,1.85c-1.35,0.15-2.72,0.18-4.05,0.44c-3.44,0.66-6.48,2.19-9.1,4.52
		c-3.52,3.13-5.74,7.01-6.45,11.66c-0.92,6,0.59,11.37,4.54,16c2.62,3.08,5.9,5.21,9.82,6.19c6.83,1.7,12.98,0.27,18.29-4.41
		c3.49-3.07,5.56-6.96,6.31-11.54c0.16-0.98,0.17-1.99,0.24-2.98c0.09-1.24,0.91-2,2.03-1.84c0.8,0.11,1.21,0.66,1.48,1.36
		c0,0.58,0,1.15,0,1.73c-0.04,0.33-0.07,0.65-0.11,0.98c-0.56,5-2.47,9.41-5.84,13.16c-3.58,3.97-8.01,6.45-13.29,7.39
		c-0.87,0.15-1.76,0.24-2.64,0.36C28.05,50.84,27.14,50.84,26.24,50.84z"/>
	<path class="st0" d="M26.04,31.77c0.17-0.23,0.26-0.38,0.38-0.49c6.79-6.78,13.58-13.55,20.37-20.33c0.51-0.51,1.05-0.86,1.81-0.72
		c1.27,0.24,1.86,1.71,1.08,2.75c-0.12,0.16-0.26,0.3-0.4,0.43C42,20.67,34.72,27.93,27.45,35.18c-1.04,1.04-2.01,1.02-3-0.05
		c-2.83-3.07-5.66-6.14-8.48-9.22c-0.75-0.82-0.75-1.91-0.01-2.59c0.72-0.66,1.76-0.62,2.48,0.12c0.68,0.71,1.34,1.44,2,2.17
		c1.79,1.95,3.59,3.9,5.38,5.85C25.88,31.52,25.91,31.59,26.04,31.77z"/>
</g>
</svg>
