<?xml version="1.0" encoding="utf-8"?>
<!-- Generator: Adobe Illustrator 26.0.1, SVG Export Plug-In . SVG Version: 6.00 Build 0)  -->
<svg version="1.1" id="Layer_1" xmlns="http://www.w3.org/2000/svg" xmlns:xlink="http://www.w3.org/1999/xlink" x="0px" y="0px"
	 width="650px" height="478.8px" viewBox="0 0 650 478.8" style="enable-background:new 0 0 650 478.8;" xml:space="preserve">
<style type="text/css">
	.st0{fill:#DDE2F3;}
	.st1{fill:#7C98CE;}
	.st2{fill:#243B7A;}
	.st3{fill:#FFFFFF;}
	.st4{fill:#487ABD;}
	.st5{fill:#F79B80;}
	.st6{fill:#7A7BA5;}
	.st7{fill:#8282A9;}
	.st8{fill:#D1D0DF;}
	.st9{fill:#7677A2;}
	.st10{fill:#849ED1;}
	.st11{fill:#424F86;}
	.st12{fill:#F0EFF4;}
	.st13{fill:#CCCBDB;}
	.st14{fill:#555D90;}
	.st15{fill:#71739F;}
	.st16{fill:#ADACC6;}
	.st17{fill:#686B9A;}
	.st18{fill:#8D8CB1;}
	.st19{fill:#D4DBEF;}
	.st20{fill:#F15F46;}
	.st21{font-family:'Quicksand-Bold';}
	.st22{font-size:15.962px;}
	.st23{fill:#809BD0;}
</style>
<g>
	<path class="st0" d="M133.26,431.6c0,0-72.65-51.74-93.57-139.8C18.77,203.72,50.7,96.94,111.24,43
		c60.55-53.94,169.53-17.61,217.96,27.52s48.44,45.13,48.44,45.13s46.23,25.32,106.78,23.12c60.55-2.2,114.49,80.36,128.8,145.31
		c14.31,64.95-19.81,150.81-19.81,150.81L133.26,431.6z"/>
	<path class="st0" d="M100.23,444.81c0,0-50.64-27.52-63.85-91.37s44.03-122.19,49.54-154.12c5.5-31.92-6.6-71.55,44.03-102.38
		c50.64-30.82,140.91-19.81,175.03-27.52c34.13-7.71,73.76-60.55,142.01-48.44c68.25,12.11,134.3,48.44,137.6,127.7
		c3.3,79.26-22.02,81.46,3.3,124.39c25.32,42.93,35.23,72.65,23.12,116.69c-12.11,44.03-37.43,56.14-37.43,56.14L100.23,444.81z"/>
	<path class="st0" d="M205.97,430.49c-3.15-3.3-49.35-95.77,2.1-180.54c51.45-84.76,180.6-74.86,232.05-41.83
		s76.65,75.96,81.9,121.09c5.25,45.13-29.4,115.59-29.4,115.59L205.97,430.49z"/>
	<g>
		<g>
			<path class="st1" d="M569.87,274.82h-62.65c-2.76,0-5-2.24-5-5v-32.93c0-2.76,2.24-5,5-5h62.65c2.76,0,5,2.24,5,5v32.93
				C574.87,272.58,572.63,274.82,569.87,274.82z"/>
			<polygon class="st1" points="538.54,291.61 547.95,269.32 529.14,269.32 			"/>
		</g>
		<g>
			<g>
				<g>
					<polygon class="st2" points="538.32,245.98 555.31,245.98 555.31,248.47 563.64,243.66 555.31,238.86 555.31,241.35 
						538.32,241.35 					"/>
				</g>
				<g>
					<polygon class="st3" points="563.64,255.75 546.65,255.75 546.65,253.27 538.32,258.07 546.65,262.87 546.65,260.38 
						563.64,260.38 					"/>
				</g>
			</g>
			<g>
				<path class="st2" d="M527.89,260.12l-0.81,0.29c0,0-2.52-2.88-3.83-6.01c-1.31-3.13-1.35-6.96-1.35-6.96l0.59-0.25l-3.59-8.6
					c-0.64,0.5-1.25,1.14-1.74,1.98c-2.03,3.44-1.83,8.71,0.21,13.86s4.23,9.75,8.22,12.63c2.35,1.71,4.37,2,5.94,1.76
					L527.89,260.12z"/>
				<path class="st2" d="M530.47,259.11l-1.12,0.41l3.68,8.8c0.42-0.14,0.79-0.3,1.11-0.48c0.95-0.52,1.37-1.66,0.97-2.67
					l-1.92-4.84C532.76,259.25,531.56,258.71,530.47,259.11z"/>
				<path class="st2" d="M521.71,237.09c-0.45,0.16-0.94,0.38-1.44,0.68l3.67,8.78l1.24-0.52c1.07-0.45,1.59-1.67,1.17-2.75
					l-1.93-4.95C523.99,237.25,522.79,236.7,521.71,237.09z"/>
			</g>
		</g>
	</g>
	<g>
		<path class="st4" d="M188.8,415.63v-99.07c0,0-1.1-26.69,12.93-34.4c14.04-7.71,73.2-3.58,73.2-3.58v137.05H188.8z"/>
	</g>
	<g>
		<g>
			<path class="st5" d="M293.43,185.84c0,0-3.58,30-4.95,32.47c-1.38,2.48-1.38,2.48-1.38,2.48l-6.88,4.68
				c0,0,13.21,18.71,29.45,21.74c16.24,3.03,14.86-6.6,14.86-6.6l-2.48-5.23l3.3-28.62C325.35,206.75,295.9,193.27,293.43,185.84z"
				/>
		</g>
		<path class="st3" d="M271.69,227.94l10.73-4.68c0,0,6.88,11.28,22.84,17.89c15.96,6.6,16.24,2.75,17.06,0
			c0.83-2.75-0.28-5.78-0.28-5.78l1.18-9.64l6.38,2.13l22.16,179.24l-56.97,2.75L271.69,227.94z"/>
		<g>
			<path class="st2" d="M324.25,225.92c0,0,3.85,8.9,7.43,29.81c3.58,20.92,6.88,56.14,7.71,80.36c0.83,24.22,1.38,79.53,1.38,79.53
				s71,0,71.83,0s5.78-27.25,5.78-27.25s-31.37-26.88-33.02-31.28c-1.1-2.94-0.55-57.33-5.23-82.38
				c-4.68-25.04-10.73-30.09-23.39-36.33C343.64,231.95,324.25,225.92,324.25,225.92z"/>
		</g>
		<g>
			<path class="st6" d="M361.68,384.1c-0.37,0-0.67-0.3-0.67-0.67c0-1.97-0.35-29.92-0.69-56.96c-0.34-27.04-0.69-55-0.69-56.98
				c0-0.37,0.3-0.67,0.67-0.67c0.37,0,0.67,0.3,0.67,0.67c0,1.97,0.35,29.92,0.69,56.96c0.34,27.04,0.69,55,0.69,56.98
				C362.34,383.8,362.05,384.1,361.68,384.1z"/>
		</g>
		<g>
			<path class="st2" d="M218.57,377.38l-0.55,38.25h83.66c0,0,3.58-32.47,2.2-35.5C302.51,377.1,218.57,377.38,218.57,377.38z"/>
		</g>
		<g>
			<path class="st7" d="M311.68,217.48c3.41,2.75,8.07,4.95,11.7,6.29l1.96-17.02c0,0-22.12-10.13-29.62-17.67
				C297.3,197.65,301.15,209,311.68,217.48z"/>
		</g>
		<g>
			<path class="st5" d="M351.22,129.97c0,0,5.78,9.91,6.88,22.02c1.1,12.11,0,43.21-9.91,56.42c-9.91,13.21-30.55,9.36-39.9,1.38
				c-8.59-7.32-17.06-15.41-19.26-31.37c-2.2-15.96,4.68-46.23,24.22-52.56C332.78,119.51,351.22,129.97,351.22,129.97z"/>
		</g>
		<g>
			<g>
				<path class="st5" d="M376.05,398.33c0,0-0.97,0-2.45-0.04c-0.35-0.01-0.73,0-1.13-0.01c-1.42-0.04-3.15-0.08-4.89-0.13
					c-0.39-0.01-0.78-0.03-1.17-0.04c-1.73-0.04-3.21,0.17-4.59,0.09h-0.04c-0.29-0.01-0.72,0.03-1.06,0.04
					c-0.17,0.01-0.33,0.03-0.44,0.01c-0.8-0.15-0.96-0.33-1.82-0.72c-1.12-0.51-16.24-3.88-28.55-3.8
					c-12.29,0.05-23.32,0.89-25.11-0.61c-1.81-1.53-2.9-16.97,7.6-17.98l12.9,4.89c0,0,29.46-3.5,40.26,4.47
					C376.38,392.47,376.05,398.33,376.05,398.33z"/>
			</g>
			<g>
				<g>
					<path class="st2" d="M361.78,398.2c-0.29-0.01-0.72,0.03-1.06,0.04c-0.27-0.43-0.82-1.2-1.13-1.52
						c-3.33-3.39-11.36-5.59-14.27-6.29c-0.27-0.07-0.44-0.33-0.37-0.6c0.05-0.27,0.33-0.43,0.61-0.37
						c4.24,1.02,13.25,3.64,15.8,7.94C361.43,397.52,361.64,397.93,361.78,398.2z"/>
				</g>
			</g>
			<g>
				<g>
					<path class="st2" d="M367.58,398.14c-0.39-0.01-0.78-0.02-1.17-0.04c-3.63-6.62-9.57-8.52-16.91-10.88l-0.44-0.14
						c-0.25-0.09-0.4-0.37-0.32-0.63c0.09-0.25,0.36-0.4,0.63-0.32l0.42,0.14C357.56,388.76,363.81,390.76,367.58,398.14z"/>
				</g>
			</g>
			<g>
				<g>
					<path class="st2" d="M373.6,398.29c-0.35-0.01-0.73,0-1.13-0.01c-2.2-4.63-9.49-12.38-19.13-14.18
						c-0.28-0.05-0.46-0.3-0.41-0.58c0.06-0.26,0.32-0.44,0.58-0.4C363.44,384.98,371.45,393.09,373.6,398.29z"/>
				</g>
			</g>
		</g>
		<g>
			<path class="st2" d="M295.63,164.78c0,0,6.05-2.89,10.32-11.01c4.27-8.12,3.72-15.41,3.72-15.41s7.71-1.24,19.26,2.2
				c11.56,3.44,25.32,8.12,36.88,1.51c11.56-6.6,11.56-17.2,5.92-21.6c-6.32-4.93-18.85-1.93-18.85-1.93s4.82-4.68,2.2-7.43
				c-2.61-2.75-12.11,0.83-12.11,0.83s-11.56-9.22-33.44-8.12c-21.88,1.1-32.34,16.37-33.58,33.44
				c-1.24,17.06,4.95,34.13,4.95,34.13L295.63,164.78z"/>
		</g>
		<g>
			<g>
				<path class="st7" d="M340.02,168.92c-1.24,3.06-1.21,6.6-1.52,9.85c-0.24,2.52-0.71,5.47,1.61,7.17
					c1.1,0.81,6.33,3.01,3.64,4.79c-1.02,0.68-2.74,0.49-3.91,0.44c-0.8-0.04-1.61-0.07-2.42-0.13c-0.86-0.06-1.71-0.32-2.57-0.33
					c-0.51,0-0.66,0.67-0.25,0.93c1.39,0.87,3.43,1.14,5.05,1.2c1.62,0.06,2.72-0.01,4.18-0.74c0.9-0.44,1.77-1.07,1.91-2.14
					c0.16-1.2-0.74-2.28-1.64-2.95c-1.04-0.77-2.32-1.13-3.37-1.88c-1.46-1.04-1.34-2.8-1.23-4.43c0.25-3.91,1.15-7.76,1.5-11.65
					C341.03,168.45,340.21,168.45,340.02,168.92L340.02,168.92z"/>
			</g>
		</g>
		<g>
			<path class="st2" d="M351.27,178.07c-0.41,2.32-2.1,3.96-3.77,3.66c-1.67-0.3-2.69-2.42-2.28-4.74c0.41-2.32,2.1-3.96,3.77-3.66
				C350.65,173.63,351.68,175.75,351.27,178.07z"/>
		</g>
		<g>
			<path class="st2" d="M330.21,176.23c-0.37,2.5-2.14,4.31-3.94,4.05s-2.96-2.51-2.59-5.02c0.37-2.5,2.14-4.31,3.94-4.05
				S330.58,173.73,330.21,176.23z"/>
		</g>
		<g>
			<g>
				<path class="st2" d="M346.36,168.51c1.29,0.22,2.58,0,3.88,0.09c0.31,0.02,0.62,0.07,0.93,0.1c0.22,0.02-0.41-0.07-0.1-0.01
					c0.07,0.01,0.13,0.02,0.2,0.03c0.16,0.03,0.32,0.06,0.48,0.1c0.28,0.07,0.54,0.17,0.82,0.23c0.25,0.05,0.53,0.11,0.78,0.1
					c0.14-0.02,0.28-0.04,0.42-0.06c-0.09,0.02-0.18,0.03-0.27,0.05c0,0.03,0.48-0.05,0.53-0.06c0.74-0.17,1.19-1.03,0.99-1.74
					c-0.06-0.21-0.15-0.39-0.28-0.56c-0.05-0.07-0.11-0.14-0.17-0.21c0.05,0.06,0.1,0.12,0.16,0.18c-0.05-0.08-0.11-0.15-0.17-0.23
					c-0.07-0.12-0.17-0.22-0.29-0.29c-0.1-0.08-0.2-0.16-0.31-0.24c-0.34-0.24-0.79-0.38-1.19-0.48c-0.77-0.2-1.57-0.3-2.37-0.3
					c-0.79,0-1.56,0.08-2.34,0.19c-0.69,0.09-1.45,0.33-2.01,0.74c-0.43,0.32-0.7,0.73-0.62,1.29
					C345.5,167.89,345.86,168.42,346.36,168.51L346.36,168.51z"/>
			</g>
		</g>
		<g>
			<g>
				<path class="st2" d="M331.68,164.83c-0.17-0.1-0.35-0.19-0.54-0.28c-0.16-0.07-0.58-0.29-0.26-0.12
					c-0.12-0.06-0.23-0.13-0.35-0.19c-0.53-0.27-1.09-0.45-1.66-0.6c-1.26-0.32-2.58-0.4-3.87-0.27c-1.37,0.14-2.63,0.48-3.82,1.19
					c-0.17,0.1-0.34,0.2-0.48,0.34c-0.09,0.12-0.19,0.24-0.28,0.36c0.03-0.04,0.05-0.08,0.08-0.12c-0.37,0.26-0.58,0.68-0.58,1.12
					c0,0.43,0.22,0.78,0.6,0.99c0.45,0.25,0.88,0.13,1.34,0.01c-0.23,0-0.46,0-0.7,0c0.38,0.06,0.65,0.07,1.04-0.01
					c0.01,0,0.37-0.09,0.14-0.04c-0.22,0.05,0.37-0.05,0.44-0.06c0.08-0.01,0.49-0.05,0.05-0.01c0.08-0.01,0.16-0.02,0.24-0.03
					c0.21-0.03,0.42-0.05,0.62-0.07c0.91-0.07,1.81-0.11,2.72-0.14c0.84-0.03,1.71-0.03,2.55,0c0.36,0.02,0.72,0.03,1.08,0.04
					c0.2,0.01,0.12,0.04-0.02-0.01c0.07,0.02,0.15,0.04,0.23,0.06c0.15,0.04,0.3,0.09,0.44,0.15c0.59,0.22,1.29-0.2,1.51-0.74
					C332.44,165.83,332.24,165.16,331.68,164.83L331.68,164.83z"/>
			</g>
		</g>
		<g>
			<path class="st2" d="M338.22,203.08c1.26-2.54,3.56-4.4,6.22-5.6c-2.31-0.23-13.19-1.24-15.94,0.32
				c-3.08,1.75,0.57,8.76,6.93,9.12c0.67,0.04,1.28-0.02,1.86-0.11C337.34,205.53,337.63,204.26,338.22,203.08z"/>
		</g>
		<g>
			<path class="st8" d="M287.92,188.31c0,0,1.1,4.27,7.43,9.22c6.33,4.95,15.5,8.58,15.5,8.58l0.73-3.21c0,0-9.49-4.13-13.9-8.67
				c-4.4-4.54-4.95-7.02-4.95-7.02L287.92,188.31z"/>
		</g>
		<g>
			<path class="st2" d="M312.69,200.52c5.09-0.24,7.94,3.79,8.29,6.4c0.36,2.61-2.09,5.53-7.82,2.96
				C306.05,206.69,307.6,200.76,312.69,200.52z"/>
		</g>
		<g>
			<path class="st8" d="M291.91,156.8c0,0,2.2-15.82,12.8-26.56c20.23-20.5,37.43-19.26,37.43-19.26s-0.14-2.89-6.6-5.09
				c-6.07-2.07-8.81-0.96-8.81-0.96s-16.65,1.38-30.69,16.93c-14.04,15.55-15.55,35.36-15.55,35.36L291.91,156.8z"/>
		</g>
		<g>
			<g>
				<path class="st3" d="M290.4,154.88c-13.25-2.25-20.64,8.12-21.19,18.58c-0.55,10.46,7.05,18.41,17.2,17.61
					C309.25,189.28,306.64,157.63,290.4,154.88z"/>
			</g>
			<g>
				<path class="st9" d="M283.8,180.9c-3.5,0-6.45-1.76-8.14-4.85c-1.81-3.32-1.66-7.4,0.39-10.4c0.16-0.23,0.47-0.29,0.69-0.13
					c0.23,0.16,0.29,0.47,0.13,0.69c-1.84,2.69-1.97,6.37-0.34,9.36c1.55,2.84,4.28,4.45,7.52,4.33c3.03-0.08,5.59-1.47,7.22-3.9
					c1.86-2.78,2.29-6.61,1.09-9.77c-1.19-3.13-4.45-5.27-7.42-4.88c-0.27,0.04-0.52-0.16-0.56-0.43c-0.04-0.27,0.16-0.52,0.43-0.56
					c3.47-0.46,7.12,1.91,8.49,5.52c1.31,3.45,0.84,7.65-1.2,10.68c-1.82,2.71-4.67,4.25-8.03,4.34
					C283.99,180.9,283.9,180.9,283.8,180.9z"/>
			</g>
		</g>
		<g>
			<path class="st2" d="M274.16,224.09c0,0-40.18,9.91-54.22,25.87c-14.04,15.96-20.64,94.67-20.92,109.26
				c-0.28,14.59,9.91,20.64,15.96,24.77c6.05,4.13,32.75,11.56,54.22,12.66c21.47,1.1,41.83,0,41.83,0s-0.07-4.68,3.23-11.56
				c3.06-6.38,6.95-7.71,6.95-7.71l-18.44-6.61c0,0-3.23-57.85-8.26-85.86C288.75,252.71,274.16,224.09,274.16,224.09z"/>
		</g>
		<g>
			<path class="st6" d="M340.76,361.53c-0.09,0-0.18-0.02-0.27-0.06c-0.34-0.15-0.49-0.54-0.34-0.88
				c3.76-8.49,7.67-25.17,9.86-36.87l0.18-0.95c0.67-3.44,1.49-7.72-0.16-10.68c-0.84-1.51-2.74-4.78-4.57-7.92
				c-1.9-3.26-3.69-6.35-4.19-7.27c-0.97-1.8,2.08-6.6,6.5-13.18c1.19-1.78,2.22-3.32,2.83-4.36c1.57-2.72,0.53-5.22-0.69-8.11
				l-0.41-1c-1.1-2.7-2.35-5.41-3.56-8.02c-0.49-1.07-0.99-2.14-1.48-3.21c-0.65-1.42-1.29-2.87-1.95-4.33
				c-3.89-8.67-7.91-17.63-13.06-26.29c-0.19-0.32-0.08-0.72,0.23-0.91c0.32-0.19,0.72-0.08,0.91,0.23
				c5.19,8.73,9.23,17.72,13.13,26.43c0.66,1.46,1.3,2.91,1.95,4.33c0.49,1.07,0.98,2.14,1.47,3.21c1.22,2.63,2.47,5.35,3.58,8.08
				l0.41,0.98c1.24,2.95,2.52,5.99,0.61,9.29c-0.62,1.08-1.67,2.63-2.87,4.43c-2.3,3.43-7.1,10.58-6.43,11.81
				c0.49,0.9,2.27,3.97,4.17,7.23c1.83,3.15,3.74,6.43,4.58,7.94c1.89,3.38,1.01,7.92,0.3,11.58l-0.18,0.94
				c-0.8,4.26-5.04,26.07-9.95,37.16C341.26,361.39,341.02,361.53,340.76,361.53z"/>
		</g>
		<g>
			<path class="st6" d="M301.55,363.87c-0.17,0-0.34-0.07-0.47-0.2c-3.13-3.15-18.21-29.26-19.33-34.18
				c-0.62-2.69,0.93-9.51,2.42-16.1c1.16-5.11,2.35-10.39,2.01-11.82c-0.51-2.14-4.36-5.29-8.09-8.33
				c-4.51-3.68-9.16-7.49-10.07-10.91c-1.03-3.9-0.15-28.29,0.43-44.43c0.21-5.8,0.37-10.39,0.37-12.02c0-0.37,0.3-0.67,0.66-0.67
				c0,0,0,0,0,0c0.37,0,0.67,0.3,0.67,0.66c0,1.66-0.16,6.25-0.37,12.07c-0.54,15.09-1.45,40.33-0.47,44.04
				c0.79,3.01,5.48,6.84,9.62,10.22c4.08,3.33,7.93,6.48,8.55,9.06c0.41,1.73-0.71,6.68-2.01,12.42
				c-1.39,6.15-2.97,13.12-2.42,15.51c1.1,4.81,15.91,30.44,18.98,33.53c0.26,0.26,0.26,0.68,0,0.94
				C301.89,363.81,301.72,363.87,301.55,363.87z"/>
		</g>
		<g>
			<path class="st6" d="M247.47,352.45c-0.03,0-0.06,0-0.09-0.01c-0.36-0.05-0.62-0.39-0.57-0.75c0.49-3.46,8.12-72.36,8.47-77.64
				c0.02-0.37,0.34-0.65,0.71-0.62c0.37,0.02,0.64,0.34,0.62,0.71c-0.35,5.29-7.99,74.27-8.48,77.74
				C248.08,352.21,247.79,352.45,247.47,352.45z"/>
		</g>
		<g>
			<path class="st6" d="M302.23,371.16c-0.08,0-0.17-0.02-0.25-0.05c-1.69-0.69-9.17-3.21-18.63-6.4
				c-19.1-6.44-45.26-15.26-50.23-17.85c-0.33-0.17-0.45-0.57-0.28-0.9c0.17-0.33,0.57-0.46,0.9-0.28
				c4.88,2.54,32.06,11.7,50.04,17.76c9.48,3.2,16.98,5.72,18.7,6.42c0.34,0.14,0.5,0.53,0.37,0.87
				C302.75,371.01,302.5,371.16,302.23,371.16z"/>
		</g>
		<g>
			<path class="st6" d="M293.05,398.6c-16.81,0-49.4-3.03-74.15-11.79c-0.35-0.12-0.53-0.5-0.41-0.85c0.12-0.35,0.51-0.53,0.85-0.41
				c31.27,11.06,75.02,12.95,83.16,11.12c0.36-0.08,0.71,0.15,0.79,0.5c0.08,0.36-0.14,0.71-0.5,0.79
				C301.03,398.38,297.62,398.6,293.05,398.6z"/>
		</g>
	</g>
	<g>
		<g>
			<g>
				<path class="st10" d="M100.66,233.37c5.22,4.59,11.83,7.53,16.41,12.84c1.8,2.09,3.42,4.31,5.09,6.5
					c1.22,1.59,4.47,4.24,4.99,6.24c0.23,0.88,0.18-0.31-0.05-1.2c-0.01-0.04-0.03-0.07-0.04-0.11c-0.46-4.06-0.78-8.13-0.93-12.21
					c-0.14-4.07,0.11-8.15-0.14-12.22c-0.36-5.73-2.15-11.28-6.83-14.87c-2.29-1.75-5.23-2.82-7.34-4.77c-2-1.85-1.2-3.97-0.02-6.03
					c1.1-1.93,2.43-3.83,2.86-6.05c0.49-2.52-0.46-5.13-1.74-7.28c-2.72-4.57-8.77-9.68-14.49-8.99c-4.77,0.57-5.31,6.08-5.25,9.91
					c0.07,3.73,0.44,7.45,0.47,11.18c0.04,3.83-0.62,7.59-0.67,11.41C92.89,224.23,95.89,229.17,100.66,233.37z"/>
				<path class="st10" d="M149.15,292.94c1.45-3.47,3.12-6.7,5.17-9.86c2.81-4.32,5.93-8.54,7.82-13.38
					c1.93-4.94,1.65-10.23,1.84-15.43c0.14-3.83,1.28-7.64,0.97-11.48c-0.15-1.84-1.21-4.81-3.59-4.51c-1.85,0.24-2.95,2.53-3.66,4
					c-1.24,2.56-2.1,5.28-3.03,7.96c-0.36,1.05-0.7,2.12-1.16,3.13c-0.26,0.59-1.11,2.03-1.9,1.83c-1.35-0.33-0.12-5.85,0.08-6.83
					c1.01-4.91,2.53-9.48,2.74-14.53c0.31-7.33-0.26-16.05-7.43-20.05c-1.87-1.05-4.25-1.67-6.03-0.1
					c-1.76,1.55-2.25,4.22-2.51,6.43c-0.8,6.77,0.79,13.17,2.96,19.54c1.79,5.26,3.92,10.68,4.08,16.3
					c0.15,5.41-2.67,10.21-3.99,15.32c-2.11,8.15-1.67,12.47-1.68,15.1c-0.01,3.3,0.11,6.57,0.35,9.87
					c0.22,3.03,0.48,6.06,0.86,9.07c0.08,0.61,0.14,1.25,0.23,1.88c-1.16-2.8-1.57-6.01-2.53-8.83c-1.71-5.01-3.7-9.91-5.35-14.94
					c-1.36-4.16-2.64-8.34-4.43-12.34c-1.68-3.75-3.71-7.71-6.85-10.46c-1.9-1.66-4.2-2.63-6.73-2.62
					c-1.62,0.01-3.08,0.57-4.63,0.98c-1.91,0.5-3.41,0.33-4.98-0.88c-5.14-3.95-6.7-11.03-10.5-16.02
					c-2.84-3.73-9.56-10.08-14.51-6.02c-2.62,2.16-3.35,6.32-3.21,9.52c0.17,4.01,1.92,7.67,4.01,11.03
					c2.22,3.56,5.08,6.76,7.12,10.42c1.2,2.16,1.39,4.24,1.2,6.68c-0.18,2.3-0.38,4.53,0.4,6.75c2.35,6.66,9.71,5.73,15.42,5.91
					c4,0.12,8.29,0.72,12.09,2c4.39,1.48,7.25,4.33,8.81,8.68c1.14,3.14,1.74,6.71,3.88,9.38c1.01,1.26,2.34,2.18,3.8,2.83
					c2.23,0.99,9.03,1.41,9.08,0.79c0.17-2.08,1.15-4.27,1.77-6.24C146.29,300.12,147.65,296.51,149.15,292.94z"/>
				<path class="st10" d="M180.71,291.68c-0.59-3.81-0.48-8.01-2.28-11.51c-0.13-0.25-0.47-0.31-0.7-0.18
					c-1.29,0.72-1.35,2.81-1.45,4.09c-0.17,2.12-0.04,4.25-0.31,6.37c-0.46,3.72-1.32,7.55-2.66,11.06
					c-1.52,3.97-4.27,6.21-8.28,7.45c-2.57,0.8-5.1,1.49-7.24,3.19c-1.92,1.53-3.26,3.64-4.25,5.86c-2.67,5.99-3.95,12.7-5.19,19.1
					c-0.83,4.31-1.51,8.64-2.56,12.91c-1.05,4.27-2.17,8.51-2.77,12.87c-0.1,0.22-0.21,0.44-0.3,0.66c-0.27,0.65,0.75,1,1.1,0.46
					c4.13-6.36,9.17-12.07,16.04-15.58c3.1-1.58,7.22-1.91,9.81-4.4c1.97-1.89,2.24-4.78,1.95-7.35c-0.39-3.38-2.01-6.16-3.69-9.04
					c-0.93-1.58-2.02-3.28-1.65-5.2c0.35-1.81,1.86-3.15,3.36-4.08c2.86-1.77,6.19-2.57,8.53-5.13c2.17-2.37,3.38-5.33,3.62-8.52
					C182.1,300.46,181.37,295.89,180.71,291.68z"/>
				<path class="st10" d="M124.36,313.65c-3.65-4.7-8.05-8.75-13-12.04c-2.64-1.75-8.88-5.22-10.14-0.04
					c-0.74,3.03,2.23,6.02,4.19,7.92c2.94,2.86,6.33,5.33,8.81,8.62c-3.07,0.98-6.27,1.17-8.94,3.29
					c-3.16,2.51-4.57,7.36-1.44,10.44c1.52,1.5,3.55,2.42,5.45,3.34c2.47,1.2,4.98,2.28,7.51,3.34c5.46,2.28,11,4.6,15.66,8.34
					c4.75,3.81,9.21,10.25,9.59,16.47c0.04,0.59-0.19,0.05,0.17-0.22c0.19,0.17,0.84-0.14,0.84-0.48
					c-0.1-9.22-1.75-18.01-5.52-26.46C134.03,328.32,129.63,320.43,124.36,313.65z"/>
			</g>
			<g>
				<path class="st11" d="M111.76,227.78c2.01,4.18,4.12,8.25,6.35,12.33c2.15,3.92,4.3,7.81,5.91,11.99
					c1.98,5.15,4.06,10.22,6.15,15.33c2.18,5.3,4.12,10.71,5.68,16.23c3.05,10.77,5.31,21.86,6.43,33
					c0.57,5.67,0.83,11.37,0.67,17.06c-0.12,4.45-0.62,8.85-1.04,13.28c-0.43,4.61-0.75,9.26-0.36,13.89
					c0.32,3.86,0.94,8.45,3.93,11.21c0.59,0.54,1.42-0.13,1.08-0.83c-3.56-7.31-3.36-15.27-2.68-23.19
					c0.38-4.37,0.9-8.72,1.05-13.11c0.19-5.59-0.03-11.18-0.56-16.74c-1.03-10.93-3.21-21.74-6.04-32.34
					c-1.45-5.44-3.24-10.77-5.31-16c-2.07-5.25-4.47-10.35-6.47-15.62c-3.63-9.53-9.17-17.99-14.07-26.87
					C112.21,226.91,111.54,227.32,111.76,227.78L111.76,227.78z"/>
			</g>
			<g>
				<path class="st11" d="M142.44,305.73c0.58-6.94,1.19-13.63,3.53-20.25c1.09-3.09,2.41-6.09,3.47-9.19
					c0.87-2.56,2.17-6.08,1.5-8.8c-0.07-0.3-0.52-0.29-0.6,0c-0.45,1.56-0.4,3.26-0.72,4.86c-0.31,1.55-0.73,3.08-1.22,4.59
					c-1.03,3.21-2.37,6.28-3.53,9.44c-2.25,6.1-3.4,12.86-2.91,19.36C141.99,306.04,142.42,306.04,142.44,305.73L142.44,305.73z"/>
			</g>
			<g>
				<path class="st11" d="M102.21,265.84c2.76,6.66,11.04,7.04,17.07,8.53c4.31,1.06,7.49,3.94,9.77,7.67
					c2.5,4.08,4.19,8.88,5.58,13.43c0.02,0.05,0.09,0.03,0.08-0.02c-1.69-7.98-4.11-17.59-12.33-21.3
					c-6.59-2.98-15.28-1.48-19.49-8.6C102.69,265.2,102.04,265.43,102.21,265.84L102.21,265.84z"/>
			</g>
			<g>
				<path class="st11" d="M138.08,304.68c0.33,0.44,0.63,0.9,0.97,1.34c0.17,0.21,0.34,0.42,0.55,0.59c0.22,0.18,0.47,0.4,0.77,0.39
					c0.12,0,0.21-0.14,0.14-0.25c-0.14-0.22-0.38-0.36-0.57-0.53c-0.2-0.17-0.4-0.35-0.59-0.53c-0.38-0.36-0.74-0.76-1.11-1.13
					C138.16,304.5,138.02,304.59,138.08,304.68L138.08,304.68z"/>
			</g>
			<g>
				<path class="st11" d="M120.85,325.8c4.75,3.9,9.14,8.52,12.62,13.58c1.67,2.42,3.2,4.98,4.6,7.56c1.52,2.82,2.52,5.8,3.72,8.76
					c0.09,0.23,0.5,0.23,0.47-0.06c-0.66-6.26-4.63-11.63-7.8-16.84c-1.65-2.71-3.7-4.89-5.91-7.14c-2.28-2.33-4.6-4.53-7.27-6.41
					C120.96,325.02,120.54,325.54,120.85,325.8L120.85,325.8z"/>
			</g>
			<g>
				<path class="st11" d="M158.7,318.43c-2.29,1.3-2.36,4.91-2.41,7.22c-0.09,4.44,1.01,8.6-0.94,12.83
					c-1.76,3.82-4.57,7.01-6.78,10.55c-2.07,3.32-4.11,7.56-4.06,11.56c0,0.23,0.36,0.36,0.46,0.13c0.83-1.81,1.13-3.87,1.73-5.78
					c0.67-2.14,1.61-4.08,2.82-5.96c2.13-3.29,4.74-6.29,6.46-9.83c1.82-3.73,1.55-7.43,1.43-11.48c-0.08-2.58-0.34-6.72,1.75-8.64
					C159.5,318.73,159.08,318.22,158.7,318.43L158.7,318.43z"/>
			</g>
		</g>
		<path class="st3" d="M143.4,361c-9.22-0.13-26.79-0.23-26.79-0.23l4.35,32.27c0.98,7.26,7.17,12.68,14.5,12.68h7.57h0.73h7.57
			c7.33,0,13.52-5.42,14.5-12.68l4.35-32.27C170.18,360.78,152.62,360.88,143.4,361z"/>
	</g>
	<g>
		<g>
			<g>
				<polygon class="st12" points="589.14,301.7 536.53,405.91 383.15,407.01 430.48,300.23 				"/>
			</g>
			<g>
				<path class="st13" d="M281.35,406.36l0.03-8.34h99.29l45.68-100.18h158.79l3.99,3.85H434.01l-47.47,104.58
					C386.54,406.28,281.35,406.09,281.35,406.36z"/>
			</g>
			<g>
				<path class="st13" d="M509.49,359.2c-1.73,5.2-11.14,9.21-21.01,8.97c-9.87-0.25-16.46-4.66-14.73-9.86
					c1.73-5.2,11.14-9.21,21.01-8.97C504.63,349.59,511.22,354.01,509.49,359.2z"/>
			</g>
		</g>
		<g>
			<path class="st3" d="M386.54,406.94c-0.09,0-0.19-0.02-0.28-0.06c-0.33-0.15-0.48-0.55-0.33-0.88l47.65-104.97h155.55
				c0.37,0,0.67,0.3,0.67,0.67c0,0.37-0.3,0.67-0.67,0.67h-154.7l-47.3,104.19C387.03,406.8,386.79,406.94,386.54,406.94z"/>
		</g>
	</g>
	<g>
		<g>
			<rect x="91.98" y="414.26" class="st14" width="182.46" height="40.45"/>
			<rect x="273.4" y="414.26" class="st15" width="328.28" height="40.45"/>
		</g>
		<polygon class="st16" points="274.44,414.26 273.4,414.26 91.98,414.26 91.98,421.69 273.4,421.69 274.44,421.69 601.68,421.69 
			601.68,414.26 		"/>
		<rect x="83.17" y="406.28" class="st17" width="199.25" height="9.91"/>
		<rect x="281.38" y="406.28" class="st18" width="328.28" height="9.91"/>
	</g>
	<g>
		<path class="st3" d="M230.16,194.02h-67.99c-3,0-5.43-2.43-5.43-5.43v-35.74c0-3,2.43-5.43,5.43-5.43h67.99
			c3,0,5.43,2.43,5.43,5.43v35.74C235.59,191.59,233.16,194.02,230.16,194.02z"/>
		<polygon class="st3" points="253.95,170.73 229.75,160.52 229.75,180.93 		"/>
		<g>
			<circle class="st2" cx="180.89" cy="170.73" r="4.46"/>
			<circle class="st2" cx="196.17" cy="170.73" r="4.46"/>
			<circle class="st2" cx="211.45" cy="170.73" r="4.46"/>
		</g>
	</g>
	<g>
		<path class="st1" d="M556.3,48.51h-148.7c-9.55,0-17.29,7.74-17.29,17.29v70.54c0,9.55,7.74,17.29,17.29,17.29h13.33
			c0.37,6.4-0.54,15.91-5.88,28.07c17.18-7.92,27.07-19.82,32.24-28.07H556.3c9.55,0,17.29-7.74,17.29-17.29V65.8
			C573.59,56.25,565.85,48.51,556.3,48.51z"/>
		<path class="st3" d="M492.86,82.13h-73.76c-2.03,0-3.67-1.64-3.67-3.67l0,0c0-2.03,1.64-3.67,3.67-3.67h73.76
			c2.03,0,3.67,1.64,3.67,3.67l0,0C496.53,80.49,494.89,82.13,492.86,82.13z"/>
		<path class="st19" d="M545.75,103.5H417.68c-1.24,0-2.25-1.01-2.25-2.25l0,0c0-1.24,1.01-2.25,2.25-2.25h128.06
			c1.24,0,2.25,1.01,2.25,2.25l0,0C547.99,102.5,546.99,103.5,545.75,103.5z"/>
		<path class="st19" d="M545.75,115.98H417.68c-1.24,0-2.25-1.01-2.25-2.25l0,0c0-1.24,1.01-2.25,2.25-2.25h128.06
			c1.24,0,2.25,1.01,2.25,2.25l0,0C547.99,114.97,546.99,115.98,545.75,115.98z"/>
		<path class="st19" d="M517.81,129.28H417.68c-1.24,0-2.25-1.01-2.25-2.25l0,0c0-1.24,1.01-2.25,2.25-2.25h100.13
			c1.24,0,2.25,1.01,2.25,2.25l0,0C520.06,128.28,519.05,129.28,517.81,129.28z"/>
		<path class="st3" d="M544.74,82.13h-35.18c-2.03,0-3.67-1.64-3.67-3.67l0,0c0-2.03,1.64-3.67,3.67-3.67h35.18
			c2.03,0,3.67,1.64,3.67,3.67l0,0C548.41,80.49,546.77,82.13,544.74,82.13z"/>
	</g>
	<g>
		<path class="st3" d="M456.72,244.36h-41.27c-1.1,0-2-0.9-2-2v-28.61c0-1.1,0.9-2,2-2h41.27c1.1,0,2,0.9,2,2v28.61
			C458.72,243.47,457.83,244.36,456.72,244.36z"/>
		<g>
			<g>
				<path class="st17" d="M436.36,232.93c-0.22,0-0.45-0.08-0.64-0.23l-21.74-17.96c-0.42-0.35-0.48-0.98-0.13-1.4
					c0.35-0.43,0.98-0.48,1.4-0.13l21.09,17.42l20.55-17.88c0.41-0.36,1.05-0.32,1.41,0.1c0.36,0.42,0.32,1.05-0.1,1.41
					l-21.19,18.44C436.83,232.85,436.6,232.93,436.36,232.93z"/>
			</g>
			<g>
				<path class="st17" d="M414.62,243.62c-0.25,0-0.49-0.09-0.69-0.27c-0.4-0.38-0.42-1.01-0.03-1.41l15.21-15.99
					c0.38-0.4,1.01-0.42,1.41-0.04c0.4,0.38,0.42,1.01,0.04,1.41l-15.21,15.99C415.15,243.51,414.89,243.62,414.62,243.62z"/>
			</g>
			<g>
				<path class="st17" d="M457.55,243.03c-0.26,0-0.51-0.1-0.71-0.29l-15.14-15.19c-0.39-0.39-0.39-1.02,0-1.41
					c0.39-0.39,1.02-0.39,1.41,0l15.14,15.19c0.39,0.39,0.39,1.02,0,1.41C458.06,242.94,457.81,243.03,457.55,243.03z"/>
			</g>
		</g>
		<g>
			<g>
				<circle class="st20" cx="460.8" cy="210.74" r="13.35"/>
			</g>
			<text transform="matrix(1 0 0 1 451.418 216.3745)" class="st3 st21 st22">85</text>
		</g>
	</g>
	<g>
		<g>
			<path class="st2" d="M596.18,205.83h-80.62c-2.21,0-4-1.79-4-4v-14.84c0-2.21,1.79-4,4-4h80.62c2.21,0,4,1.79,4,4v14.84
				C600.18,204.04,598.39,205.83,596.18,205.83z"/>
		</g>
		<g>
			<path class="st3" d="M522.51,200.4c-0.35,0-0.63-0.12-0.84-0.37c-0.21-0.25-0.31-0.56-0.28-0.94l0.34-2.96
				c0.02-0.08,0.01-0.12-0.04-0.15c-0.05-0.02-0.11-0.01-0.19,0.04l-2.43,1.76c-0.3,0.22-0.61,0.31-0.94,0.24
				c-0.32-0.06-0.59-0.26-0.79-0.58c-0.22-0.4-0.27-0.75-0.13-1.05s0.37-0.51,0.69-0.64l2.73-1.24c0.08-0.02,0.11-0.06,0.11-0.11
				c0-0.05-0.04-0.09-0.11-0.11l-2.73-1.24c-0.35-0.15-0.57-0.39-0.67-0.71c-0.1-0.32-0.06-0.65,0.11-0.97
				c0.2-0.32,0.46-0.52,0.79-0.58c0.32-0.06,0.64,0.01,0.94,0.21l2.43,1.8c0.08,0.05,0.14,0.06,0.19,0.04
				c0.05-0.02,0.06-0.07,0.04-0.15l-0.34-2.96c-0.03-0.37,0.07-0.69,0.3-0.94c0.22-0.25,0.52-0.37,0.9-0.37
				c0.35,0,0.64,0.13,0.86,0.37c0.23,0.25,0.31,0.56,0.26,0.94l-0.34,2.96c-0.03,0.08-0.01,0.13,0.04,0.15
				c0.05,0.02,0.11,0.01,0.19-0.04l2.43-1.76c0.3-0.22,0.62-0.31,0.95-0.24c0.34,0.06,0.59,0.26,0.77,0.58
				c0.22,0.4,0.27,0.75,0.13,1.05c-0.14,0.3-0.37,0.51-0.69,0.64l-2.73,1.24c-0.08,0.03-0.11,0.06-0.11,0.11
				c0,0.05,0.04,0.09,0.11,0.11l2.73,1.24c0.35,0.15,0.58,0.39,0.69,0.71c0.11,0.32,0.07,0.65-0.13,0.97
				c-0.18,0.32-0.43,0.52-0.77,0.58c-0.34,0.06-0.66-0.01-0.95-0.21l-2.43-1.8c-0.08-0.05-0.14-0.06-0.19-0.04
				c-0.05,0.03-0.06,0.08-0.04,0.15l0.34,2.96c0.05,0.37-0.04,0.69-0.28,0.94C523.19,200.27,522.88,200.4,522.51,200.4z"/>
		</g>
		<g>
			<path class="st3" d="M538.64,200.4c-0.35,0-0.63-0.12-0.84-0.37c-0.21-0.25-0.31-0.56-0.28-0.94l0.34-2.96
				c0.02-0.08,0.01-0.12-0.04-0.15c-0.05-0.02-0.11-0.01-0.19,0.04l-2.43,1.76c-0.3,0.22-0.61,0.31-0.94,0.24
				c-0.32-0.06-0.59-0.26-0.79-0.58c-0.22-0.4-0.27-0.75-0.13-1.05s0.37-0.51,0.69-0.64l2.73-1.24c0.07-0.02,0.11-0.06,0.11-0.11
				c0-0.05-0.04-0.09-0.11-0.11l-2.73-1.24c-0.35-0.15-0.57-0.39-0.67-0.71c-0.1-0.32-0.06-0.65,0.11-0.97
				c0.2-0.32,0.46-0.52,0.79-0.58c0.32-0.06,0.64,0.01,0.94,0.21l2.43,1.8c0.08,0.05,0.14,0.06,0.19,0.04
				c0.05-0.02,0.06-0.07,0.04-0.15l-0.34-2.96c-0.03-0.37,0.08-0.69,0.3-0.94c0.23-0.25,0.52-0.37,0.9-0.37
				c0.35,0,0.64,0.13,0.86,0.37c0.22,0.25,0.31,0.56,0.26,0.94l-0.34,2.96c-0.03,0.08-0.01,0.13,0.04,0.15
				c0.05,0.02,0.11,0.01,0.19-0.04l2.43-1.76c0.3-0.22,0.62-0.31,0.95-0.24c0.34,0.06,0.59,0.26,0.77,0.58
				c0.22,0.4,0.27,0.75,0.13,1.05c-0.14,0.3-0.37,0.51-0.69,0.64l-2.73,1.24c-0.08,0.03-0.11,0.06-0.11,0.11
				c0,0.05,0.04,0.09,0.11,0.11l2.73,1.24c0.35,0.15,0.58,0.39,0.69,0.71c0.11,0.32,0.07,0.65-0.13,0.97
				c-0.18,0.32-0.43,0.52-0.77,0.58c-0.34,0.06-0.66-0.01-0.95-0.21l-2.43-1.8c-0.07-0.05-0.14-0.06-0.19-0.04
				c-0.05,0.03-0.06,0.08-0.04,0.15l0.34,2.96c0.05,0.37-0.04,0.69-0.28,0.94C539.32,200.27,539.01,200.4,538.64,200.4z"/>
		</g>
		<g>
			<path class="st3" d="M554.77,200.4c-0.35,0-0.63-0.12-0.84-0.37c-0.21-0.25-0.31-0.56-0.28-0.94l0.34-2.96
				c0.02-0.08,0.01-0.12-0.04-0.15c-0.05-0.02-0.11-0.01-0.19,0.04l-2.43,1.76c-0.3,0.22-0.61,0.31-0.94,0.24
				c-0.32-0.06-0.59-0.26-0.79-0.58c-0.22-0.4-0.27-0.75-0.13-1.05c0.14-0.3,0.37-0.51,0.69-0.64l2.73-1.24
				c0.08-0.02,0.11-0.06,0.11-0.11c0-0.05-0.04-0.09-0.11-0.11l-2.73-1.24c-0.35-0.15-0.57-0.39-0.67-0.71
				c-0.1-0.32-0.06-0.65,0.11-0.97c0.2-0.32,0.46-0.52,0.79-0.58c0.32-0.06,0.64,0.01,0.94,0.21l2.43,1.8
				c0.08,0.05,0.14,0.06,0.19,0.04c0.05-0.02,0.06-0.07,0.04-0.15l-0.34-2.96c-0.03-0.37,0.08-0.69,0.3-0.94
				c0.22-0.25,0.52-0.37,0.9-0.37c0.35,0,0.64,0.13,0.86,0.37c0.23,0.25,0.31,0.56,0.26,0.94l-0.34,2.96
				c-0.03,0.08-0.01,0.13,0.04,0.15c0.05,0.02,0.11,0.01,0.19-0.04l2.43-1.76c0.3-0.22,0.62-0.31,0.95-0.24
				c0.34,0.06,0.59,0.26,0.77,0.58c0.22,0.4,0.27,0.75,0.13,1.05c-0.14,0.3-0.37,0.51-0.69,0.64l-2.73,1.24
				c-0.08,0.03-0.11,0.06-0.11,0.11c0,0.05,0.04,0.09,0.11,0.11l2.73,1.24c0.35,0.15,0.58,0.39,0.69,0.71
				c0.11,0.32,0.07,0.65-0.13,0.97c-0.18,0.32-0.43,0.52-0.77,0.58c-0.34,0.06-0.66-0.01-0.95-0.21l-2.43-1.8
				c-0.08-0.05-0.14-0.06-0.19-0.04c-0.05,0.03-0.06,0.08-0.04,0.15l0.34,2.96c0.05,0.37-0.04,0.69-0.28,0.94
				C555.45,200.27,555.14,200.4,554.77,200.4z"/>
		</g>
		<g>
			<path class="st3" d="M570.89,200.4c-0.35,0-0.63-0.12-0.84-0.37c-0.21-0.25-0.31-0.56-0.28-0.94l0.34-2.96
				c0.02-0.08,0.01-0.12-0.04-0.15c-0.05-0.02-0.11-0.01-0.19,0.04l-2.43,1.76c-0.3,0.22-0.61,0.31-0.94,0.24
				c-0.32-0.06-0.59-0.26-0.79-0.58c-0.22-0.4-0.27-0.75-0.13-1.05c0.14-0.3,0.37-0.51,0.69-0.64l2.73-1.24
				c0.07-0.02,0.11-0.06,0.11-0.11c0-0.05-0.04-0.09-0.11-0.11l-2.73-1.24c-0.35-0.15-0.57-0.39-0.67-0.71
				c-0.1-0.32-0.06-0.65,0.11-0.97c0.2-0.32,0.46-0.52,0.79-0.58c0.32-0.06,0.64,0.01,0.94,0.21l2.43,1.8
				c0.08,0.05,0.14,0.06,0.19,0.04c0.05-0.02,0.06-0.07,0.04-0.15l-0.34-2.96c-0.03-0.37,0.08-0.69,0.3-0.94
				c0.23-0.25,0.52-0.37,0.9-0.37c0.35,0,0.64,0.13,0.86,0.37c0.22,0.25,0.31,0.56,0.26,0.94l-0.34,2.96
				c-0.03,0.08-0.01,0.13,0.04,0.15c0.05,0.02,0.11,0.01,0.19-0.04l2.43-1.76c0.3-0.22,0.62-0.31,0.95-0.24
				c0.34,0.06,0.59,0.26,0.77,0.58c0.22,0.4,0.27,0.75,0.13,1.05c-0.14,0.3-0.37,0.51-0.69,0.64l-2.73,1.24
				c-0.08,0.03-0.11,0.06-0.11,0.11c0,0.05,0.04,0.09,0.11,0.11l2.73,1.24c0.35,0.15,0.58,0.39,0.69,0.71
				c0.11,0.32,0.07,0.65-0.13,0.97c-0.18,0.32-0.43,0.52-0.77,0.58c-0.34,0.06-0.66-0.01-0.95-0.21l-2.43-1.8
				c-0.07-0.05-0.14-0.06-0.19-0.04c-0.05,0.03-0.06,0.08-0.04,0.15l0.34,2.96c0.05,0.37-0.04,0.69-0.28,0.94
				C571.57,200.27,571.27,200.4,570.89,200.4z"/>
		</g>
		<g>
			<path class="st23" d="M587.02,200.4c-0.35,0-0.63-0.12-0.84-0.37c-0.21-0.25-0.31-0.56-0.28-0.94l0.34-2.96
				c0.02-0.08,0.01-0.12-0.04-0.15c-0.05-0.02-0.11-0.01-0.19,0.04l-2.43,1.76c-0.3,0.22-0.61,0.31-0.94,0.24
				c-0.32-0.06-0.59-0.26-0.79-0.58c-0.23-0.4-0.27-0.75-0.13-1.05c0.14-0.3,0.37-0.51,0.69-0.64l2.73-1.24
				c0.08-0.02,0.11-0.06,0.11-0.11c0-0.05-0.04-0.09-0.11-0.11l-2.73-1.24c-0.35-0.15-0.57-0.39-0.67-0.71
				c-0.1-0.32-0.06-0.65,0.11-0.97c0.2-0.32,0.46-0.52,0.79-0.58c0.32-0.06,0.64,0.01,0.94,0.21l2.43,1.8
				c0.07,0.05,0.14,0.06,0.19,0.04c0.05-0.02,0.06-0.07,0.04-0.15l-0.34-2.96c-0.03-0.37,0.08-0.69,0.3-0.94
				c0.22-0.25,0.52-0.37,0.9-0.37c0.35,0,0.64,0.13,0.86,0.37c0.23,0.25,0.31,0.56,0.26,0.94l-0.34,2.96
				c-0.03,0.08-0.01,0.13,0.04,0.15c0.05,0.02,0.11,0.01,0.19-0.04l2.43-1.76c0.3-0.22,0.62-0.31,0.95-0.24
				c0.34,0.06,0.59,0.26,0.77,0.58c0.22,0.4,0.27,0.75,0.13,1.05c-0.14,0.3-0.37,0.51-0.69,0.64l-2.73,1.24
				c-0.07,0.03-0.11,0.06-0.11,0.11c0,0.05,0.04,0.09,0.11,0.11l2.73,1.24c0.35,0.15,0.58,0.39,0.69,0.71
				c0.11,0.32,0.07,0.65-0.13,0.97c-0.18,0.32-0.43,0.52-0.77,0.58c-0.34,0.06-0.66-0.01-0.95-0.21l-2.43-1.8
				c-0.08-0.05-0.14-0.06-0.19-0.04c-0.05,0.03-0.06,0.08-0.04,0.15l0.34,2.96c0.05,0.37-0.04,0.69-0.28,0.94
				C587.7,200.27,587.4,200.4,587.02,200.4z"/>
		</g>
	</g>
</g>
</svg>
