<?xml version="1.0" encoding="utf-8"?>
<!-- Generator: Adobe Illustrator 26.0.1, SVG Export Plug-In . SVG Version: 6.00 Build 0)  -->
<svg version="1.1" id="Layer_1" xmlns="http://www.w3.org/2000/svg" xmlns:xlink="http://www.w3.org/1999/xlink" x="0px" y="0px"
	 width="56.4px" height="56.4px" viewBox="0 0 56.4 56.4" style="enable-background:new 0 0 56.4 56.4;" xml:space="preserve">
<style type="text/css">
	.st0{fill:#7D7D7D;}
</style>
<g>
	<path class="st0" d="M37.09,2.33c0.26,0.23,0.54,0.46,0.78,0.7c3.78,3.77,7.55,7.55,11.33,11.31c0.39,0.39,0.55,0.79,0.55,1.34
		c-0.01,10.64-0.01,21.28-0.01,31.92c0,1.05-0.25,1.29-1.32,1.29c-1.26,0-2.52,0-3.85,0c0,0.21,0,0.39,0,0.57
		c0,1.2,0.01,2.39,0,3.59c-0.01,0.67-0.33,0.99-0.99,1.01c-0.12,0-0.24,0-0.35,0c-11.75,0-23.51,0-35.26,0
		c-1.1,0-1.32-0.22-1.32-1.33c0-15.2,0-30.41,0-45.61c0-1.12,0.23-1.35,1.37-1.35c1.24,0,2.49,0,3.81,0c0-0.76,0.02-1.5-0.01-2.23
		c-0.02-0.54,0.13-0.96,0.62-1.21C20.65,2.33,28.87,2.33,37.09,2.33z M35.97,4.09c-7.5,0-14.95,0-22.39,0c0,14.37,0,28.71,0,43.05
		c11.49,0,22.95,0,34.41,0c0-10.35,0-20.66,0-31.01c-0.24,0-0.44,0-0.64,0c-3.38,0-6.77,0-10.15,0c-0.97,0-1.23-0.26-1.23-1.23
		c0-3.4,0-6.8,0-10.2C35.97,4.5,35.97,4.3,35.97,4.09z M8.41,7.53c0,14.95,0,29.87,0,44.78c11.5,0,22.96,0,34.41,0
		c0-1.15,0-2.25,0-3.4c-0.24,0-0.46,0-0.67,0c-9.65,0-19.3,0-28.95,0c-1.17,0-1.38-0.22-1.38-1.38c0-13.12,0-26.24,0-39.35
		c0-0.21,0-0.42,0-0.64C10.64,7.53,9.53,7.53,8.41,7.53z M46.63,14.38c-2.99-2.99-5.96-5.95-8.91-8.89c0,2.92,0,5.9,0,8.89
		C40.72,14.38,43.68,14.38,46.63,14.38z"/>
	<path class="st0" d="M33.36,41.13c-3.32,0-6.63,0-9.95,0c-0.2,0-0.41,0-0.6-0.05c-0.41-0.1-0.63-0.41-0.63-0.81
		c0-0.43,0.24-0.73,0.68-0.83c0.18-0.04,0.37-0.03,0.55-0.03c6.65,0,13.3,0,19.95,0c0.17,0,0.34-0.01,0.5,0.02
		c0.43,0.1,0.68,0.37,0.7,0.81c0.01,0.44-0.23,0.73-0.65,0.84c-0.19,0.05-0.4,0.04-0.6,0.04C39.99,41.13,36.67,41.13,33.36,41.13z"
		/>
	<path class="st0" d="M33.4,29.06c3.27,0,6.53,0,9.8,0c0.18,0,0.37,0,0.55,0.02c0.49,0.06,0.8,0.37,0.81,0.81
		c0.02,0.45-0.3,0.8-0.8,0.88c-0.15,0.02-0.3,0.02-0.45,0.02c-6.63,0-13.27,0-19.9,0c-0.03,0-0.07,0-0.1,0
		c-0.73-0.01-1.14-0.32-1.14-0.86c-0.01-0.54,0.4-0.86,1.13-0.87C26.67,29.06,30.03,29.06,33.4,29.06z"/>
	<path class="st0" d="M33.36,34.24c3.32,0,6.63,0,9.95,0c0.84,0,1.24,0.26,1.25,0.84c0.01,0.59-0.41,0.89-1.26,0.89
		c-6.62,0-13.24,0-19.85,0c-0.2,0-0.41,0-0.6-0.05c-0.44-0.1-0.72-0.46-0.67-0.87c0.06-0.45,0.31-0.74,0.78-0.79
		c0.18-0.02,0.37-0.01,0.56-0.01C26.8,34.24,30.08,34.24,33.36,34.24z"/>
	<path class="st0" d="M33.35,20.43c-3.28,0-6.57,0-9.85,0c-0.19,0-0.37,0.01-0.55-0.01c-0.44-0.05-0.76-0.38-0.77-0.8
		c0-0.43,0.2-0.74,0.64-0.85c0.18-0.04,0.37-0.05,0.55-0.05c6.67,0,13.34,0,20,0c0.18,0,0.37,0.01,0.55,0.05
		c0.44,0.11,0.7,0.48,0.64,0.9c-0.06,0.44-0.32,0.7-0.76,0.75c-0.18,0.02-0.37,0.01-0.55,0.01C39.95,20.43,36.65,20.43,33.35,20.43z
		"/>
	<path class="st0" d="M33.4,25.61c-3.32,0-6.63,0-9.95,0c-0.87,0-1.29-0.29-1.28-0.86c0.01-0.58,0.43-0.86,1.3-0.86
		c6.6,0,13.2,0,19.8,0c0.23,0,0.48,0.01,0.7,0.07c0.4,0.11,0.61,0.41,0.6,0.83c-0.02,0.42-0.25,0.7-0.66,0.78
		c-0.21,0.04-0.44,0.04-0.65,0.04C39.97,25.61,36.68,25.61,33.4,25.61z"/>
	<path class="st0" d="M20.41,16.99c-0.81,0-1.61,0.01-2.42,0c-0.66-0.01-1-0.33-1.01-0.99c-0.01-1.63-0.01-3.26,0-4.89
		c0-0.67,0.33-0.99,1-0.99c1.63-0.01,3.26-0.01,4.89,0c0.68,0,0.99,0.31,1,0.99c0.01,1.63,0.01,3.26,0,4.89c0,0.7-0.33,0.99-1.04,1
		C22.03,16.99,21.22,16.99,20.41,16.99z M18.72,15.22c1.13,0,2.26,0,3.4,0c0-1.13,0-2.24,0-3.36c-1.15,0-2.27,0-3.4,0
		C18.72,12.99,18.72,14.08,18.72,15.22z"/>
	<path class="st0" d="M18.7,20.42c-0.3,0-0.61,0.02-0.91,0c-0.47-0.04-0.73-0.33-0.79-0.78c-0.06-0.4,0.23-0.83,0.67-0.87
		c0.68-0.06,1.38-0.06,2.06-0.01c0.47,0.04,0.74,0.46,0.68,0.9c-0.06,0.46-0.34,0.72-0.8,0.76C19.31,20.44,19,20.42,18.7,20.42
		C18.7,20.42,18.7,20.42,18.7,20.42z"/>
	<path class="st0" d="M18.73,34.25c0.3,0,0.61-0.02,0.91,0c0.45,0.04,0.76,0.36,0.78,0.78c0.02,0.47-0.21,0.82-0.67,0.86
		c-0.68,0.06-1.38,0.06-2.06,0c-0.44-0.03-0.72-0.46-0.69-0.86c0.03-0.44,0.35-0.76,0.83-0.8C18.12,34.23,18.43,34.25,18.73,34.25
		C18.73,34.25,18.73,34.25,18.73,34.25z"/>
	<path class="st0" d="M18.71,41.13c-0.29,0-0.57,0.02-0.86,0c-0.51-0.04-0.88-0.42-0.86-0.88c0.01-0.45,0.36-0.81,0.86-0.83
		c0.57-0.02,1.14-0.02,1.72,0c0.51,0.02,0.84,0.36,0.85,0.82c0.02,0.48-0.33,0.84-0.85,0.88C19.29,41.15,19,41.13,18.71,41.13z"/>
	<path class="st0" d="M18.68,25.58c-0.32,0-0.64,0.03-0.96-0.01c-0.45-0.05-0.7-0.35-0.72-0.78c-0.03-0.42,0.19-0.81,0.63-0.84
		c0.71-0.06,1.44-0.06,2.16,0c0.44,0.04,0.65,0.41,0.62,0.84c-0.03,0.44-0.28,0.73-0.72,0.77C19.36,25.61,19.02,25.58,18.68,25.58z"
		/>
	<path class="st0" d="M18.73,29.05c0.32,0.02,0.66,0.01,0.99,0.06c0.44,0.07,0.68,0.36,0.69,0.8c0.01,0.44-0.22,0.79-0.66,0.82
		c-0.7,0.05-1.41,0.05-2.11,0c-0.45-0.04-0.66-0.41-0.64-0.83c0.02-0.42,0.26-0.73,0.71-0.79C18.04,29.06,18.38,29.07,18.73,29.05z"
		/>
</g>
</svg>
