<?xml version="1.0" encoding="utf-8"?>
<!-- Generator: Adobe Illustrator 26.0.1, SVG Export Plug-In . SVG Version: 6.00 Build 0)  -->
<svg version="1.1" id="Layer_1" xmlns="http://www.w3.org/2000/svg" xmlns:xlink="http://www.w3.org/1999/xlink" x="0px" y="0px"
	 width="23.82px" height="21.23px" viewBox="0 0 23.82 21.23" style="enable-background:new 0 0 23.82 21.23;" xml:space="preserve"
	>
<style type="text/css">
	.st0{fill:#777777;}
</style>
<g>
	<path class="st0" d="M10.53,20.15C10.09,20.1,9.66,20.06,9.23,20c-0.47-0.07-0.94-0.18-1.35-0.46c-0.1-0.07-0.2-0.17-0.27-0.28
		c-0.18-0.29-0.11-0.57,0.18-0.75c0.4-0.25,0.86-0.35,1.32-0.44c0.48-0.09,0.96-0.16,1.43-0.23c0.05-0.01,0.1-0.02,0.16-0.03
		c0-0.07,0-0.14,0-0.2c0-1.28,0-2.56,0-3.84c0-0.15-0.05-0.25-0.15-0.35c-1.96-1.95-3.92-3.9-5.87-5.86C4.64,7.5,4.6,7.45,4.55,7.41
		c-0.35-0.34-0.2-0.6,0.11-0.8C5.1,6.33,5.6,6.23,6.11,6.15c0.44-0.07,0.88-0.12,1.36-0.18C7.12,5.49,6.78,5.02,6.44,4.54
		C6.38,4.58,6.32,4.61,6.27,4.65C5.34,5.27,4.41,5.89,3.48,6.5C3.4,6.55,3.32,6.61,3.23,6.63C2.9,6.7,2.68,6.4,2.8,6.05
		c0.33-0.99,0.66-1.99,0.99-2.98c0.18-0.55,0.36-1.09,0.55-1.64c0.09-0.27,0.21-0.35,0.5-0.35c1.8,0,3.59,0,5.39,0
		c0.18,0,0.33,0.04,0.43,0.2c0.12,0.21,0.05,0.41-0.2,0.58c-1.05,0.7-2.1,1.4-3.15,2.1C7.24,4,7.18,4.04,7.11,4.09
		c0.03,0.05,0.06,0.1,0.09,0.14c0.37,0.52,0.74,1.03,1.1,1.55c0.08,0.11,0.15,0.13,0.28,0.13c1.35-0.03,2.7-0.05,4.05-0.06
		c0.24,0,0.38,0.09,0.44,0.27c0.08,0.22-0.06,0.47-0.29,0.51c-0.08,0.01-0.16,0.01-0.24,0.01c-1.06,0.01-2.11,0.02-3.17,0.03
		c-0.12,0-0.24,0.01-0.4,0.02c0.18,0.24,0.33,0.46,0.49,0.67C9.47,7.4,9.55,7.41,9.6,7.41c1.84,0.05,3.68,0.02,5.52-0.16
		c0.55-0.05,1.09-0.16,1.64-0.26c0.15-0.03,0.29-0.12,0.42-0.21c0.2-0.15,0.43-0.17,0.57-0.02c0.17,0.17,0.17,0.37-0.01,0.58
		c-0.06,0.07-0.12,0.13-0.18,0.19c-1.97,1.96-3.93,3.92-5.9,5.88c-0.12,0.12-0.16,0.23-0.16,0.39c0.01,1.27,0.01,2.53,0,3.8
		c0,0.17,0.04,0.23,0.22,0.25c0.7,0.12,1.4,0.25,2.1,0.4c0.2,0.04,0.4,0.14,0.58,0.25c0.35,0.21,0.39,0.58,0.12,0.88
		c-0.23,0.26-0.54,0.4-0.87,0.47c-0.58,0.11-1.16,0.19-1.74,0.27c-0.07,0.01-0.15,0.02-0.22,0.03
		C11.3,20.15,10.91,20.15,10.53,20.15z M5.74,6.99c0,0.04,0,0.07,0,0.11c0.89,0.1,1.78,0.19,2.67,0.29c0-0.02,0.01-0.04,0.01-0.06
		C8.37,7.25,8.31,7.18,8.27,7.1C8.13,6.81,7.93,6.72,7.6,6.77C6.99,6.87,6.36,6.92,5.74,6.99z"/>
	<path class="st0" d="M13.9,6.63c0.14-0.91,0.55-1.65,1.22-2.24c1.33-1.17,3.14-1.23,4.56-0.16c1.71,1.29,1.85,3.93,0.28,5.39
		c-0.89,0.83-1.94,1.15-3.14,0.94c-0.3-0.05-0.41-0.23-0.37-0.53c0.03-0.22,0.12-0.4,0.29-0.56c0.54-0.52,1.06-1.04,1.58-1.58
		c0.33-0.34,0.44-0.76,0.29-1.22c-0.15-0.45-0.48-0.71-0.95-0.79c-0.33-0.06-0.61,0.06-0.86,0.27c-0.07,0.06-0.15,0.12-0.24,0.13
		C15.71,6.39,14.85,6.51,14,6.63C13.98,6.63,13.95,6.63,13.9,6.63z"/>
</g>
</svg>
