<?xml version="1.0" encoding="utf-8"?>
<!-- Generator: Adobe Illustrator 26.3.1, SVG Export Plug-In . SVG Version: 6.00 Build 0)  -->
<svg version="1.1" id="Layer_1" xmlns="http://www.w3.org/2000/svg" xmlns:xlink="http://www.w3.org/1999/xlink" x="0px" y="0px"
	 width="24.6px" height="24.6px" viewBox="0 0 24.6 24.6" style="enable-background:new 0 0 24.6 24.6;" xml:space="preserve">
<style type="text/css">
	.st0{fill:#EFEFEF;}
</style>
<circle class="st0" cx="12.6" cy="12.3" r="12.2"/>
<g>
	<path d="M19.24,10.74c-0.03,0.07-0.06,0.13-0.09,0.2c-0.12,0.21-0.31,0.32-0.56,0.32c-0.28,0-0.56,0-0.84,0c-0.05,0-0.09,0-0.15,0
		c0,0.07,0,0.12,0,0.18c0,1.74,0,3.49,0,5.23c0,0.06,0,0.13-0.02,0.19c-0.02,0.11-0.12,0.18-0.24,0.18c-0.11,0-0.21-0.08-0.23-0.19
		c-0.01-0.06-0.01-0.11-0.01-0.17c0-1.75,0-3.5,0-5.25c0-0.05,0-0.1,0-0.18c-0.08,0-0.16,0-0.23,0c-0.24,0-0.48,0-0.71,0
		c-0.42,0-0.69-0.26-0.7-0.67c-0.01-0.81-0.01-1.62,0-2.44c0-0.4,0.27-0.66,0.67-0.67c0.81-0.01,1.62-0.01,2.42,0
		c0.36,0,0.57,0.2,0.68,0.53C19.24,8.93,19.24,9.84,19.24,10.74z M16.46,9.38c0,0.28,0,0.55,0,0.83c0,0.33,0.01,0.34,0.34,0.33
		c0.12,0,0.17-0.06,0.17-0.18c0-0.15,0-0.29,0-0.44c0-0.17,0.01-0.18,0.18-0.19c0.15,0,0.29,0,0.44-0.02
		c0.43-0.06,0.63-0.29,0.65-0.71c0.02-0.42-0.19-0.7-0.6-0.74c-0.35-0.04-0.7-0.02-1.05-0.03c-0.1,0-0.13,0.07-0.13,0.16
		C16.46,8.72,16.46,9.05,16.46,9.38z"/>
	<path d="M15.23,12.69c0.06,0.22,0.15,0.46,0.2,0.71c0.05,0.26,0.09,0.52,0.09,0.78c0.01,0.77,0,1.55,0,2.32
		c0,0.41-0.2,0.61-0.61,0.61c-0.18,0-0.36,0-0.54,0c-0.36-0.01-0.57-0.22-0.57-0.58c0-0.18,0-0.36,0-0.55c-1.95,0-3.9,0-5.86,0
		c0,0.18,0,0.36,0,0.54c0,0.39-0.2,0.59-0.59,0.59c-0.19,0-0.39,0.01-0.58,0c-0.33-0.01-0.54-0.21-0.54-0.53c0-0.85,0-1.69,0-2.54
		c0-0.44,0.11-0.86,0.27-1.27c0.01-0.03,0.02-0.06,0.04-0.1c-0.04-0.01-0.08-0.02-0.12-0.02c-0.25-0.04-0.43-0.24-0.45-0.49
		c0-0.1,0-0.21,0-0.31c0.01-0.3,0.23-0.47,0.53-0.41c0.16,0.04,0.32,0.09,0.5,0.13c0.09-0.22,0.18-0.44,0.27-0.65
		c0.08-0.18,0.15-0.37,0.23-0.55c0.2-0.44,0.54-0.69,1.02-0.69c1.58-0.01,3.15-0.01,4.73,0c0.49,0,0.83,0.25,1.03,0.7
		c0.15,0.35,0.29,0.71,0.44,1.06c0.02,0.04,0.03,0.08,0.05,0.13c0.16-0.04,0.32-0.09,0.48-0.12c0.09-0.02,0.19-0.02,0.28,0
		c0.07,0.02,0.14,0.07,0.18,0.13c0.16,0.21,0.12,0.77-0.08,0.93C15.51,12.59,15.36,12.63,15.23,12.69z M10.88,12.76
		c1.06,0,2.12,0,3.17,0c0.32,0,0.42-0.15,0.3-0.45c-0.24-0.59-0.49-1.19-0.73-1.78c-0.12-0.28-0.33-0.43-0.63-0.43
		c-1.41,0-2.82,0-4.24,0c-0.29,0-0.51,0.15-0.62,0.41c-0.26,0.61-0.5,1.22-0.75,1.83c-0.11,0.26-0.01,0.41,0.27,0.42
		c0.04,0,0.08,0,0.12,0C8.81,12.76,9.84,12.76,10.88,12.76z M13.57,14.97c0.23,0,0.47,0,0.7,0c0.18,0,0.25-0.08,0.25-0.25
		c0-0.2,0-0.41,0-0.61c0-0.18-0.07-0.26-0.25-0.26c-0.47,0-0.93,0-1.4,0c-0.17,0-0.24,0.08-0.24,0.25c0,0.21,0,0.41,0,0.62
		c0,0.18,0.08,0.25,0.26,0.25C13.11,14.97,13.34,14.97,13.57,14.97z M8.15,14.97c0.24,0,0.47,0,0.71,0c0.16,0,0.24-0.08,0.24-0.24
		c0-0.21,0-0.42,0-0.63c0-0.17-0.08-0.25-0.25-0.25c-0.47,0-0.94,0-1.41,0c-0.16,0-0.24,0.08-0.24,0.24c0,0.21,0,0.42,0,0.63
		c0,0.18,0.07,0.25,0.26,0.25C7.69,14.97,7.92,14.97,8.15,14.97z"/>
	<path d="M16.97,8.97c0-0.34,0-0.34,0.35-0.32c0.04,0,0.09,0.01,0.13,0.02c0.23,0.03,0.33,0.16,0.29,0.39
		c-0.02,0.11-0.08,0.19-0.2,0.21c-0.14,0.02-0.28,0.02-0.42,0.03c-0.1,0.01-0.14-0.04-0.14-0.14C16.97,9.1,16.97,9.03,16.97,8.97z"
		/>
</g>
</svg>
