<?xml version="1.0" encoding="utf-8"?>
<!-- Generator: Adobe Illustrator 26.3.1, SVG Export Plug-In . SVG Version: 6.00 Build 0)  -->
<svg version="1.1" id="Layer_1" xmlns="http://www.w3.org/2000/svg" xmlns:xlink="http://www.w3.org/1999/xlink" x="0px" y="0px"
	 width="24.6px" height="24.6px" viewBox="0 0 24.6 24.6" style="enable-background:new 0 0 24.6 24.6;" xml:space="preserve">
<style type="text/css">
	.st0{fill:#EFEFEF;}
</style>
<circle class="st0" cx="12.3" cy="12.3" r="12.2"/>
<g>
	<path d="M15.43,16.19c-0.12,1.17-0.71,1.95-1.67,2.22c-0.24,0.07-0.5,0.1-0.75,0.11c-1.51,0.01-3.01,0.01-4.52,0
		c-1.19-0.01-2.11-0.73-2.36-1.86c-0.04-0.2-0.06-0.4-0.06-0.6c0-1.48,0-2.95,0-4.43c0-0.6,0.3-0.9,0.89-0.9c2.88,0,5.76,0,8.63,0
		c1.18,0,2.11,0.47,2.65,1.56c0.87,1.77-0.41,3.86-2.38,3.9C15.73,16.2,15.59,16.19,15.43,16.19z M15.42,14.6
		c0.65,0.09,1.13-0.11,1.39-0.57c0.23-0.41,0.2-0.91-0.09-1.29c-0.29-0.38-0.82-0.55-1.31-0.42C15.42,13.08,15.42,13.83,15.42,14.6z
		"/>
	<path d="M9.76,9.95c-0.45,0-0.51-0.04-0.61-0.48c-0.1-0.4-0.32-0.72-0.59-1.02C8.06,7.93,7.77,7.3,7.67,6.58
		c-0.04-0.33,0.1-0.5,0.43-0.51c0.1,0,0.21,0,0.31,0C8.67,6.08,8.8,6.19,8.84,6.44C8.93,6.96,9.17,7.4,9.54,7.77
		c0.4,0.42,0.64,0.91,0.78,1.47C10.45,9.78,10.25,10,9.76,9.95z"/>
	<path d="M12.47,9.95c-0.44,0-0.5-0.05-0.61-0.48c-0.08-0.34-0.25-0.64-0.49-0.89c-0.54-0.56-0.87-1.23-0.97-2
		c-0.04-0.3,0.11-0.49,0.42-0.5c0.1,0,0.19,0,0.29,0c0.29,0.01,0.4,0.1,0.46,0.39c0.09,0.5,0.32,0.93,0.67,1.29
		c0.41,0.42,0.67,0.93,0.8,1.51C13.15,9.81,13.04,9.95,12.47,9.95z"/>
</g>
</svg>
