<?xml version="1.0" encoding="utf-8"?>
<!-- Generator: Adobe Illustrator 26.3.1, SVG Export Plug-In . SVG Version: 6.00 Build 0)  -->
<svg version="1.1" id="Layer_1" xmlns="http://www.w3.org/2000/svg" xmlns:xlink="http://www.w3.org/1999/xlink" x="0px" y="0px"
	 width="24.6px" height="24.6px" viewBox="0 0 24.6 24.6" style="enable-background:new 0 0 24.6 24.6;" xml:space="preserve">
<style type="text/css">
	.st0{fill:#EFEFEF;}
</style>
<circle class="st0" cx="12.6" cy="12.3" r="12.2"/>
<g>
	<path d="M19.93,10.41c-0.08,0.13-0.13,0.28-0.23,0.39c-0.3,0.32-0.76,0.32-1.12,0c-0.28-0.25-0.55-0.5-0.84-0.73
		c-1.12-0.87-2.39-1.42-3.8-1.63c-2.47-0.37-4.7,0.22-6.67,1.77c-0.25,0.2-0.47,0.43-0.72,0.64c-0.47,0.39-1.16,0.15-1.28-0.46
		C5.23,10.1,5.33,9.86,5.53,9.66c1.41-1.38,3.06-2.3,5-2.68c3.1-0.61,5.91,0.06,8.39,2.02c0.27,0.21,0.52,0.44,0.75,0.68
		c0.11,0.11,0.17,0.28,0.26,0.42C19.93,10.2,19.93,10.31,19.93,10.41z"/>
	<path d="M12.75,9.8c1.75,0.03,3.39,0.69,4.76,2.01c0.32,0.31,0.36,0.75,0.1,1.07c-0.25,0.32-0.68,0.4-1.03,0.19
		c-0.09-0.05-0.17-0.13-0.24-0.2c-0.76-0.72-1.65-1.19-2.68-1.39c-1.11-0.22-2.19-0.1-3.23,0.35c-0.6,0.26-1.13,0.62-1.61,1.08
		c-0.24,0.23-0.5,0.34-0.83,0.25c-0.53-0.15-0.75-0.81-0.39-1.23c0.33-0.39,0.74-0.7,1.17-0.98C9.93,10.19,11.21,9.81,12.75,9.8z"/>
	<path d="M12.61,12.81c1.08,0.02,2.01,0.4,2.79,1.15c0.31,0.3,0.33,0.77,0.05,1.1c-0.28,0.32-0.76,0.35-1.09,0.06
		c-0.3-0.26-0.6-0.5-0.99-0.61c-0.89-0.27-1.69-0.11-2.39,0.5c-0.17,0.15-0.33,0.29-0.57,0.31c-0.35,0.03-0.66-0.14-0.8-0.46
		c-0.14-0.3-0.07-0.66,0.18-0.89C10.58,13.2,11.52,12.82,12.61,12.81z"/>
	<path d="M12.6,17.84c-0.58,0-1.05-0.47-1.05-1.04c0-0.58,0.47-1.05,1.05-1.04c0.57,0,1.03,0.46,1.04,1.04
		C13.65,17.36,13.18,17.84,12.6,17.84z"/>
</g>
</svg>
