<?xml version="1.0" encoding="utf-8"?>
<!-- Generator: Adobe Illustrator 26.0.1, SVG Export Plug-In . SVG Version: 6.00 Build 0)  -->
<svg version="1.1" id="Layer_1" xmlns="http://www.w3.org/2000/svg" xmlns:xlink="http://www.w3.org/1999/xlink" x="0px" y="0px"
	 width="23.82px" height="21.23px" viewBox="0 0 23.82 21.23" style="enable-background:new 0 0 23.82 21.23;" xml:space="preserve"
	>
<style type="text/css">
	.st0{fill:#777777;}
</style>
<g>
	<path class="st0" d="M22.78,12.82c-0.08,0-0.16,0.01-0.23,0.01c-5.49,0-10.99,0-16.48,0c-0.08,0-0.17,0-0.27,0c0-0.5,0-0.98,0-1.5
		c5.66,0,11.32,0,16.98,0C22.78,11.83,22.78,12.33,22.78,12.82z"/>
	<path class="st0" d="M13.42,3.42c-0.16,0.06-0.31,0.11-0.47,0.18C11.23,4.31,9.98,5.5,9.23,7.22c-0.49,1.12-0.7,2.29-0.81,3.5
		c0,0.05-0.01,0.1-0.02,0.16c-0.42,0-0.84,0-1.29,0C7.01,8.93,7.49,7.16,8.7,5.62c1.21-1.54,2.79-2.44,4.73-2.72
		c-0.45-0.85-0.41-1.4,0.14-1.82c0.46-0.35,1.12-0.31,1.54,0.1c0.46,0.44,0.47,1.04,0.01,1.71c0.12,0.02,0.22,0.05,0.33,0.07
		c1.45,0.24,2.69,0.89,3.74,1.91c1.17,1.13,1.9,2.51,2.16,4.12c0.09,0.56,0.08,1.14,0.11,1.71c0.01,0.15-0.04,0.21-0.2,0.21
		c-3.87-0.01-7.73-0.01-11.6-0.01c-0.06,0-0.11-0.01-0.17-0.01c0.14-3.11,1.27-5.68,3.99-7.41C13.46,3.46,13.44,3.44,13.42,3.42z"/>
	<path class="st0" d="M5.09,18.66c-0.23-1.43-0.44-2.82-0.67-4.21c0.07-0.03,0.14-0.06,0.22-0.09c0.7-0.25,1.41-0.51,2.12-0.76
		c0.12-0.04,0.26-0.08,0.39-0.08c1.3-0.05,2.6-0.1,3.91-0.14c0.35-0.01,0.56,0.16,0.6,0.47c0.04,0.3-0.1,0.5-0.45,0.59
		c-0.85,0.23-1.71,0.45-2.56,0.68c-0.05,0.01-0.1,0.03-0.14,0.08c0.73,0.05,1.46,0.09,2.2,0.14c0.3,0.02,0.6,0.02,0.89,0.06
		c0.25,0.03,0.47-0.02,0.7-0.11c1.19-0.47,2.38-0.93,3.57-1.4c0.49-0.19,0.88,0.03,0.91,0.5c0.01,0.18-0.04,0.34-0.2,0.44
		c-1.45,0.93-2.91,1.86-4.36,2.79c-0.31,0.2-0.65,0.22-1,0.22c-1.58-0.01-3.16,0-4.74-0.04c-0.51-0.01-0.85,0.18-1.13,0.57
		C5.26,18.44,5.19,18.53,5.09,18.66z"/>
	<path class="st0" d="M1.04,14.89c0.96-0.17,1.91-0.34,2.89-0.51c0.32,1.76,0.64,3.5,0.97,5.28c-1.29,0.24-2.57,0.48-3.86,0.72
		C1.04,18.55,1.04,16.73,1.04,14.89z"/>
</g>
</svg>
