<?xml version="1.0" encoding="utf-8"?>
<!-- Generator: Adobe Illustrator 26.2.1, SVG Export Plug-In . SVG Version: 6.00 Build 0)  -->
<svg version="1.1" id="Layer_1" xmlns="http://www.w3.org/2000/svg" xmlns:xlink="http://www.w3.org/1999/xlink" x="0px" y="0px"
	 width="30.4px" height="30.4px" viewBox="0 0 30.4 30.4" style="enable-background:new 0 0 30.4 30.4;" xml:space="preserve">
<path d="M16.63,15.91c2.6-3,5.19-5.98,7.83-9.02c-0.19,0-0.31,0-0.44,0c-0.64,0-1.27,0.01-1.91,0c-0.73-0.02-1.3-0.59-1.34-1.32
	c-0.04-0.68,0.46-1.3,1.16-1.42c0.08-0.01,0.17-0.03,0.26-0.03c1.81,0,3.63-0.01,5.44,0c0.84,0.01,1.42,0.57,1.42,1.4
	c0.01,1.84,0.01,3.67,0,5.51c0,0.6-0.29,1.04-0.84,1.27c-0.52,0.22-1.02,0.14-1.45-0.23c-0.32-0.28-0.47-0.64-0.46-1.06
	c0-0.63,0-1.27,0-2.01c-0.16,0.18-0.27,0.29-0.37,0.41c-2.72,3.1-5.43,6.21-8.15,9.31c-0.71,0.81-1.56,0.84-2.32,0.07
	c-0.9-0.9-1.79-1.81-2.69-2.72c-0.08-0.08-0.14-0.19-0.23-0.32c-0.33,0.38-0.6,0.68-0.87,0.98c-2.62,3-5.24,6-7.86,9.01
	c-0.41,0.47-0.91,0.66-1.51,0.49c-0.99-0.29-1.3-1.47-0.61-2.27c0.86-0.99,1.73-1.98,2.6-2.97c2.32-2.66,4.65-5.31,6.97-7.97
	c0.4-0.46,0.88-0.71,1.49-0.53c0.26,0.08,0.51,0.24,0.71,0.43c0.98,0.92,1.93,1.85,2.89,2.78C16.46,15.76,16.54,15.82,16.63,15.91z"
	/>
</svg>
