<?xml version="1.0" encoding="utf-8"?>
<!-- Generator: Adobe Illustrator 26.0.1, SVG Export Plug-In . SVG Version: 6.00 Build 0)  -->
<svg version="1.1" id="Layer_1" xmlns="http://www.w3.org/2000/svg" xmlns:xlink="http://www.w3.org/1999/xlink" x="0px" y="0px"
	 width="56.4px" height="56.4px" viewBox="0 0 56.4 56.4" style="enable-background:new 0 0 56.4 56.4;" xml:space="preserve">
<style type="text/css">
	.st0{fill:#7D7D7D;}
</style>
<g>
	<path class="st0" d="M28.53,7.07c0.7,0.28,0.94,0.81,0.92,1.53c-0.03,1.02,0.02,2.03-0.02,3.05c-0.02,0.47,0.15,0.61,0.58,0.67
		c2.38,0.36,4.41,1.44,6.09,3.13c1.75,1.75,2.8,3.88,3.15,6.35c0.08,0.56,0.09,1.12,0.09,1.69c0,2.46,0,4.92,0,7.38
		c0,3.79,1.13,7.19,3.53,10.14c0.33,0.4,0.69,0.79,1.04,1.17c0.39,0.41,0.5,0.89,0.28,1.41c-0.22,0.52-0.64,0.76-1.21,0.76
		c-3.49,0-6.98,0-10.47,0c-0.59,0-0.59,0-0.59,0.59c0,0.63,0.01,1.26-0.21,1.87c-0.59,1.67-2.35,2.74-4.07,2.46
		c-1.82-0.3-3.15-1.82-3.17-3.63c0-0.33-0.01-0.66,0-0.99c0-0.21-0.1-0.3-0.3-0.3c-0.12,0-0.25,0-0.37,0
		c-3.41,0-6.82-0.01-10.22,0.01c-0.62,0-1.12-0.17-1.37-0.77c-0.24-0.59-0.04-1.08,0.4-1.53c2.5-2.59,3.95-5.68,4.36-9.26
		c0.07-0.59,0.09-1.18,0.09-1.77c0.01-2.62-0.01-5.25,0.01-7.87c0.02-2.83,1.02-5.28,2.93-7.37c1.74-1.91,3.89-3.07,6.43-3.48
		c0.44-0.07,0.55-0.25,0.54-0.67c-0.03-1.02,0.01-2.03-0.02-3.05c-0.02-0.73,0.23-1.26,0.92-1.53C28.09,7.07,28.31,7.07,28.53,7.07z
		 M28.2,41.86c3.86,0,7.72,0,11.58,0c0.14,0,0.34,0.08,0.41-0.07c0.06-0.12-0.1-0.24-0.18-0.35c-1.31-1.9-2.21-3.98-2.73-6.23
		c-0.31-1.34-0.44-2.7-0.45-4.08c-0.02-2.92,0.15-5.85-0.08-8.77c-0.17-2.16-1.15-3.98-2.76-5.42c-1.93-1.73-4.21-2.47-6.8-2.18
		c-2.12,0.24-3.92,1.16-5.35,2.73c-1.61,1.75-2.31,3.85-2.29,6.22c0.02,2.47,0,4.95,0.01,7.42c0,0.73-0.02,1.46-0.11,2.18
		c-0.37,2.95-1.37,5.67-3.06,8.14c-0.08,0.11-0.23,0.23-0.18,0.35c0.07,0.16,0.27,0.07,0.41,0.08
		C20.48,41.86,24.34,41.86,28.2,41.86z M26.96,45.11c0.02,0.22,0.01,0.44,0.05,0.66c0.11,0.6,0.6,1.02,1.17,1.03
		c0.58,0.01,1.1-0.42,1.2-1.04c0.05-0.34,0.02-0.68,0.04-1.03c0.01-0.26-0.1-0.37-0.36-0.37c-0.44,0.01-0.88,0-1.32,0
		C26.91,44.36,26.98,44.29,26.96,45.11z"/>
	<path class="st0" d="M7.16,22.7c0.12-3.73,1.17-7.19,3.11-10.38c1.02-1.68,2.28-3.16,3.71-4.5c0.26-0.25,0.54-0.48,0.9-0.56
		c0.53-0.12,1.1,0.16,1.36,0.64c0.25,0.48,0.18,1.04-0.23,1.44c-1,0.98-1.99,1.97-2.81,3.12c-1.86,2.6-3.01,5.48-3.39,8.66
		c-0.09,0.72-0.13,1.45-0.15,2.18c-0.02,0.75-0.52,1.27-1.23,1.28c-0.73,0.01-1.24-0.52-1.26-1.29C7.16,23.09,7.16,22.89,7.16,22.7z
		"/>
	<path class="st0" d="M49.24,22.7c0,0.19,0,0.38,0,0.58c-0.02,0.77-0.54,1.29-1.26,1.28c-0.71-0.01-1.21-0.52-1.23-1.28
		c-0.04-1.56-0.21-3.09-0.61-4.6c-0.9-3.39-2.6-6.31-5.13-8.74c-0.23-0.22-0.46-0.43-0.67-0.67c-0.39-0.43-0.42-1.07-0.08-1.52
		c0.38-0.5,1-0.67,1.54-0.4c0.18,0.09,0.36,0.21,0.51,0.35c3.62,3.35,5.88,7.45,6.68,12.33C49.13,20.92,49.23,21.81,49.24,22.7z"/>
	<path class="st0" d="M12.11,22.82c0.13-3.62,1.35-6.84,3.62-9.67c0.57-0.71,1.23-1.34,1.89-1.96c0.58-0.55,1.33-0.52,1.83,0.02
		c0.49,0.53,0.47,1.25-0.11,1.79c-1.19,1.11-2.26,2.32-3.04,3.77c-1.1,2.02-1.64,4.18-1.7,6.47c-0.02,0.98-0.85,1.56-1.72,1.22
		c-0.49-0.19-0.72-0.57-0.77-1.08C12.1,23.2,12.11,23.01,12.11,22.82z"/>
	<path class="st0" d="M44.29,22.84c0,0.14,0,0.27,0,0.41c-0.02,0.78-0.51,1.31-1.24,1.31c-0.72,0-1.23-0.52-1.25-1.29
		c-0.05-1.72-0.34-3.39-0.99-4.98c-0.74-1.84-1.82-3.45-3.27-4.8c-0.18-0.17-0.36-0.34-0.53-0.52c-0.5-0.51-0.54-1.19-0.11-1.71
		c0.47-0.54,1.13-0.63,1.73-0.17c0.62,0.48,1.17,1.05,1.68,1.64c1.99,2.3,3.26,4.94,3.76,7.94C44.19,21.39,44.29,22.11,44.29,22.84z
		"/>
</g>
</svg>
