<?xml version="1.0" encoding="utf-8"?>
<!-- Generator: Adobe Illustrator 26.0.1, SVG Export Plug-In . SVG Version: 6.00 Build 0)  -->
<svg version="1.1" id="Layer_1" xmlns="http://www.w3.org/2000/svg" xmlns:xlink="http://www.w3.org/1999/xlink" x="0px" y="0px"
	 width="56.4px" height="56.4px" viewBox="0 0 56.4 56.4" style="enable-background:new 0 0 56.4 56.4;" xml:space="preserve">
<style type="text/css">
	.st0{fill:#7D7D7D;}
</style>
<g>
	<path class="st0" d="M28.18,49.44c-11.84-0.06-21.37-9.63-21.3-21.38C6.95,16.26,16.53,6.75,28.31,6.81
		c11.81,0.05,21.27,9.7,21.19,21.6C49.41,39.98,39.77,49.5,28.18,49.44z M47.79,28.14c0-10.82-8.76-19.62-19.55-19.63
		C17.39,8.5,8.6,17.28,8.58,28.14c-0.02,10.87,8.81,19.62,19.79,19.6C39.02,47.72,47.79,38.87,47.79,28.14z"/>
	<path class="st0" d="M28.21,54.58c0-0.6,0-1.13,0-1.58c12.12-0.95,20.51-6.82,23.84-18.7c2.42-8.64,0.05-16.4-5.79-23.1
		c-0.06,0.01-0.11,0.01-0.17,0.02c0,0.4,0,0.79,0,1.19c0,0.39,0,0.77,0,1.19c-0.56,0-1.09,0-1.65,0c-0.02-0.08-0.05-0.18-0.05-0.27
		c0-1.28-0.01-2.56,0-3.84c0-0.62,0.31-0.96,0.89-0.97c1.38-0.02,2.77,0,4.19,0c0,0.56,0,1.1,0,1.68c-0.56,0-1.13,0-1.82,0
		c4.75,5.39,7.15,11.57,6.95,18.65c-0.2,7.12-2.87,13.23-7.97,18.21C41.53,52.01,35.36,54.43,28.21,54.58z"/>
	<path class="st0" d="M16.48,6.32c-0.47,0.28-0.91,0.53-1.39,0.81c-0.29-0.47-0.58-0.93-0.9-1.44c0.5-0.29,0.98-0.57,1.49-0.87
		C15.96,5.35,16.22,5.83,16.48,6.32z"/>
	<path class="st0" d="M8.07,13.74c-0.47-0.34-0.9-0.65-1.38-0.99c0.36-0.46,0.7-0.9,1.05-1.36c0.45,0.37,0.86,0.7,1.31,1.07
		C8.72,12.88,8.42,13.28,8.07,13.74z"/>
	<path class="st0" d="M14.22,50.58c0.33-0.53,0.61-0.98,0.91-1.44c0.47,0.27,0.91,0.53,1.39,0.81c-0.26,0.49-0.51,0.96-0.8,1.5
		C15.21,51.15,14.73,50.87,14.22,50.58z"/>
	<path class="st0" d="M22.17,53.86c-0.56-0.15-1.08-0.28-1.67-0.43c0.17-0.55,0.32-1.07,0.49-1.63c0.52,0.14,1,0.26,1.55,0.41
		C22.43,52.76,22.31,53.28,22.17,53.86z"/>
	<path class="st0" d="M20.96,4.47c-0.17-0.55-0.32-1.05-0.5-1.63c0.55-0.15,1.06-0.29,1.66-0.46c0.13,0.56,0.26,1.08,0.39,1.65
		C22,4.18,21.51,4.31,20.96,4.47z"/>
	<path class="st0" d="M19.43,4.99c-0.51,0.21-0.98,0.4-1.49,0.61c-0.23-0.51-0.45-0.99-0.7-1.53c0.53-0.23,1.03-0.44,1.58-0.68
		C19.02,3.93,19.21,4.42,19.43,4.99z"/>
	<path class="st0" d="M4.09,17.24c0.54,0.25,1.02,0.46,1.54,0.7c-0.2,0.49-0.39,0.96-0.61,1.49C4.5,19.23,4,19.04,3.44,18.84
		C3.66,18.3,3.86,17.8,4.09,17.24z"/>
	<path class="st0" d="M3.56,25.72c-0.6-0.06-1.12-0.11-1.69-0.17c0.08-0.58,0.15-1.11,0.23-1.7c0.57,0.09,1.1,0.18,1.68,0.27
		C3.71,24.66,3.64,25.16,3.56,25.72z"/>
	<path class="st0" d="M2.87,20.48c0.59,0.18,1.09,0.33,1.63,0.49c-0.14,0.54-0.27,1.02-0.41,1.56c-0.55-0.13-1.06-0.24-1.64-0.38
		C2.59,21.6,2.72,21.08,2.87,20.48z"/>
	<path class="st0" d="M3.44,27.34c0,0.56,0,1.07,0,1.61c-0.55,0-1.08,0-1.64,0c0-0.53,0-1.07,0-1.61
		C2.35,27.34,2.89,27.34,3.44,27.34z"/>
	<path class="st0" d="M4.52,35.32c-0.55,0.17-1.06,0.32-1.63,0.49c-0.15-0.57-0.29-1.09-0.44-1.66c0.56-0.14,1.07-0.26,1.64-0.39
		C4.23,34.28,4.37,34.78,4.52,35.32z"/>
	<path class="st0" d="M5.74,42.09c-0.3-0.52-0.56-0.97-0.86-1.49c0.51-0.27,0.98-0.52,1.49-0.8c0.28,0.47,0.53,0.91,0.81,1.39
		C6.71,41.49,6.25,41.78,5.74,42.09z"/>
	<path class="st0" d="M23.82,2.05c0.57-0.08,1.11-0.15,1.7-0.23c0.06,0.56,0.12,1.08,0.18,1.67c-0.53,0.08-1.04,0.15-1.59,0.24
		C24.01,3.16,23.92,2.62,23.82,2.05z"/>
	<path class="st0" d="M11.39,7.71c0.46-0.36,0.89-0.69,1.36-1.05c0.34,0.47,0.66,0.91,0.99,1.38c-0.43,0.34-0.84,0.65-1.27,0.98
		C12.11,8.58,11.77,8.16,11.39,7.71z"/>
	<path class="st0" d="M17.27,52.21c0.26-0.56,0.48-1.03,0.71-1.54c0.52,0.21,0.98,0.41,1.49,0.62c-0.2,0.54-0.4,1.04-0.6,1.59
		C18.32,52.65,17.82,52.44,17.27,52.21z"/>
	<path class="st0" d="M6.36,16.49c-0.52-0.28-0.98-0.53-1.49-0.8c0.29-0.5,0.55-0.97,0.85-1.49c0.5,0.31,0.95,0.59,1.44,0.89
		C6.89,15.56,6.64,15.99,6.36,16.49z"/>
	<path class="st0" d="M3.57,30.57c0.07,0.55,0.14,1.05,0.22,1.61c-0.56,0.09-1.09,0.18-1.68,0.27c-0.08-0.58-0.15-1.12-0.23-1.7
		C2.46,30.69,2.98,30.63,3.57,30.57z"/>
	<path class="st0" d="M3.45,37.46c0.55-0.21,1.05-0.4,1.59-0.6c0.21,0.5,0.4,0.97,0.61,1.48c-0.51,0.23-0.99,0.45-1.54,0.71
		C3.89,38.52,3.68,38,3.45,37.46z"/>
	<path class="st0" d="M9.07,43.82c-0.46,0.38-0.87,0.71-1.31,1.07c-0.35-0.46-0.69-0.89-1.05-1.36c0.47-0.34,0.91-0.66,1.38-0.99
		C8.41,42.97,8.72,43.37,9.07,43.82z"/>
	<path class="st0" d="M12.79,49.61c-0.48-0.37-0.91-0.7-1.37-1.05c0.36-0.44,0.69-0.85,1.07-1.31c0.43,0.32,0.84,0.64,1.28,0.97
		C13.44,48.69,13.14,49.12,12.79,49.61z"/>
	<path class="st0" d="M10.11,47.43c-0.41-0.42-0.79-0.81-1.21-1.24c0.41-0.38,0.8-0.75,1.18-1.1c0.39,0.38,0.76,0.75,1.15,1.14
		C10.88,46.6,10.51,47,10.11,47.43z"/>
	<path class="st0" d="M24.15,52.53c0.56,0.08,1.06,0.15,1.6,0.23c-0.06,0.56-0.11,1.08-0.17,1.68c-0.56-0.07-1.09-0.14-1.7-0.22
		C23.97,53.65,24.05,53.12,24.15,52.53z"/>
	<path class="st0" d="M11.22,10.06c-0.4,0.41-0.74,0.77-1.12,1.17c-0.4-0.38-0.8-0.75-1.23-1.15C9.3,9.68,9.69,9.31,10.13,8.9
		C10.5,9.29,10.87,9.69,11.22,10.06z"/>
	<path class="st0" d="M10.29,28.06c0.02-9.86,8.07-17.86,17.95-17.84c9.89,0.02,17.87,8.07,17.85,18
		c-0.02,9.8-8.08,17.83-17.87,17.82C18.28,46.02,10.27,37.98,10.29,28.06z M28.19,44.33c8.82,0.05,16.15-7.21,16.2-16.04
		c0.05-8.99-7.12-16.3-16.03-16.36c-9-0.06-16.31,7.16-16.36,16.15C11.94,37.02,19.18,44.28,28.19,44.33z"/>
	<path class="st0" d="M27.33,29.83c0.59,0,1.12,0,1.67,0c0,0.58,0,1.12,0,1.69c-0.54,0-1.07,0-1.65,0c0,0.58,0,1.12,0,1.69
		c-0.6,0-1.13,0-1.71,0c0-0.55,0-1.07,0-1.67c-0.95,0-1.87,0.01-2.78,0c-0.5,0-1.06,0.12-1.38-0.45c-0.32-0.58,0.1-0.98,0.36-1.4
		c1.25-2.02,2.52-4.03,3.77-6.05c0.25-0.41,0.55-0.73,1.07-0.6c0.54,0.14,0.66,0.56,0.66,1.07C27.33,25.99,27.33,27.87,27.33,29.83z
		 M25.61,27.05c-0.03-0.01-0.06-0.02-0.1-0.04c-0.57,0.92-1.14,1.83-1.73,2.78c0.67,0,1.25,0,1.83,0
		C25.61,28.85,25.61,27.95,25.61,27.05z"/>
	<path class="st0" d="M17.22,31.54c1.16,0,2.2,0,3.27,0c0,0.57,0,1.09,0,1.7c-0.2,0-0.4,0-0.6,0c-1.42,0-2.84-0.01-4.26,0
		c-0.42,0-0.78-0.08-0.98-0.49c-0.22-0.44-0.02-0.78,0.26-1.11c1.06-1.26,2.15-2.51,3.15-3.82c0.36-0.47,0.61-1.08,0.73-1.66
		c0.15-0.78-0.45-1.42-1.19-1.45c-0.72-0.03-1.28,0.51-1.33,1.29c-0.01,0.12-0.01,0.24-0.02,0.38c-0.55,0-1.08,0-1.61,0
		c-0.47-1.84,1.46-3.73,3.42-3.34c1.87,0.37,2.88,2.12,2.29,4.07c-0.18,0.6-0.5,1.18-0.88,1.68C18.79,29.72,18.03,30.56,17.22,31.54
		z"/>
	<path class="st0" d="M39.11,33.22c-0.43,0-0.96,0-1.54,0c-0.03-1.48,0.11-2.92,0.48-4.32c0.37-1.4,0.88-2.76,1.33-4.15
		c-0.82,0-1.71,0-2.64,0c-0.02,0.24-0.03,0.5-0.05,0.78c-0.56,0-1.09,0-1.68,0c0-0.6-0.03-1.19,0.01-1.76
		c0.04-0.46,0.35-0.75,0.82-0.75c1.7-0.02,3.41-0.02,5.11,0c0.75,0.01,1.09,0.69,0.69,1.37c-0.79,1.38-1.46,2.81-1.8,4.36
		C39.53,30.2,39.36,31.68,39.11,33.22z"/>
	<path class="st0" d="M32.48,22.82c0.58,0.15,1.09,0.27,1.65,0.42c-0.86,3.43-1.71,6.82-2.56,10.22c-0.56-0.14-1.07-0.27-1.65-0.42
		C30.78,29.63,31.62,26.26,32.48,22.82z"/>
	<path class="st0" d="M25.61,27.05c0,0.9,0,1.8,0,2.74c-0.58,0-1.16,0-1.83,0c0.59-0.94,1.16-1.86,1.73-2.78
		C25.55,27.03,25.58,27.04,25.61,27.05z"/>
</g>
</svg>
