<?xml version="1.0" encoding="utf-8"?>
<!-- Generator: Adobe Illustrator 26.0.1, SVG Export Plug-In . SVG Version: 6.00 Build 0)  -->
<svg version="1.1" id="Layer_1" xmlns="http://www.w3.org/2000/svg" xmlns:xlink="http://www.w3.org/1999/xlink" x="0px" y="0px"
	 width="93.6px" height="93.6px" viewBox="0 0 93.6 93.6" style="enable-background:new 0 0 93.6 93.6;" xml:space="preserve">
<style type="text/css">
	.st0{fill:#D8D8D8;}
</style>
<path class="st0" d="M80.16,86.34c-0.07-7.93-2.53-15.02-7.59-21.12c-5.62-6.77-12.8-10.89-21.59-11.95
	c-10.15-1.22-19.08,1.62-26.66,8.49c-6.21,5.64-9.73,12.7-10.7,21.03c-0.14,1.17-0.13,2.36-0.19,3.54c-2.06,0-4.12,0-6.18,0
	c0.63-18.26,9.89-30.42,26.39-37.5c-6.14-4.6-9.59-10.74-9.68-18.55c-0.07-6.37,2.22-11.9,6.76-16.38c9.42-9.3,23.98-8.54,32.55,0.4
	c9.47,9.88,8.4,26.18-3.48,34.65c0.33,0.13,0.59,0.24,0.86,0.34c12.05,4.8,20.1,13.36,24.04,25.74c0.85,2.68,1.33,5.44,1.52,8.25
	c0.02,0.25,0.09,0.49,0.13,0.74c0,0.77,0,1.54,0,2.32C84.28,86.34,82.22,86.34,80.16,86.34z M46.81,13.43
	c-9.15-0.01-16.65,7.45-16.69,16.63c-0.05,9.17,7.47,16.72,16.67,16.73c9.15,0.01,16.65-7.45,16.69-16.63
	C63.53,21,56.01,13.45,46.81,13.43z"/>
</svg>
