<?xml version="1.0" encoding="utf-8"?>
<!-- Generator: Adobe Illustrator 26.0.1, SVG Export Plug-In . SVG Version: 6.00 Build 0)  -->
<svg version="1.1" id="Layer_1" xmlns="http://www.w3.org/2000/svg" xmlns:xlink="http://www.w3.org/1999/xlink" x="0px" y="0px"
	 width="500px" height="377.4px" viewBox="0 0 500 377.4" style="enable-background:new 0 0 500 377.4;" xml:space="preserve">
<style type="text/css">
	.st0{fill:#9094AF;}
	.st1{fill:#A7B88B;}
	.st2{fill:#8DA164;}
	.st3{fill:#A6AABF;}
	.st4{fill:#F0B297;}
	.st5{fill:#D1785E;}
	.st6{fill:#F3F3F3;}
	.st7{fill:#1A1A1A;}
	.st8{fill:#A43A3A;}
	.st9{fill:#3A3835;}
	.st10{fill:#2C2A28;}
	.st11{fill:#B4B4B4;}
	.st12{fill:#DDD1C9;}
	.st13{fill:#D65339;}
	.st14{fill:#EAE2DD;}
	.st15{fill:#2D1E1C;}
	.st16{fill:#F8A689;}
	.st17{fill:#89996E;}
	.st18{fill:#B36751;}
	.st19{fill:#2C1410;}
	.st20{fill:#C3512E;}
	.st21{fill:#BD8F46;}
	.st22{fill:#E6E6E5;}
	.st23{fill:#CCCCCC;}
	.st24{fill:#989898;}
	.st25{fill:#F9F1E8;}
	.st26{fill:#F37780;}
	.st27{fill:#2B2927;}
	.st28{fill:#866962;}
	.st29{fill:#FFFFFF;}
	.st30{fill:#B18B81;}
	.st31{fill:#EFB59C;}
	.st32{fill:#B13425;}
	.st33{fill:#90A3B5;}
	.st34{fill:#333333;}
	.st35{fill:#4E4E4E;}
	.st36{fill:#3F1C1B;}
	.st37{fill:#DB9487;}
	.st38{fill:#93382C;}
	.st39{fill:#E6D2B9;}
	.st40{fill:#CCE3F1;}
	.st41{fill:#6C6F84;}
</style>
<g>
	<path id="floor" class="st0" d="M479.11,358.9H33.35c-1.4,0-2.55-1.15-2.55-2.55l0,0c0-1.4,1.15-2.55,2.55-2.55h445.76
		c1.4,0,2.55,1.15,2.55,2.55l0,0C481.66,357.75,480.51,358.9,479.11,358.9z"/>
	<g id="trees">
		<g id="tree">
			<g>
				<path class="st1" d="M115.02,265.89c0.5,0.93,0.47,2.04-0.01,2.96c-0.84,1.58-2.65,2.78-4.2,4.05c-5,4.1-7.67,9.58-7.36,15.1
					c0.16,2.93,1.13,5.85,1.03,8.77c-0.17,4.84-3.44,9.48-8.76,12.42c-4.92,2.72-11.5,3.95-17.92,3.39
					c-1.45-3.53-3.12-7.89,0.11-10.76c1.06-0.94,2.56-1.6,3.69-2.51c5.23-4.17,0.77-10.99,2.48-16.47
					c1.27-4.08,5.86-7.09,10.23-9.86c3.65-2.31,7.3-4.61,10.95-6.92c2.16-1.36,5.16-2.8,7.83-1.79
					C114.03,264.63,114.66,265.21,115.02,265.89z"/>
				<path class="st2" d="M99.7,285.89c-1.63,8.41-1.81,17.55-9.07,23.22c-2.46,1.9-5.16,3.01-8,3.56c4.78-0.24,9.4-1.44,13.08-3.48
					c5.32-2.94,8.59-7.58,8.76-12.42c0.1-2.92-0.86-5.85-1.03-8.77c-0.31-5.52,2.36-10.99,7.36-15.1c1.56-1.28,3.37-2.47,4.2-4.05
					c0.08-0.16,0.15-0.33,0.21-0.49C107.43,270.93,101.35,276.17,99.7,285.89z"/>
				<path class="st1" d="M27.13,272.53c3.46-4.1,7.04-8.1,10.74-12c1.05-1.1,2.13-2.22,3.49-2.88c3.38-1.65,7.49-0.07,10.38,2.34
					c2.89,2.41,5.08,5.6,8.03,7.93c2.65,2.09,5.93,3.51,7.87,6.28c2.08,2.97,2.19,6.87,2.26,10.51c0.19,9.64,0.7,19.27,1.54,28.88
					c-2.33-4.56-3.81-9.55-4.36-14.65c-0.37-3.47-0.34-7.09-1.81-10.25c-1.83-3.95-5.67-6.49-9.32-8.81
					c-3.55-2.26-7.61-4.61-11.69-3.63c-2.68,0.64-4.81,2.6-7.11,4.12c-5.48,3.61-12.47,4.78-18.81,3.15
					C21.18,279.77,24.11,276.11,27.13,272.53z"/>
				<path class="st2" d="M69.05,306.73c-1.45-6.95,0.18-13.35-1.09-20.3c-0.91-4.02-5.16-6.58-8.71-10.16
					c-3.55-3.58-9.55-9.48-19.4-6.48c-4.96,1.51-13.63,9.88-21.24,13.35c-0.09,0.12-0.18,0.23-0.27,0.35
					c6.34,1.63,13.34,0.45,18.81-3.15c2.3-1.52,4.43-3.48,7.11-4.12c4.08-0.97,8.15,1.38,11.69,3.63c3.65,2.33,7.49,4.87,9.32,8.81
					c1.47,3.16,1.43,6.78,1.81,10.25c0.37,3.44,1.17,6.83,2.36,10.08C69.46,308.24,69.26,307.46,69.05,306.73z"/>
				<path class="st1" d="M85.97,232.41c0.02-0.03,0.03-0.07,0.05-0.1c-5.97,3.18-8.75,10.21-10.42,16.8
					c-1.22,4.8-2.11,9.69-2.67,14.62c-0.51,4.5-0.73,9.1,0.21,13.52c0.79,3.74,2.42,7.37,2.28,11.2c-0.18,4.96-3.3,9.39-3.77,14.32
					c-0.37,3.91,1.07,7.95,3.78,10.76c1.72-0.96,3.44-1.92,5.16-2.88c0.77-0.43,1.61-0.94,1.89-1.78c0.34-1.02-0.27-2.09-0.71-3.07
					c-1.72-3.77-1.21-8.18-0.19-12.19c1.58-6.2,4.29-12.04,6.33-18.11c2.04-6.07,3.4-12.58,2.16-18.86
					c-0.82-4.13-2.73-7.96-3.99-11.98C84.81,240.67,84.23,236.19,85.97,232.41z"/>
			</g>
			<g>
				<g>
					<rect x="63.06" y="311.43" class="st0" width="30.96" height="41.96"/>
				</g>
			</g>
		</g>
		<rect x="59.28" y="350.26" class="st3" width="38.34" height="3.97"/>
	</g>
	<g id="character_4_">
		<g>
			<g>
				<rect x="289.04" y="65.35" class="st4" width="20.29" height="24.13"/>
				<path class="st5" d="M309.32,65.35v7.42c-5.05,4.08-11.86,6.84-20.29,7.42V65.35H309.32z"/>
			</g>
		</g>
		<g>
			<g>
				<g>
					<path class="st4" d="M309.88,62.1c0.9,0.25,1.89,0.06,2.73-0.35c0.84-0.41,1.54-1.03,2.21-1.67c1.75-1.69,3.38-3.82,3.26-6.2
						c-0.04-0.8-0.31-1.63-0.94-2.15c-0.74-0.63-1.88-0.7-2.79-0.35c-0.92,0.35-1.64,1.07-2.17,1.87L309.88,62.1z"/>
					<path class="st4" d="M287.95,62.1c-0.9,0.25-1.89,0.06-2.73-0.35c-0.84-0.41-1.54-1.03-2.21-1.67
						c-1.75-1.69-3.38-3.82-3.26-6.2c0.04-0.8,0.31-1.63,0.94-2.15c0.74-0.63,1.88-0.7,2.79-0.35c0.92,0.35,1.64,1.07,2.17,1.87
						L287.95,62.1z"/>
				</g>
				<path class="st4" d="M313.47,63.25c0.69-7.46,2.64-11.82,3.84-16.13c0.86-3.23,1.73-8.75-2.03-13.62
					c-3.71-5.06-13.03-7.93-21.56-5.51c-8.59,2.42-13.36,7.44-12.32,13.16c0.53,3.42,1.02,8.16,1.59,11.69
					c0.47,2.94-0.42,5.88,0.67,8.74c2.02,4.92,9.84,13.55,15.99,13.55C304.68,75.14,312.99,66.51,313.47,63.25z"/>
			</g>
			<path class="st6" d="M300.73,56.13c-0.05,0.15-0.11,0.28-0.18,0.41c-0.07,0.13-0.15,0.27-0.28,0.34
				c-0.13,0.07-0.32,0.02-0.46-0.19c-0.07-0.11-0.13-0.25-0.15-0.41c-0.02-0.16,0-0.34,0.06-0.52c0.06-0.18,0.16-0.33,0.28-0.44
				c0.12-0.11,0.25-0.19,0.37-0.22c0.25-0.07,0.42,0.02,0.48,0.15c0.06,0.14,0.03,0.3,0,0.44
				C300.82,55.84,300.79,55.98,300.73,56.13z"/>
			<path class="st5" d="M299.17,56.63c-0.02-0.1-0.04-0.19-0.06-0.28c-0.01-0.08-0.03-0.15-0.04-0.23
				c-0.01-0.07-0.01-0.16-0.01-0.25c0-0.1,0.01-0.2,0.03-0.31c0.03-0.22,0.06-0.44,0.05-0.63c-0.01-0.19-0.06-0.34-0.17-0.44
				c-0.11-0.09-0.21-0.09-0.32-0.01c-0.11,0.08-0.24,0.24-0.37,0.46c-0.13,0.23-0.26,0.54-0.3,0.92c-0.02,0.19,0,0.39,0.04,0.57
				c0.04,0.19,0.11,0.36,0.19,0.53c0.08,0.17,0.17,0.32,0.27,0.45c0.1,0.14,0.2,0.26,0.3,0.37c0.2,0.22,0.39,0.38,0.55,0.51
				c0.32,0.25,0.51,0.34,0.61,0.17c0.1-0.16,0.09-0.36-0.08-0.64c-0.08-0.14-0.21-0.31-0.35-0.5c-0.07-0.1-0.14-0.21-0.2-0.32
				C299.26,56.89,299.2,56.76,299.17,56.63z"/>
			<g>
				<path class="st7" d="M304.41,48.97c0.83-0.19,1.7-0.23,2.54-0.12c0.85,0.11,1.68,0.37,2.44,0.77c0.76,0.4,0.42,1.17-0.34,0.99
					c-0.75-0.19-1.5-0.33-2.26-0.43c-0.75-0.1-1.51-0.15-2.29-0.17C303.74,50,303.59,49.17,304.41,48.97z"/>
				<path class="st7" d="M294.14,48.91c-0.83-0.17-1.7-0.19-2.54-0.06c-0.84,0.13-1.67,0.4-2.42,0.82c-0.75,0.42-0.4,1.18,0.35,0.98
					c0.75-0.2,1.5-0.36,2.25-0.48c0.75-0.12,1.51-0.19,2.29-0.22C294.84,49.92,294.97,49.08,294.14,48.91z"/>
				<g>
					<g>
						<path class="st7" d="M293.35,55.26l-0.01-1.98c-0.01-0.95-0.79-1.73-1.75-1.73l0,0c-0.95,0.01-1.73,0.79-1.73,1.75l0.01,1.98
							C289.88,56.24,293.35,56.22,293.35,55.26z"/>
					</g>
					<g>
						<path class="st7" d="M305.28,55.26l0.01-1.98c0.01-0.95,0.79-1.73,1.75-1.73l0,0c0.95,0.01,1.73,0.79,1.73,1.75l-0.01,1.98
							C308.74,56.24,305.27,56.22,305.28,55.26z"/>
					</g>
				</g>
			</g>
			<path class="st8" d="M295.58,62.84c2.96,1.24,6.49,0.7,9-1.28c0.39-0.31-0.16-0.85-0.54-0.54c-2.3,1.82-5.55,2.21-8.25,1.09
				c-0.19-0.08-0.42,0.09-0.47,0.27C295.25,62.58,295.39,62.76,295.58,62.84L295.58,62.84z"/>
		</g>
		<path class="st9" d="M337.52,91c2.21,1.73,6.03,5.28,6.26,7.19c0.23,1.91,7.48,52.56,7.93,55.84c0.91,6.58-20.06-0.17-20.85-4.46
			c-0.79-4.29-9.55-35.52-9.55-35.52l8.46-24.8C329.77,89.24,335.18,89.17,337.52,91z"/>
		<path class="st10" d="M326.07,165.5c5.32,32.65,0.72,92.81-0.66,101.66c-1.39,8.95-19.88-5.83-20.48-14.86
			c-0.21-3.25,0.64-6.47,0.64-9.73c0.01-2.87-1.25-5.63-1.3-8.52c-0.41-25.17-5.37-28.7-8.97-44.22l-5.82-24.34H326.07z"/>
		<g>
			<path class="st11" d="M271.41,353.36c3.93-1.88,7.4-3.87,8.38-5.89l0.43-17.88c0.15-1.33,0.44-2.95-0.86-3.13l-5.91-0.82
				c-1.16-0.16-2.24,0.57-2.55,1.71c-0.66,2.46-2.97,10.62-2.97,10.62c-3.84,3.79-7.69,7.58-11.53,11.37
				c-1.17,1.16-2.42,2.34-2.53,4.02C253.87,353.42,271.41,353.36,271.41,353.36z"/>
			<path class="st7" d="M280.11,334.32c-0.37-0.06,0.96,9.56-3.42,10.27c-0.28,0.04-0.56,0.07-0.85,0.07l-0.35-4.06
				c0,0-6.22-2.87-10.89-2.51l-1.08,2.21l-13.26,7.3c-1.1,1.08-2.75,2.72-2.91,4.97c-0.02,0.32,0.12,0.68,0.38,1.06h33.51
				C281.25,353.64,280.48,334.38,280.11,334.32z"/>
		</g>
		<g>
			<path class="st11" d="M338.27,353.3c0,0-0.8-2.83-1.69-4l-8.76-11.48c0,0-1.1-7.43-1.4-9.66c-0.14-1.04-1-1.82-2.02-1.84
				l-5.23-0.09c-1.15-0.02-2.1,0.92-2.11,2.1l-0.6,16.17c1.02,3.09,2.2,5.79,3.55,8.75L338.27,353.3z"/>
			<path class="st7" d="M337.44,348.6l-5.93-7.76l-0.82-2.46c-4.01-0.95-9.75,0.71-9.75,0.71l-0.75,3.49
				c-0.25-0.04-0.49-0.1-0.73-0.18c-3.73-1.22-2.53-7.61-2.86-7.61c-0.33,0-4.24,18.84-4.24,18.84h27.02
				c0.01-0.1,0.02-0.2,0.03-0.31C339.53,351.34,338.28,349.69,337.44,348.6z"/>
		</g>
		<path class="st10" d="M272.85,163.64c-5.43,32.65-2.75,92.81-1.34,101.66c1.42,8.95,20.32-5.83,20.93-14.86
			c0.22-3.25-0.65-6.47-0.66-9.73c-0.01-2.87,0.66-5.71,1.33-8.52c3.68-15.52,11.44-31.04,15.12-46.56v-22H272.85z"/>
		<path class="st10" d="M268.12,332.06c-0.23-12.86-0.01-25.72,0.21-38.57c0.11-6.46,0.22-12.92,0.33-19.38
			c0.15-9.1,0.69-18.32,4.04-26.9c1-2.56,17.1-9.17,19.09-6.49c0,0,1.34,12.66,2.18,18.4c0.55,3.77-0.2,7.59-0.95,11.34
			c-4.06,20.36-6.19,41.24-10.25,61.61H268.12z"/>
		<path class="st10" d="M329.05,333.1c0.23-12.86-0.31-24.89-0.53-37.75c-0.11-6.46-0.22-12.92-0.32-19.38
			c-0.15-9.1-0.67-18.32-3.95-26.9c-0.98-2.56-16.74-9.17-18.68-6.49c0,0-1.31,12.66-2.13,18.4c-0.54,3.77,0.19,7.59,0.93,11.34
			c3.98,20.36,5.87,40.47,9.85,60.83L329.05,333.1z"/>
		<path class="st12" d="M284.98,177.22c-0.6,0-1,0-1.16,0c-3.02-0.04-12.01-2.65-13.31-4.68c3.35-17.31,1.31-27.75-0.66-37.84
			c-1.11-5.68-2.37-17.98-2.37-17.98c-1.21-2.27-2.61-19.26-1.58-26.26l22.25-9.35l10.3,3.08h2.08l10.31-3.08l22.25,9.35
			c1.03,7.01-0.37,23.99-1.58,26.26c0,0-1.56,12.6-2.98,18.33c-2.4,9.7-4.89,19.72-1.52,36.87l0.01,0.08
			c-0.67,1.01-5.67,3.6-8.11,3.99C311.07,177.21,286.04,177.22,284.98,177.22z"/>
		<g>
			<polygon class="st13" points="303.4,93.7 307.29,89.93 304.98,83.61 299.49,83.12 293.99,83.61 291.68,89.93 295.57,93.7 
				289.48,152.94 299.49,164.64 309.49,152.94 			"/>
			<g>
				<g>
					<polygon class="st14" points="310.18,76 299.49,83.12 303.4,83.92 306.54,100.17 316.98,83.74 					"/>
				</g>
			</g>
			<g>
				<g>
					<polygon class="st14" points="288.79,76 299.49,83.12 295.57,83.92 292.43,100.17 281.99,83.74 					"/>
				</g>
			</g>
		</g>
		<path class="st9" d="M261.58,90.71c-2.21,1.73-6.03,5.28-6.26,7.19c-0.23,1.91-5.1,42.21-6.37,53.28
			c-0.79,10.66,19.4,10.78,20.64,7.84c1.24-2.95,8.2-45.26,8.2-45.26l-8.46-24.8C269.33,88.96,263.91,88.89,261.58,90.71z"/>
		<path class="st9" d="M335.73,90.08l-20.43-8.26l-6.27,48.43l-0.79,60.2c7.84,5.34,22.29,3.5,23.87,1.49
			c1.59-2.01-1-15.49-1.34-18.08c-3.55-27.4,1.67-56.65,1.67-56.65S336.93,96.72,335.73,90.08z"/>
		<path class="st9" d="M290.74,129.85l-7.07-48.02l-19.87,7.83c-1.21,6.64,2.73,27.56,2.73,27.56s6.91,28.77,2.48,55.77
			c-0.19,2.36-2.94,17.07-1.8,18.71c1.14,1.64,18.21,5.41,25.16,0.81L290.74,129.85z"/>
		<g>
			<g>
				<path class="st15" d="M312.3,45.49c-0.76-0.05-1.51-0.24-2.18-0.54c-1.8-0.82-3.77-1.36-4.76-2.93
					c-1.33-2.11-0.04-5.03-1.95-5.61c-3.03-0.92-9.06,1.91-11.75,0.36c-0.57-0.33-1.05-0.78-1.4-1.29c-0.65,0.91-1.6,1.73-2.51,2.44
					c-1.66,1.29-3.48,2.78-3.59,4.75c-0.07,1.21,0.54,2.35,0.87,3.52c0.63,2.22-1.15,8.88-1.15,8.88c-0.66-0.9-2.52-4.28-3-5.71
					c-0.55-1.66-0.28-3.45-0.69-5.14c-0.44-1.82-1.64-3.44-2.01-5.27c-0.42-2.08,0.36-4.32,1.98-5.86
					c-0.13-1.01-0.16-2.03-0.05-3.05c0.25-2.16,1.26-4.34,3.18-5.68c1.7-1.19,4.18-1.56,6.1-0.73c3.36-2.89,7.31-5.52,11.82-5.07
					c4.06,0.41,7.23,3.23,10.97,4.71c2.19,0.86,4.58,1.26,6.79,2.07c2.21,0.81,4.35,2.19,5.1,4.22c0.38,1.02,0.24,2.21-0.3,3.17
					c0.64,0.46,1.13,1.12,1.3,1.83c0.39,1.57-0.33,3.18-1.18,4.6c-0.85,1.42-4.52,3.31-4.8,4.9c-0.33,1.79-3.5,11.02-3.5,11.02
					l-2.16-9.62C313.06,45.5,312.68,45.51,312.3,45.49z"/>
			</g>
		</g>
		<g>
			<g>
				<path class="st4" d="M346.07,157.51c0.2-1.34-4.29-14.28-9.61-16.12c-5.32-1.84-55.98-7.11-55.98-7.11s-2.62,4.4-1.72,7.81
					c0,0,37.41,12.65,42.36,14.17C326.07,157.77,345.87,158.85,346.07,157.51z"/>
			</g>
			<path class="st4" d="M282.66,134.95c0,0-10.2-4.11-10.86-4.44v14.84l9.39-3.17L282.66,134.95z"/>
			<path class="st9" d="M288.5,132.27l-3.24,15.01c0,0,33.82,10.47,47.7,13.37c13.88,2.91,19.75-2.31,18.57-7.05
				s-5.19-11.77-13.8-13.87C329.13,137.62,288.5,132.27,288.5,132.27z"/>
		</g>
		<g>
			<g>
				<path class="st4" d="M256.17,158.05c0.05-1.35,4.4-16.66,9.97-17.48c5.57-0.82,62.43,7.57,62.43,7.57s-2.54,7.81-4.61,8.66
					c0,0-28.5,1.08-38.64,2.32C280.19,159.75,256.12,159.4,256.17,158.05z"/>
			</g>
			<g>
				<g>
					<g>
						<path class="st4" d="M319.63,155.85c3.08,1.68,6.61,2.1,9.93,3.04c1.36,0.38,2.98,0.7,3.93-0.25
							c0.54-0.53,0.71-1.33,0.87-2.09c0.5-2.45-1.62-5.95-1.13-9.15c0.35-2.24,0.47-7.01-0.68-6.88c-3.03,0.35-7.98,5.24-11.17,6.85
							c-0.46,0.23-0.84,0.59-1.11,1.03C319.23,150.15,317.02,154.43,319.63,155.85z"/>
						<path class="st4" d="M332.49,149.39c3.22,0.08,5.4-0.07,7.95-0.67c1.6-0.38,3.35-1.76,8.15-4.63
							c1.79-1.07-0.64-2.39-2.54-1.52c-2.84,1.3-2.3,1.21-5.8,2.34c-2.84,0.92-5.48-0.26-8.29,0.16
							C330.07,145.36,330.56,149.35,332.49,149.39z"/>
						<path class="st4" d="M332.71,153.02c4.53-0.31,6.09,0.17,8.98-0.58c2.19-0.57,3.27-1.48,6.79-2.81
							c2.41-0.92,0.93-3.58-1.48-2.66c-3.6,1.37-4.87,1.89-4.87,1.89c-3.69,1.03-7.53,0.13-11.27,0.71
							C328.34,149.95,330.16,153.2,332.71,153.02z"/>
						<path class="st4" d="M332.45,155.9c3.85,0.73,7.51,1.04,9.33,0.74c0.85-0.14,4.4-1.58,5.39-1.92c1.52-0.53,2.7-1.63,2.7-1.63
							c0.66-0.76-0.2-2.02-1.24-1.78c-1.22,0.28-5.15,1.7-7.81,2.15c-3.77,0.64-5.98-1.39-9.74-1.2
							C328.54,152.39,329.94,155.42,332.45,155.9z"/>
						<path class="st4" d="M331.14,159.27c3.4,0.54,4.6,0.32,6.09,0.36c0.69,0.02,3.2-0.42,4.76-0.47c0.84-0.03,3.17-0.46,3.17-0.46
							c0.61-0.57,0.11-1.65-0.75-1.61c-1.01,0.05-2.88,0.19-5.05,0.14c-3.08-0.07-5.94-1.51-8.96-1.99
							C328.36,154.91,329.1,158.94,331.14,159.27z"/>
						<path class="st4" d="M331.5,148.46c1.39-2.77,2.21-4.66,3.52-5.14c1.41-0.52,3.31-1.23,4.13-1.75
							c0.82-0.51,1.68-1.73,1.77-2.73c0.18-2.02-3.52-0.67-6.29-0.15c-2.2,0.41-3.36,1.21-4.33,2.13c-1.2,1.15-5.29,5.24-5.29,5.24
							L331.5,148.46z"/>
					</g>
				</g>
			</g>
		</g>
		<path class="st9" d="M316.98,159.42l3.26-15.51c0,0-50.4-5.52-54.7-6.05c-4.3-0.53-11.43,5.1-12.34,10.78
			c-0.91,5.68-0.18,10.29,5.66,11.54C264.7,161.45,316.98,159.42,316.98,159.42z"/>
	</g>
	<g id="man">
		<path class="st16" d="M345.04,158.26c-1.26-1.82-2.96-7.44-2.48-10.48c0.48-3.03,17.22-34.61,17.22-34.61s14.59,6.53,14.39,13.04
			c0,0-16.59,32.02-18.04,32.65C354.68,159.49,346.37,160.18,345.04,158.26z"/>
		<path class="st17" d="M375.96,90.86c-3.05,0.97-7.53,2.36-8.52,4.31c-1,1.95-13.94,27.05-19.67,38.37
			c2.78,7.5,10.29,12.92,17.85,15.58c6.91-7.89,10.66-21.9,15.11-31.4l5.45-26.78C386.18,90.94,379.17,89.84,375.96,90.86z"/>
		<g>
			<g>
				<rect x="397" y="68.06" class="st4" width="20.11" height="23.92"/>
				<path class="st18" d="M417.11,68.06v7.36c-5,4.05-11.76,6.78-20.11,7.36V68.06H417.11z"/>
			</g>
		</g>
		<g>
			<g>
				<g>
					<path class="st4" d="M418.2,64.61c0.89,0.25,1.87,0.06,2.69-0.35c0.83-0.41,1.52-1.02,2.18-1.65c1.73-1.67,3.34-3.77,3.22-6.13
						c-0.04-0.79-0.31-1.61-0.92-2.13c-0.73-0.62-1.85-0.69-2.76-0.35c-0.91,0.35-1.62,1.06-2.15,1.85L418.2,64.61z"/>
					<path class="st4" d="M396.54,64.61c-0.89,0.25-1.87,0.06-2.69-0.35c-0.83-0.41-1.52-1.02-2.18-1.65
						c-1.73-1.67-3.34-3.77-3.22-6.13c0.04-0.79,0.31-1.61,0.92-2.13c0.73-0.62,1.85-0.69,2.76-0.35c0.91,0.35,1.62,1.06,2.15,1.85
						L396.54,64.61z"/>
				</g>
				<path class="st4" d="M421.74,65.75c0.69-7.37,2.61-11.67,3.8-15.93c0.85-3.19,1.71-8.64-2-13.45
					c-3.67-4.99-12.87-7.83-21.29-5.44c-8.48,2.39-13.19,7.35-12.16,13c0.52,3.38,1.01,8.06,1.57,11.55
					c0.47,2.9-0.41,5.81,0.66,8.63c2,4.86,9.71,13.39,15.79,13.39C413.07,77.49,421.27,68.97,421.74,65.75z"/>
			</g>
			<path class="st6" d="M408.94,59.9c-0.05,0.15-0.11,0.28-0.18,0.41c-0.07,0.13-0.15,0.27-0.28,0.34
				c-0.12,0.07-0.31,0.02-0.46-0.19c-0.07-0.1-0.12-0.24-0.15-0.41c-0.02-0.16,0-0.34,0.06-0.51c0.06-0.17,0.16-0.32,0.28-0.43
				c0.12-0.11,0.24-0.19,0.37-0.22c0.24-0.07,0.42,0.02,0.47,0.15c0.06,0.14,0.03,0.29,0,0.44
				C409.03,59.62,408.99,59.76,408.94,59.9z"/>
			<path class="st5" d="M407.4,60.4c-0.02-0.1-0.04-0.19-0.06-0.27c-0.01-0.08-0.03-0.15-0.04-0.22c-0.01-0.07-0.01-0.16-0.01-0.25
				c0-0.09,0.01-0.2,0.03-0.3c0.03-0.21,0.06-0.43,0.05-0.62c-0.01-0.19-0.06-0.34-0.17-0.43c-0.11-0.09-0.21-0.09-0.32-0.01
				c-0.11,0.08-0.24,0.23-0.36,0.46c-0.12,0.22-0.26,0.54-0.29,0.91c-0.02,0.18,0,0.38,0.04,0.57c0.04,0.19,0.11,0.36,0.19,0.53
				c0.08,0.17,0.17,0.31,0.27,0.45c0.1,0.14,0.2,0.26,0.3,0.36c0.2,0.21,0.39,0.38,0.54,0.5c0.31,0.24,0.5,0.33,0.61,0.16
				c0.1-0.16,0.09-0.35-0.08-0.63c-0.08-0.14-0.21-0.3-0.34-0.5c-0.07-0.1-0.14-0.2-0.2-0.32C407.48,60.66,407.43,60.53,407.4,60.4z
				"/>
			<g>
				<path class="st19" d="M413.87,49.97c0.91-0.14,1.83-0.09,2.71,0.14c0.89,0.23,2.8,2.65,2.02,2.35
					c-0.78-0.31-1.56-0.56-2.34-0.77c-0.79-0.2-1.59-0.35-2.41-0.45C413.03,51.13,412.97,50.11,413.87,49.97z"/>
				<path class="st19" d="M400.48,50.11c-0.91,0.04-1.81,0.26-2.64,0.66c-0.83,0.39-2.25,3.14-1.54,2.69
					c0.71-0.45,1.42-0.85,2.16-1.2c0.74-0.35,1.49-0.65,2.28-0.91C401.53,51.08,401.4,50.07,400.48,50.11z"/>
				<g>
					<g>
						<path class="st19" d="M401.57,57.95l-0.01-1.96c-0.01-0.94-0.78-1.71-1.72-1.7l0,0c-0.94,0.01-1.71,0.78-1.71,1.72l0.01,1.96
							c0,0.44,0.91-0.74,1.71-0.72C400.76,57.28,401.57,58.45,401.57,57.95z"/>
					</g>
					<g>
						<path class="st19" d="M413.35,57.95l0.01-1.96c0.01-0.94,0.78-1.71,1.72-1.7l0,0c0.94,0.01,1.71,0.78,1.7,1.72l-0.01,1.96
							c0,0.47-0.85-0.75-1.71-0.75C414.21,57.21,413.35,58.42,413.35,57.95z"/>
					</g>
				</g>
			</g>
			<path class="st20" d="M404.34,64.23c1.37,2,4.07,2.79,6.31,1.87c0.2-0.08,0.25-0.37,0.15-0.54c-0.12-0.21-0.34-0.24-0.54-0.15
				c-1.81,0.75-4.12,0.05-5.22-1.57C404.74,63.41,404.04,63.8,404.34,64.23L404.34,64.23z"/>
		</g>
		<path class="st4" d="M448.02,158.78c2.08-0.62,5.06-2.82,5.76-5.76c0.7-2.93-3.11-42.81-3.11-42.81s-15.69,0.46-17.95,6.44
			c0,0,7.11,34.99,7.72,36.41C441.06,154.5,445.68,159.47,448.02,158.78z"/>
		<path class="st17" d="M445.05,93.2c1.91,1.61,5.19,4.91,5.33,6.61c0.14,1.7,3.61,25.13,4.37,35.02
			c-4.25,4.6-12.91,4.88-19.17,4.54c-2.64-7.77-5.73-26.19-5.73-26.19l8.36-21.8C438.2,91.39,443.03,91.5,445.05,93.2z"/>
		<g>
			<g>
				<path class="st11" d="M462.55,344.14l-7.84-22.29h-9.23l0.99,22.29C446.47,344.14,464.29,349.1,462.55,344.14z"/>
				<path class="st9" d="M441.91,353.8c0,0,0.79-11.47,4.76-12.83l1.39-3.6c0,0,6.75-1.56,11.51,0l2.38,3.83
					c0,0,4.37,2.72,4.76,4.99c0.4,2.27,0.79,7.61,0.79,7.61H441.91z"/>
			</g>
			<path class="st21" d="M433.71,167.34c5.27,32.36,4.32,70.24,6.17,82.94c1.3,8.89-19.05,9.26-22.79,2.38
				c-2.16-3.97-6.02-32.68-6.9-35.39c-2.51-7.74-9.19-12.73-12.75-28.11v-21.81H433.71z"/>
			<g>
				<path class="st11" d="M382.99,353.48c4.17-1.99,7.84-4.1,8.88-6.24l0.46-18.95c0.16-1.41,0.47-3.13-0.91-3.32l-6.26-0.86
					c-1.23-0.17-2.37,0.6-2.7,1.82c-0.7,2.61-3.15,11.25-3.15,11.25c-4.07,4.02-8.15,8.03-12.22,12.05
					c-1.24,1.23-2.56,2.48-2.69,4.26C364.41,353.54,382.99,353.48,382.99,353.48z"/>
				<path class="st9" d="M392.21,333.3c-0.39-0.06,1.02,10.13-3.62,10.88c-0.3,0.05-0.6,0.07-0.9,0.08l-0.37-4.3
					c0,0-6.59-3.04-11.54-2.66l-1.14,2.35l-14.05,7.73c-1.16,1.15-2.92,2.88-3.08,5.27c-0.02,0.34,0.13,0.72,0.4,1.13h35.51
					C393.42,353.77,392.6,333.36,392.21,333.3z"/>
			</g>
			<path class="st21" d="M380.95,165.5c-5.39,32.36-2.72,92.01-1.33,100.78c1.41,8.88,20.14-5.78,20.75-14.73
				c0.22-3.22-0.65-6.42-0.65-9.64c-0.01-2.85,0.66-5.66,1.32-8.44c3.64-15.39,11.34-30.77,14.99-46.16V165.5H380.95z"/>
			<path class="st21" d="M376.26,332.47c-0.23-12.75-0.01-25.5,0.21-38.24c0.11-6.4,0.22-12.81,0.33-19.21
				c0.15-9.02,0.68-18.16,4-26.67c0.99-2.54,16.96-9.09,18.93-6.43c0,0,1.33,12.55,2.16,18.24c0.55,3.74,0.93,9.9,0.19,13.61
				c-3.85,19.27-5.84,38.49-8.76,58.7H376.26z"/>
			<path class="st21" d="M459.72,329.98c-2.7-12.46-6.46-28.71-9.58-41.07c-1.57-6.21-3.14-12.42-4.71-18.63
				c-2.21-8.75-3.89-18.82-9-26.36c-1.53-2.25-20.56-4.26-21.83-1.22c0,0,3.02,13.01,3.53,18.73c0.33,3.77,1.91,7.29,3.46,10.74
				c8.46,18.75,12.87,39.54,21.32,58.29L459.72,329.98z"/>
		</g>
		<path class="st17" d="M441.61,92.2l-22.94-9.65l-10.43,3.12h-1.75l-10.43-3.12l-22.94,9.65c-1.2,6.58,1.58,27.28,1.58,27.28
			c0.26,18.1,8.1,28.22,2.84,54.98c1.06,2.92,11.57,5.52,14.29,5.55c1.61,0.02,27.06,0,34.97-1.25c2.24-0.35,9.8-3.68,8.9-5.27
			c-5.26-26.76,4.1-35.91,4.36-54.02C440.03,119.47,442.8,98.78,441.61,92.2z"/>
		<g>
			<g>
				<g>
					<g>
						<path class="st22" d="M377.92,116.33c-2.42-0.1-4.86-0.29-7.26-0.57c-0.87-0.1-1.52-0.83-1.54-1.73
							c-0.27-9.59,0.07-21.07,0.58-28.99c0.07-1.09,0.95-1.98,2.01-2.04c2.9-0.16,5.83-0.18,8.71-0.06
							c2.88,0.11,5.79,0.37,8.65,0.75c1.04,0.14,1.79,1.1,1.7,2.18c-0.68,7.91-2.05,19.35-3.74,28.86c-0.16,0.89-0.91,1.57-1.79,1.6
							C382.79,116.42,380.33,116.42,377.92,116.33z"/>
						<path class="st23" d="M385.22,116.09c-4.87,0.19-9.72,0-14.53-0.58c-0.76-0.09-1.33-0.72-1.35-1.52
							c-0.24-8.77,0.03-20.41,0.58-28.97c0.06-0.97,0.84-1.76,1.79-1.81c5.81-0.31,11.59-0.08,17.32,0.69
							c0.93,0.12,1.59,0.97,1.51,1.94c-0.73,8.54-2.19,20.14-3.74,28.84C386.65,115.48,385.99,116.06,385.22,116.09z"/>
						<path class="st11" d="M378.2,110.65c-4.6-3.82-7.15-8.95-8.79-14.39c-0.17,5.87-0.24,11.78-0.07,17.75
							c0.02,0.79,0.59,1.43,1.35,1.52c4.82,0.57,9.66,0.76,14.53,0.58c0.77-0.03,1.43-0.62,1.57-1.4c0.09-0.5,0.17-0.99,0.26-1.48
							C383.98,113.39,380.95,112.72,378.2,110.65z"/>
					</g>
					<g>
						<path class="st11" d="M373.26,94.98L373.26,94.98c-0.66-0.06-1.16-0.69-1.11-1.4l0.47-6.24c0.05-0.71,0.64-1.24,1.3-1.19l0,0
							c0.66,0.06,1.16,0.69,1.11,1.4l-0.47,6.24C374.5,94.5,373.92,95.04,373.26,94.98z"/>
						<g>
							<path class="st24" d="M374.67,88.21c-0.04,0.53-0.47,0.93-0.97,0.88c-0.5-0.04-0.86-0.51-0.82-1.04
								c0.04-0.53,0.47-0.93,0.97-0.88C374.34,87.21,374.71,87.68,374.67,88.21z"/>
							<path class="st7" d="M373.71,89.03c-0.46-0.04-0.8-0.47-0.77-0.97c0.04-0.49,0.44-0.86,0.9-0.82
								c0.46,0.04,0.8,0.47,0.77,0.97C374.57,88.7,374.17,89.07,373.71,89.03z"/>
						</g>
						<g>
							<path class="st24" d="M374.49,90.65c-0.04,0.53-0.47,0.93-0.97,0.88c-0.5-0.04-0.86-0.51-0.82-1.04
								c0.04-0.53,0.47-0.93,0.97-0.88C374.16,89.65,374.53,90.11,374.49,90.65z"/>
							<path class="st7" d="M373.52,91.46c-0.46-0.04-0.8-0.47-0.77-0.97c0.04-0.49,0.44-0.86,0.9-0.82
								c0.46,0.04,0.8,0.47,0.77,0.97C374.39,91.13,373.98,91.5,373.52,91.46z"/>
						</g>
						<g>
							<path class="st24" d="M374.3,93.08c-0.04,0.53-0.47,0.93-0.97,0.88c-0.5-0.04-0.86-0.51-0.82-1.04s0.47-0.93,0.97-0.88
								C373.97,92.08,374.34,92.55,374.3,93.08z"/>
							<path class="st7" d="M373.34,93.89c-0.46-0.04-0.8-0.47-0.77-0.97s0.44-0.86,0.9-0.82c0.46,0.04,0.8,0.47,0.77,0.97
								C374.2,93.57,373.8,93.93,373.34,93.89z"/>
						</g>
					</g>
				</g>
				<g>
					<g>
						<path class="st4" d="M361.82,112.2c-1.43,5.51,5.96,8.96,8.9,7.24c1.93-1.13,1.12-5.01,2.55-10.52c0.6-2.31-2.08-8.1-2.3-8.91
							C370.98,100,363.26,106.68,361.82,112.2z"/>
					</g>
					<g>
						<path class="st4" d="M376.72,114.62c-0.36-0.13-1.75-0.02-2.16,0.45c-1.05,1.2-1.76,3.21-3.46,4.25
							c-0.56,0.34-1.32-0.05-1.85-0.49c-0.46-0.39-0.62-1.24-0.16-1.7c1.37-1.36,2.9-3.48,4.48-4.6c0.72-0.51,2.77-0.3,4.11-0.11
							c2.16,0.32,4.06,0.55,6.11,1.33c1.46,0.55-0.11,1.87-1.64,1.48C382.16,115.21,376.86,114.67,376.72,114.62z"/>
						<path class="st4" d="M367.5,103.41c1.14-1.91,5.07-5.44,6.93-6.82s8.51-3.66,10.44-4.45c1.92-0.79,2.34,2.06-0.2,3.16
							c-2.53,1.09-8.65,4.09-8.65,4.09s-3.57,5.05-4.25,6.31S366.36,105.32,367.5,103.41z"/>
						<path class="st4" d="M371.54,105.27l6.71-3.42c0,0,7.55-1.09,9.5-1.2c1.94-0.11,1.54,2.55-0.81,2.85
							c-2.36,0.3-8.16,1.41-8.16,1.41s-6.94,4.51-7.57,5.14C370.57,110.69,371.54,105.27,371.54,105.27z"/>
						<path class="st4" d="M370.28,110.63l6.26-3.99c0,0,6.64-0.82,8.58-0.93c1.94-0.11,1.54,2.55-0.81,2.85
							c-2.36,0.3-7.29,1.04-7.29,1.04s-6.12,4.67-6.75,5.31C369.64,115.54,370.28,110.63,370.28,110.63z"/>
					</g>
				</g>
			</g>
			<path class="st4" d="M341.36,149.48c-1.14,5.83,0.34,9.47,4.52,11.23c4.52,1.91,9.95,1.2,11.76-4.9
				c1.82-6.1,12.23-41.91,12.23-41.91s-4.46-4.71-6.73-2.95C361.89,111.92,342.34,144.47,341.36,149.48z"/>
		</g>
		<g>
			<g>
				<g>
					<path class="st25" d="M417.33,78.61l-9.97,7.06l3.88,0.79l3.11,16.1l8.58-13.5c1.04-1.63,0.82-3.76-0.52-5.16L417.33,78.61z"/>
				</g>
			</g>
			<g>
				<g>
					<path class="st25" d="M396.75,78.61l10.61,7.06l-3.88,0.79l-3.11,16.1l-8.66-13.63c-1-1.57-0.84-3.62,0.39-5.02L396.75,78.61z"
						/>
				</g>
			</g>
		</g>
		<g>
			<path class="st19" d="M426.63,46.49c0.39-2.1,0.56-4.22,0.22-6.32c-0.54-3.27-2.6-6.48-5.78-7.54c1.74-1.15,1.9-3.78,0.82-5.55
				c-1.08-1.77-3.03-2.82-4.98-3.57c-6.57-2.54-14.39-2.43-20.39,1.23c-5.98,3.64-9.34,12.25-7.96,17.78
				c1.38,5.53,1.99,8.41,5.8,8.19c3.38-0.19,6.37-2.18,8.94-4.35c2.57-2.17,6.43-6.07,9.48-7.53c2.4-1.15,5.37-1.54,7.79-0.58
				c2.81,6.09,2.09,13.06,2.38,20.26c0.86-2.62,2.14-5.81,2.87-8.54C426.12,48.83,426.41,47.66,426.63,46.49z"/>
			<path class="st19" d="M391.79,58.23L393.45,40c0,0-2.62-2.33-3.91-1.25C388.25,39.83,391.79,58.23,391.79,58.23z"/>
		</g>
		<g>
			<path class="st4" d="M445.73,145.55c-1.17-0.24-6.91,6.99-9.27,10.88s-12.02,33.81-12.02,33.81s3.93,4.24,7.23,3.8
				c0,0,21.59-35.49,22.1-39.61C454.79,146.15,446.89,145.79,445.73,145.55z"/>
			<path class="st4" d="M426.62,185.02c0,0-5.88,0.3-6.03,3.14c-0.15,2.84,8.12,10.96,11.19,9.43c3.07-1.53,2.31-6.43,1.23-8.43
				C431.94,187.17,429,184.67,426.62,185.02z"/>
		</g>
	</g>
	<g id="woman">
		<path class="st26" d="M224.38,70.36c4.41,13.42,4.34,28.46-1.85,41.16c-2.03,4.17-5.23,8.46-9.84,8.97
			c-2.61,0.29-5.17-0.71-7.61-1.69c-8.55-3.44-17.21-6.94-24.66-12.36c-3.19-2.32-6.41-5.61-6.04-9.54
			c0.22-2.38,1.77-4.45,3.56-6.03c1.79-1.59,3.86-2.83,5.65-4.41c8.2-7.28,8.17-21.33,16.99-27.84
			C202.98,56.83,222.95,66,224.38,70.36z"/>
		<path class="st16" d="M146.93,147.2c-0.8-1.53-1.59-6.06-0.92-8.36c0.66-2.31,16.66-25.21,16.66-25.21s10.69,6.46,9.92,11.49
			c0,0-16.72,22.32-17.81,22.9C152.35,149.32,147.78,148.82,146.93,147.2z"/>
		<path class="st27" d="M177.12,97.93c-2.46,0.46-6.93,1.72-7.89,3.13c-0.96,1.41-12.12,17.44-17.64,25.67
			c1.44,6.09,7.25,8.37,12.86,11.15c6.11-5.47,9.67-11.79,14.03-18.73l6.21-18.65C184.7,100.52,179.71,97.44,177.12,97.93z"/>
		<g>
			<path class="st16" d="M151.69,136.19c-0.91-0.36-5.68,2.65-9.01,6.63c-2.41,2.88-12.64,27.97-12.64,27.97s0,4.04,1.6,5.58
				c0,0,21.44-23.1,23.9-28.7C156.91,144.52,152.6,136.55,151.69,136.19z"/>
			<path class="st16" d="M124.77,171.61c0,0-4.52,0.69-6.47,0.43c-1.95-0.27-0.64,2.54,1.3,2.94c1.94,0.39,2.48,0.99,4.68,2.43
				c2.19,1.44,5.75,2.92,6.83,2.52s2.77-5.94,3.52-7.59s-1.09-4.65-2.79-4.04S126.32,171.4,124.77,171.61z"/>
			<g>
				<path class="st28" d="M141.19,137.19l-2.33-2.92l-34.97,18.46l5.67,0.89C109.57,153.62,121.73,154.94,141.19,137.19z"/>
				<polygon class="st28" points="140.44,191.39 134.42,189.92 103.9,152.73 110.15,153.55 				"/>
				<polygon class="st29" points="121.18,168.83 109.95,154.8 106.04,154.28 118.43,169.39 				"/>
				<path class="st30" d="M109.78,153.5c0,0,16.82-11.71,32.25-18.5l23.05,43.12l-24.64,13.28L109.78,153.5z"/>
			</g>
			<g>
				<path class="st16" d="M124.81,173.28c0,0-0.96,0.86-3.98,3.33c-3.02,2.47-0.53,4.23,1.21,2.81c1.74-1.42,4.12-4.34,5.35-5.43
					C128.62,172.91,126.46,171.87,124.81,173.28z"/>
				<path class="st18" d="M120.74,179.93c0.39-0.02,0.76-0.16,1.07-0.38c0.16-0.11,0.3-0.24,0.44-0.37
					c0.15-0.13,0.28-0.26,0.42-0.39c0.56-0.53,1.09-1.09,1.61-1.66l1.57-1.71c0.26-0.28,0.53-0.57,0.8-0.84
					c0.13-0.14,0.27-0.28,0.41-0.41c0.14-0.14,0.29-0.26,0.41-0.4c0.06-0.07,0.11-0.14,0.14-0.22c0.03-0.08,0.05-0.16,0.05-0.24
					c-0.01-0.16-0.12-0.31-0.27-0.41c-0.3-0.2-0.69-0.25-1.06-0.22c-0.37,0.03-0.74,0.16-1.06,0.35c-0.16,0.09-0.31,0.21-0.46,0.33
					l-0.44,0.38c-1.18,0.99-2.39,1.96-3.6,2.92l1.76-1.51c0.59-0.5,1.18-1,1.76-1.51l0.43-0.38c0.15-0.13,0.31-0.25,0.48-0.35
					c0.34-0.2,0.72-0.34,1.12-0.37c0.39-0.03,0.82,0.01,1.17,0.24c0.17,0.11,0.32,0.3,0.34,0.53c0.01,0.11-0.02,0.22-0.06,0.32
					c-0.05,0.1-0.1,0.19-0.17,0.26c-0.14,0.16-0.29,0.27-0.42,0.41c-0.14,0.13-0.28,0.27-0.41,0.41c-0.27,0.27-0.53,0.55-0.8,0.84
					c-0.53,0.56-1.05,1.13-1.58,1.69c-0.54,0.56-1.08,1.11-1.65,1.63c-0.15,0.13-0.29,0.26-0.44,0.38
					c-0.15,0.12-0.29,0.25-0.46,0.35C121.52,179.8,121.13,179.93,120.74,179.93z"/>
			</g>
			<g>
				<path class="st16" d="M125.86,175.06c0,0-0.79,1.02-3.33,3.99c-2.54,2.97,0.26,4.32,1.73,2.61c1.47-1.71,3.28-5.02,4.3-6.31
					C129.58,174.07,127.24,173.38,125.86,175.06z"/>
				<path class="st18" d="M122.02,182.2c0.36,0.22,0.82,0.24,1.21,0.12c0.4-0.12,0.74-0.38,1.01-0.7c0.53-0.65,1.01-1.34,1.47-2.05
					c0.46-0.71,0.91-1.42,1.35-2.13c0.45-0.71,0.89-1.43,1.41-2.11c0.13-0.16,0.24-0.33,0.26-0.52c0.01-0.09,0-0.18-0.03-0.26
					c-0.04-0.08-0.1-0.15-0.17-0.21c-0.15-0.12-0.35-0.17-0.54-0.2c-0.2-0.02-0.4-0.01-0.6,0.04c-0.4,0.09-0.77,0.28-1.08,0.55
					c-0.16,0.13-0.3,0.28-0.43,0.44l-0.4,0.49c-0.54,0.65-1.09,1.29-1.63,1.93l-0.83,0.95l-0.42,0.47c-0.14,0.16-0.27,0.32-0.4,0.49
					c0.13-0.17,0.25-0.34,0.38-0.5l0.4-0.49l0.8-0.98c0.54-0.65,1.07-1.3,1.6-1.95l0.39-0.49c0.13-0.17,0.28-0.33,0.44-0.47
					c0.33-0.28,0.72-0.49,1.15-0.58c0.21-0.05,0.43-0.06,0.65-0.04c0.22,0.03,0.44,0.08,0.63,0.23c0.09,0.07,0.17,0.16,0.22,0.27
					c0.05,0.11,0.06,0.24,0.05,0.35c-0.03,0.24-0.16,0.43-0.29,0.6c-0.51,0.66-0.95,1.38-1.41,2.08c-0.45,0.71-0.9,1.42-1.38,2.12
					c-0.47,0.7-0.96,1.39-1.51,2.03c-0.28,0.32-0.65,0.57-1.06,0.69C122.83,182.48,122.37,182.44,122.02,182.2z"/>
			</g>
			<g>
				<path class="st16" d="M128.26,176.26c0,0-0.73,1.02-3.09,4c-2.35,2.98,0.38,4.13,1.74,2.42c1.36-1.72,3.01-4.99,3.95-6.28
					C131.81,175.11,129.54,174.57,128.26,176.26z"/>
				<path class="st18" d="M125.79,183.43c0.36-0.1,0.69-0.31,0.94-0.58c0.13-0.13,0.23-0.29,0.35-0.44
					c0.11-0.15,0.21-0.31,0.32-0.46c0.42-0.62,0.81-1.27,1.18-1.91l1.13-1.95c0.19-0.32,0.38-0.65,0.58-0.97
					c0.1-0.16,0.2-0.32,0.3-0.48c0.1-0.16,0.23-0.31,0.31-0.46c0.04-0.08,0.07-0.16,0.09-0.24c0.01-0.08,0.01-0.16-0.01-0.24
					c-0.05-0.15-0.18-0.27-0.34-0.33c-0.32-0.13-0.71-0.1-1.05,0.01c-0.35,0.11-0.67,0.3-0.94,0.55c-0.14,0.12-0.25,0.26-0.37,0.41
					l-0.34,0.45c-0.92,1.19-1.86,2.36-2.81,3.52l1.36-1.8c0.45-0.6,0.91-1.2,1.35-1.8l0.33-0.45c0.12-0.15,0.24-0.3,0.38-0.43
					c0.28-0.26,0.62-0.47,0.99-0.59c0.37-0.11,0.78-0.16,1.16-0.01c0.19,0.07,0.37,0.22,0.43,0.43c0.03,0.11,0.03,0.21,0.01,0.32
					c-0.02,0.1-0.06,0.2-0.11,0.29c-0.1,0.18-0.22,0.32-0.32,0.48c-0.1,0.16-0.21,0.31-0.31,0.47c-0.2,0.32-0.39,0.64-0.58,0.96
					c-0.38,0.65-0.76,1.3-1.15,1.94c-0.39,0.64-0.79,1.28-1.23,1.89c-0.11,0.15-0.22,0.31-0.34,0.45c-0.12,0.15-0.23,0.3-0.36,0.43
					C126.49,183.15,126.16,183.35,125.79,183.43z"/>
			</g>
			<g>
				<path class="st16" d="M130.04,178.04c0,0-0.64,0.94-2.7,3.68c-2.06,2.74,0.47,3.78,1.66,2.2c1.19-1.58,2.6-4.58,3.43-5.76
					C133.25,176.97,131.16,176.49,130.04,178.04z"/>
				<path class="st18" d="M127.06,184.51c0.33,0.17,0.73,0.16,1.07,0.04c0.34-0.13,0.63-0.37,0.85-0.67
					c0.43-0.6,0.81-1.23,1.17-1.87c0.36-0.64,0.72-1.29,1.07-1.94c0.36-0.65,0.7-1.3,1.12-1.92c0.1-0.15,0.19-0.3,0.2-0.47
					c0-0.08-0.01-0.16-0.04-0.23c-0.04-0.07-0.09-0.13-0.16-0.17c-0.14-0.09-0.31-0.13-0.49-0.14c-0.18-0.01-0.35,0.02-0.53,0.07
					c-0.34,0.1-0.66,0.29-0.92,0.54c-0.13,0.12-0.24,0.26-0.35,0.41l-0.33,0.45c-0.44,0.6-0.88,1.19-1.33,1.78l-0.68,0.88
					l-0.34,0.44c-0.11,0.15-0.22,0.3-0.32,0.45c0.1-0.15,0.2-0.31,0.31-0.46l0.33-0.45l0.65-0.9c0.43-0.6,0.87-1.2,1.29-1.8
					l0.32-0.45c0.1-0.15,0.23-0.3,0.36-0.43c0.27-0.26,0.6-0.47,0.97-0.58c0.18-0.05,0.38-0.08,0.57-0.07
					c0.19,0.01,0.39,0.05,0.56,0.16c0.08,0.06,0.16,0.13,0.21,0.23c0.05,0.09,0.07,0.2,0.06,0.31c-0.01,0.21-0.12,0.39-0.22,0.54
					c-0.41,0.61-0.76,1.26-1.12,1.9c-0.36,0.65-0.71,1.3-1.09,1.93c-0.38,0.64-0.77,1.27-1.22,1.86c-0.23,0.3-0.54,0.54-0.89,0.66
					C127.79,184.71,127.38,184.7,127.06,184.51z"/>
			</g>
		</g>
		<path class="st27" d="M170.62,119.49c2.4-1.55,10.37-20.26,10.37-20.26l18.5,2.94l21.4,6.35c0,0-4.98,19.71-3.54,22.18
			c5.14,8.84-4.72,15.49-8.32,18.97c-6.45,10.96-8.1,22.14-10.8,33.06c-6.21-0.4-11.85-1.25-17.49-2.42
			c-5.56-1.51-10.97-3.32-16.68-5.78c2.56-10.95,6.15-21.66,5.38-34.36C167.8,135.44,162.03,125.03,170.62,119.49z"/>
		<g>
			<g>
				<g>
					<path class="st16" d="M202.79,112.37l-9.13-2.19c-2.85-0.68-4.6-3.54-3.92-6.39l4.31-17.97l19.44,4.66l-4.31,17.97
						C208.5,111.3,205.64,113.06,202.79,112.37z"/>
					<path class="st18" d="M194.06,85.82l-1.71,7.11c3.9,5.07,9.8,9.28,17.73,11.77l3.41-14.22L194.06,85.82z"/>
				</g>
			</g>
		</g>
		<path class="st16" d="M260.05,128.69c-0.32-1.7-2.51-5.74-4.46-7.14c-1.95-1.4-28.7-9.45-28.7-9.45s-4.38,11.7-0.66,15.17
			c0,0,24.78,9.35,28.06,7.91C258.24,133.45,260.39,130.48,260.05,128.69z"/>
		<path class="st27" d="M212.44,109.61c1.3-2.13,4.89-2.35,6.53-1.88c1.79,0.52,13.66,3.66,23.99,8.1
			c1.72,6.02-1.73,13.88-5.26,19.05c-7.58-1.69-18.65-3.86-27.38-5.14C210.31,129.74,211.12,111.77,212.44,109.61z"/>
		<g>
			<g>
				<g>
					<path class="st16" d="M197.01,86.51c-0.88-0.11-1.68-0.65-2.25-1.32c-0.58-0.67-0.96-1.47-1.31-2.28
						c-0.9-2.13-1.54-4.59-0.54-6.63c0.33-0.68,0.88-1.3,1.62-1.53c0.88-0.27,1.9,0.08,2.57,0.73c0.67,0.65,1.04,1.55,1.2,2.44
						L197.01,86.51z"/>
					<path class="st16" d="M216.17,94.66c0.69,0.56,1.63,0.76,2.51,0.71c0.88-0.05,1.73-0.33,2.55-0.64
						c2.16-0.82,4.38-2.08,5.15-4.21c0.26-0.71,0.33-1.54-0.02-2.23c-0.42-0.82-1.38-1.31-2.31-1.34c-0.93-0.03-1.83,0.33-2.59,0.83
						L216.17,94.66z"/>
				</g>
				<path class="st16" d="M194.01,84.87c2.05-6.51,1.9-10.87,2.38-14.93c0.4-3.02,1.6-7.97,6.62-10.64c5.04-2.85,14.2-1.79,20.8,3.4
					c6.64,5.22,10.07,13.17,7.12,17.57c-1.68,2.67-4.84,4.47-6.6,7.22c-1.46,2.28-1.73,5.08-3.69,7.07
					c-3.52,3.37-13.42,7.69-18.79,5.4C197.45,98.08,193.27,87.77,194.01,84.87z"/>
			</g>
			<path class="st7" d="M207.26,77c-0.62-0.43-1.31-0.76-2.04-0.97c-0.73-0.21-1.49-0.3-2.24-0.26c-0.75,0.04-1.5,0.21-2.16,0.56
				c0.74,0.1,1.44,0.18,2.11,0.31c0.68,0.12,1.33,0.27,1.98,0.46c0.65,0.19,1.29,0.41,1.92,0.67
				C207.48,78.02,207.87,77.44,207.26,77z"/>
			<path class="st7" d="M216.32,80.72c0.74,0.16,1.45,0.44,2.1,0.84c0.65,0.39,1.23,0.89,1.72,1.47c0.48,0.58,0.86,1.24,1.05,1.97
				c-0.58-0.48-1.11-0.93-1.66-1.34c-0.55-0.42-1.11-0.79-1.68-1.14c-0.58-0.35-1.17-0.67-1.8-0.96
				C215.43,81.25,215.59,80.57,216.32,80.72z"/>
			<path class="st6" d="M206.97,85.83c-0.01,0.15-0.01,0.29,0.01,0.43c0.02,0.14,0.03,0.29,0.12,0.4c0.09,0.11,0.27,0.13,0.48,0
				c0.1-0.06,0.2-0.17,0.28-0.3c0.08-0.14,0.13-0.3,0.14-0.48c0.01-0.18-0.02-0.35-0.08-0.49c-0.06-0.14-0.15-0.26-0.24-0.33
				c-0.19-0.15-0.38-0.14-0.47-0.05c-0.1,0.1-0.13,0.25-0.17,0.39C207,85.55,206.97,85.68,206.97,85.83z"/>
			<path class="st5" d="M208.14,86.86c0.06-0.08,0.11-0.15,0.16-0.22c0.04-0.07,0.08-0.12,0.12-0.18c0.04-0.06,0.07-0.13,0.1-0.22
				c0.03-0.08,0.06-0.18,0.09-0.28c0.06-0.2,0.11-0.41,0.19-0.57c0.08-0.16,0.18-0.28,0.31-0.32c0.13-0.04,0.22,0,0.29,0.11
				c0.07,0.11,0.12,0.29,0.15,0.54c0.03,0.25,0.03,0.57-0.08,0.91c-0.05,0.17-0.14,0.34-0.25,0.49c-0.11,0.15-0.23,0.28-0.36,0.39
				c-0.13,0.12-0.27,0.21-0.41,0.3c-0.14,0.08-0.27,0.15-0.4,0.21c-0.26,0.11-0.48,0.19-0.67,0.24c-0.37,0.1-0.57,0.1-0.6-0.08
				c-0.03-0.18,0.05-0.34,0.31-0.53c0.13-0.09,0.3-0.19,0.49-0.31c0.1-0.06,0.2-0.13,0.29-0.21
				C207.97,87.05,208.07,86.96,208.14,86.86z"/>
			<g>
				<path class="st7" d="M205.37,81.87c0.39-0.92-0.32-2.84-1.35-3.28l0,0c-0.86-0.36-1.86,0.05-2.21,0.91l-0.31,0.75
					c-0.18,0.43,1.11-0.77,2.08-0.36C204.54,80.3,205.18,82.33,205.37,81.87z"/>
				<path class="st7" d="M204.36,78.8c0,0-1.02-0.71-2.28-0.45c-1.26,0.26-1.78-0.4-1.78-0.4s0.48,1.12,1.65,1.07
					c1.17-0.05,1.56,0.35,1.56,0.35L204.36,78.8z"/>
			</g>
			<g>
				<path class="st7" d="M214.02,85.55c0.39-0.92,2.27-1.74,3.3-1.3l0,0c0.85,0.37,1.25,1.37,0.88,2.22l-0.32,0.74
					c-0.18,0.42-0.62-1.25-1.58-1.65C215.32,85.15,213.82,86.01,214.02,85.55z"/>
				<path class="st7" d="M216.93,84.14c0,0,1.22,0.24,1.91,1.33c0.69,1.09,1.52,1.01,1.52,1.01s-1.14,0.43-1.92-0.45
					c-0.78-0.88-1.34-0.88-1.34-0.88L216.93,84.14z"/>
			</g>
			<path class="st8" d="M209.81,92.08c-3.05-0.02-5.93-1.8-7.38-4.46c-0.22-0.41,0.45-0.68,0.68-0.27c1.33,2.45,4.03,4,6.8,4.01
				c0.2,0,0.33,0.23,0.31,0.41C210.19,91.98,210,92.08,209.81,92.08L209.81,92.08z"/>
			<path class="st26" d="M200.07,66.6c0.19-0.37,0.32-0.6,0.39-0.64c0.66-0.34-1.85,6.44-1.85,6.44
				c7.32,2.29,25.01,11.01,25.01,11.01l3.55-6.19c0.61,1.94-6.13,15.87-6.13,15.87c3.88-4.13,9.89-11.74,12.37-16.64
				c1.4-2.77-0.06-5.67-1.75-6.8c0.89-5.15-2.33-8.5-6.5-11.91c-4.86-3.97-11.89-4.91-17.77-2.89c-5.89,2.02-10.02,5.3-11.29,11.32
				c-1.32,6.28-3.78,10.76-2.7,16.85C193.41,83.03,198.51,69.7,200.07,66.6z"/>
		</g>
		<path class="st26" d="M226.15,73.64c1.04,9.01-0.39,18.16-2.84,26.9c-1.43,5.11-3.39,10.4-7.49,13.77
			c-2.69,2.21-6.54,3.23-9.85,2.53c2.29,2.07,5.3,3.35,8.39,3.45c4.11,0.14,8.23-1.77,10.77-5.01c2.59-3.31,3.44-7.62,4.2-11.76
			c1.19-6.4,2.37-12.81,3.56-19.21c0.73-3.91,1.96-8.3,0.66-12.28C232.92,70.09,226.15,73.64,226.15,73.64z"/>
		<g>
			<path class="st31" d="M208.88,301.06c-0.15,12.12-0.29,24.28-0.23,27.16l-6.67,0.3c-1.24-8.24-2.87-18.05-4.51-27.45H208.88z"/>
			<g>
				<path class="st32" d="M199.81,328.76c0.04-3.66,2.37-4.42,2.37-4.42l7.66,3c0,0,12.08,25.88,10.18,26.45l-13.09-0.01
					c-3.93,0.09-2.91-6.15-4.43-9.46l0.07,9.54h-1.71l-0.8-13.29c-0.13-0.47-0.22-0.87-0.26-1.16
					C199.62,337.85,199.75,333.65,199.81,328.76z"/>
				<path class="st31" d="M208.59,323.62c0.67,1.87,3.53,9.11,4.27,11.41c0.57,1.78,1.86,5.78,2.7,8.39
					c0.4,1.23-0.49,2.49-1.78,2.54l-8.08,0.17l-4.25-20.2c-0.07-0.6-0.12-3.67,1.17-4.44S207.92,321.75,208.59,323.62z"/>
			</g>
		</g>
		<g>
			<path class="st31" d="M137.07,285.62l6.88,5.82c-6.41,6.8-12.75,13.63-14.81,15.77l-5.31-4.1
				C129.06,297.99,133.36,291.88,137.07,285.62z"/>
			<g>
				<path class="st32" d="M124.75,300.44c0,0-15.17,10.71-17.57,12.54s-4.31,5.73-4.25,7.23l9.95,8.43
					c2.01,0.89,17.1-22.37,17.1-22.37L124.75,300.44z"/>
				<path class="st31" d="M132.64,303.27c-1.31,1.54-6.14,7.68-7.8,9.52c-2,2.21-7.84,8.68-7.84,8.68s-6.17-4.52-6.3-5.83
					c-0.36-3.7,4.05-7.07,4.05-7.07l10.21-8.55c0.52-0.4,3.47-2.25,5.19-1.87C131.88,298.53,133.95,301.73,132.64,303.27z"/>
			</g>
		</g>
		<path class="st33" d="M201.71,169.34c0,0,10.31,28.84,10.22,34.08c-0.09,5.24,0,42.91,0,42.91s-14.96,12.42-20.78,3.75
			c-3.14-4.67-3.18-44.11-3.18-44.11l-9.24-4.18l1.8-33.21L201.71,169.34z"/>
		<path class="st33" d="M212.29,319.78c0,0-14.08,4.52-15.15,0c-1.07-4.52-3.27-47-4.55-56.31c-1.28-9.31-3.48-21.2-2.73-25.46
			c0.75-4.26,21.09-3.3,21.58,2.51c0.49,5.81,2.34,15.93,2.27,21.57C213.64,267.74,212.29,319.78,212.29,319.78z"/>
		<path class="st33" d="M166.23,165.07c0,0-12.02,24.98-11.38,30.22c0.64,5.24,6.28,51.09,6.28,51.09s16.26,12.42,21.17,3.75
			c2.65-4.67-1.77-50.05-1.77-50.05l7.15,0.06v-31.03L166.23,165.07z"/>
		<path class="st33" d="M123.74,296.95c0,0,8.4,12.6,11.56,9.79c3.16-2.81,27.56-31.86,33.37-38.25
			c5.81-6.39,13.51-14.27,14.19-21.5c0.58-6.15-13.91-15.15-17.31-10.96c-3.39,4.19-10.06,10.84-12.94,15.26
			C149.74,255.71,123.74,296.95,123.74,296.95z"/>
		<g>
			<path class="st16" d="M245.04,131.83c0.16,1.02,7.43,4.93,11.6,5.66c4.17,0.72,34.51-0.52,34.51-0.52s6.59-2.42,4.97-5.18
				c-1.62-2.76-37.63-8.27-43.2-7.93C249.06,124.08,244.88,130.81,245.04,131.83z"/>
		</g>
	</g>
	<g id="using_laptop">
		<g id="chair_1_">
			<g>
				
					<rect x="236.53" y="251.9" transform="matrix(-1 -1.224647e-16 1.224647e-16 -1 554.0958 510.4038)" class="st23" width="81.03" height="6.61"/>
				<g>
					<polygon class="st0" points="296.91,257.17 308.12,257.17 320.24,353.63 318.12,353.63 					"/>
					<polygon class="st0" points="255.61,257.17 244.39,257.17 232.27,353.63 234.39,353.63 					"/>
				</g>
			</g>
			<path class="st34" d="M235.1,255.53h82.31c1.83,0,3.33-1.5,3.33-3.33v0c0-1.83-1.5-3.33-3.33-3.33H235.1
				c-1.83,0-3.33,1.5-3.33,3.33v0C231.78,254.03,233.28,255.53,235.1,255.53z"/>
			<path class="st35" d="M276.26,248.34L276.26,248.34c20.38,0,37.06-16.68,37.06-37.06v-19.71c0-20.38-16.68-37.06-37.06-37.06h0
				c-20.38,0-37.06,16.68-37.06,37.06v19.71C239.19,231.66,255.87,248.34,276.26,248.34z"/>
			<path class="st24" d="M310.68,210.97v-19.1c0-19.01-15.41-34.42-34.42-34.42h0c-19.01,0-34.42,15.41-34.42,34.42v19.1
				c0,19.01,15.41,34.42,34.42,34.42h0C295.27,245.39,310.68,229.98,310.68,210.97z"/>
			<path class="st24" d="M232.58,251.1h87.36c0.44,0,0.8-0.43,0.8-0.96v-1.26c0-0.53-5.32-2.22-5.71-2.22h-77.54
				c-0.39,0-5.71,1.69-5.71,2.22v1.26C231.78,250.67,232.14,251.1,232.58,251.1z"/>
			<path class="st35" d="M232.58,249.84h87.36c0.44,0,0.8-0.43,0.8-0.96l0,0c0-0.53-5.32-3.48-5.71-3.48h-77.54
				c-0.39,0-5.71,2.96-5.71,3.48l0,0C231.78,249.4,232.14,249.84,232.58,249.84z"/>
		</g>
		<g>
			<g>
				<path class="st36" d="M260.2,96.65c-6.27,15.76-9.42,34.1-13.91,52.12c12.42,5.57,25.71,9.22,39.24,10.77
					c3.79-15.92,7.42-33.99,9.69-50.17c0,0-2.74-11.6-13.22-13.58C271.52,93.81,260.2,96.65,260.2,96.65z"/>
			</g>
			<path class="st4" d="M323.48,199.08c1.16-1.59,1.58-5.45,1.22-8.16c-0.36-2.71-14.52-33.44-14.52-33.44s-13.13,5.49-13.1,11.3
				c0,0,14.33,28.48,15.34,29.46C318.58,204.17,322.25,200.76,323.48,199.08z"/>
			<path class="st37" d="M297.57,138.71c3.17,0.56,6.12,2.52,6.91,4.16c0.79,1.64,13.5,24.77,18.02,34.28
				c-5.19,5.64-11.28,8.5-17.61,10.56c0,0-5.68-17.42-9.19-25.39l-6.63-24.23C289.06,138.09,294.81,138.22,297.57,138.71z"/>
			<g>
				<g>
					<path class="st16" d="M250.49,242.47c-0.59-8.33-1.59-14.48,6.54-14.76c5.5-0.19,8.85,0.4,10.11,5.5c0,0,0.77,26.54,1.59,41.14
						c0.74,13.19,2.88,35.61,4.84,53.32l-6.94,2.08c-1.31-5.49-12.01-44.01-14.65-53.86C245.76,252.65,251.05,250.26,250.49,242.47z
						"/>
					<g>
						<path class="st38" d="M276.53,329.07c-0.31-3.76-2.75-4.54-2.75-4.54l-7.65,3.09c0,0-11.13,26.21-9.14,26.8l14.03,0.38
							c4.04,0.09,2.55-6.32,3.87-9.72l0.61,9.81h1.76l-0.14-13.66c0.1-0.48,0.16-0.89,0.18-1.19
							C277.38,338.41,276.94,334.1,276.53,329.07z"/>
						<path class="st16" d="M267.14,323.79c-0.55,1.93-2.98,9.36-3.57,11.73c-0.48,1.92-1.6,6.34-2.27,9
							c-0.28,1.1,0.53,2.18,1.67,2.22l6.91,0.24l4.77-20.81c0.03-0.61-0.14-3.77-1.52-4.56
							C271.74,320.81,267.69,321.86,267.14,323.79z"/>
					</g>
				</g>
				<g>
					<path class="st16" d="M275.57,240.5c0-2.47,0.46-7.91,8.65-8.18c5.53-0.19,7.75,1.97,8.12,7.08c0,0,2.24,9.79,5.27,23.2
						c2.82,12.48-10.5,39.31-8.14,64.42l-6.89-0.31c-0.35-5.49-1.49-32.12-2.4-41.97C278.01,261.5,275.57,240.5,275.57,240.5z"/>
					<g>
						<path class="st38" d="M290.52,324.31c0,0,4.78,18.47,5.45,21.51s-0.42,7.15-1.47,8.29s-11.24,0.84-13.41,0.21
							c-2.16-0.63,1.44-28.9,1.44-28.9L290.52,324.31z"/>
						<path class="st16" d="M282.45,321.28c0,2.08-0.29,10.1-0.2,12.65c0.1,3.06,0.39,12.01,0.39,12.01s7.84,0.55,8.81-0.39
							c2.74-2.66,1.52-8.23,1.52-8.23l-2.33-13.48c-0.14-0.66-1.23-4.07-2.83-4.92S282.45,319.21,282.45,321.28z"/>
					</g>
				</g>
			</g>
			<path class="st16" d="M224.65,209.87c-1.58-1.17-3.82-6.85-2.45-12.51c0.64-2.66,10.3-32.78,10.3-32.78s13.54,4.38,13.99,10.16
				c0,0-10.91,31.14-12.13,31.84C233.14,207.28,226.62,211.34,224.65,209.87z"/>
			<path class="st37" d="M247.54,139.42c-2.58,0.64-6.89,2.8-7.53,4.49s-10.37,26.82-14.08,36.67c3.92,4.12,10.93,6.52,17.41,8.04
				c5-7.14,6.84-19.04,9.67-27.28l2.33-22.85C255.33,138.5,250.97,138.56,247.54,139.42z"/>
			<path class="st39" d="M248.14,274.54c0,0-8.4-22.93-9.22-34.91c-0.81-11.98,11.14-16.42,11.14-16.42l5.67-12.26l34.45-0.27
				c0,0,18.03,16.17,20.69,20.91c2.28,4.07,2.97,18.16-7.36,16.78l0.98,26.17H248.14z"/>
			<g>
				<path class="st39" d="M299.66,163.39c-2.1-2.2-7.52-25.05-7.52-25.05h-18.01l-19.03,0.4c0,0-4.4,22.46-6.5,24.65
					c-7.5,7.85,1.03,17.62,3.9,22.1c3.95,12.93,2.89,16.68,2.96,28.63c6.51,1.12,12.56,1.65,18.67,1.83
					c6.11-0.18,12.16-0.71,18.67-1.83c0.07-11.95-0.99-15.71,2.96-28.63C298.63,181.02,307.16,171.25,299.66,163.39z"/>
			</g>
			<g>
				<g>
					<g>
						<rect x="262.55" y="122.8" class="st16" width="21.24" height="25.27"/>
						<path class="st7" d="M283.79,122.8v7.77c-5.28,4.27-12.42,7.16-21.24,7.77V122.8H283.79z"/>
					</g>
				</g>
				<path class="st16" d="M263.02,140.62c0,0-2.91,4.09-2.94,6.51c-0.03,1.74,10.53,18.91,12.61,18.91s15.64-18.53,15.93-19.64
					c0.41-1.57-0.48-3.25-1.77-4.23c-1.29-0.99-2.9-1.43-4.46-1.85L263.02,140.62z"/>
			</g>
			<g>
				<g>
					<g>
						<path class="st16" d="M282.11,127.13c0.75,0.43,1.68,0.48,2.52,0.29c0.84-0.18,1.61-0.58,2.35-1c1.95-1.12,3.88-2.66,4.3-4.83
							c0.14-0.72,0.08-1.52-0.36-2.13c-0.53-0.73-1.52-1.05-2.42-0.94c-0.9,0.11-1.71,0.59-2.36,1.19L282.11,127.13z"/>
						<path class="st16" d="M262.48,122.24c-0.86,0.03-1.71-0.37-2.36-0.92c-0.66-0.56-1.15-1.27-1.6-1.99
							c-1.19-1.9-2.18-4.17-1.54-6.28c0.22-0.71,0.64-1.39,1.32-1.72c0.8-0.4,1.84-0.21,2.58,0.31c0.74,0.52,1.23,1.32,1.53,2.16
							L262.48,122.24z"/>
					</g>
					<path class="st16" d="M285.4,127.61c2.21-6.25,4.89-9.54,6.88-12.98c1.46-2.58,3.42-7.12,1.09-12.13
						c-2.24-5.16-9.97-9.7-18.12-9.53c-8.21,0.16-15.51,4.33-15.8,9.47c-0.26,3.05,1.14,6.3,0.9,9.46c-0.2,2.62-1.63,4.95-1.27,7.64
						c0.76,4.67,5.91,13.82,11.42,15.19C275,135.85,284.27,130.29,285.4,127.61z"/>
				</g>
				<path class="st7" d="M279.72,113.75c0.73,0.02,1.46,0.18,2.15,0.44c0.69,0.26,1.33,0.64,1.89,1.11c0.56,0.47,1.04,1.04,1.35,1.7
					c-0.64-0.36-1.22-0.7-1.82-1c-0.6-0.3-1.19-0.57-1.81-0.8c-0.61-0.23-1.24-0.44-1.88-0.61
					C278.95,114.41,278.99,113.73,279.72,113.75z"/>
				<path class="st7" d="M270.51,111.34c-0.66-0.31-1.38-0.5-2.12-0.58c-0.73-0.08-1.48-0.03-2.19,0.13
					c-0.71,0.17-1.4,0.46-1.97,0.91c0.73-0.03,1.4-0.07,2.07-0.07c0.67,0,1.32,0.03,1.98,0.1c0.65,0.07,1.3,0.17,1.95,0.31
					C270.9,112.27,271.17,111.65,270.51,111.34z"/>
				<path class="st6" d="M274.78,120.78c-0.08,0.12-0.16,0.23-0.26,0.33c-0.09,0.1-0.19,0.21-0.33,0.24
					c-0.13,0.03-0.29-0.05-0.37-0.28c-0.04-0.11-0.06-0.25-0.04-0.4c0.02-0.15,0.08-0.31,0.17-0.45c0.1-0.14,0.22-0.26,0.35-0.33
					c0.13-0.07,0.26-0.11,0.38-0.12c0.24-0.01,0.38,0.11,0.4,0.24c0.02,0.14-0.04,0.27-0.1,0.4
					C274.92,120.54,274.86,120.66,274.78,120.78z"/>
				<path class="st5" d="M273.27,120.88c0-0.1,0-0.18,0.01-0.26c0.01-0.08,0.01-0.14,0.02-0.21c0.01-0.07,0.02-0.14,0.05-0.23
					c0.02-0.08,0.06-0.18,0.09-0.27c0.07-0.19,0.15-0.38,0.18-0.55c0.03-0.17,0.02-0.32-0.05-0.43c-0.07-0.11-0.17-0.13-0.29-0.08
					c-0.12,0.05-0.27,0.16-0.43,0.33c-0.16,0.18-0.35,0.43-0.47,0.76c-0.06,0.16-0.09,0.35-0.09,0.52
					c-0.01,0.18,0.02,0.35,0.05,0.52c0.03,0.17,0.08,0.32,0.14,0.47c0.06,0.14,0.12,0.28,0.19,0.4c0.13,0.24,0.26,0.43,0.38,0.57
					c0.23,0.29,0.38,0.41,0.51,0.28c0.12-0.12,0.16-0.3,0.07-0.59c-0.04-0.15-0.12-0.32-0.2-0.53c-0.04-0.1-0.08-0.22-0.11-0.33
					C273.29,121.13,273.27,121.01,273.27,120.88z"/>
				<g>
					<path class="st7" d="M278.34,118.63c0.23-0.94,1.91-2.02,2.97-1.76l0,0c0.88,0.22,1.41,1.12,1.19,2l-0.19,0.76
						C282.07,120.52,278.1,119.57,278.34,118.63z"/>
					<path class="st7" d="M280.92,116.84c0,0,1.21,0.04,2.04,0.99c0.83,0.94,1.62,0.73,1.62,0.73s-1.02,0.59-1.91-0.13
						c-0.88-0.72-1.42-0.64-1.42-0.64L280.92,116.84z"/>
				</g>
				<g>
					<path class="st7" d="M269.48,116.43c0.23-0.94-0.74-2.68-1.8-2.94l0,0c-0.88-0.21-1.77,0.33-1.99,1.21l-0.18,0.76
						C265.3,116.34,269.24,117.37,269.48,116.43z"/>
					<path class="st7" d="M268.04,113.64c0,0-1.09-0.53-2.26-0.08c-1.17,0.44-1.77-0.11-1.77-0.11s0.63,1,1.75,0.77
						c1.12-0.22,1.55,0.1,1.55,0.1L268.04,113.64z"/>
				</g>
				<path class="st8" d="M268.92,123.96c2.38,1.77,5.65,2.07,8.34,0.85c0.41-0.19,0.05-0.79-0.36-0.61
					c-2.47,1.12-5.47,0.74-7.63-0.87c-0.15-0.12-0.4-0.02-0.48,0.13C268.68,123.66,268.77,123.85,268.92,123.96L268.92,123.96z"/>
				<path class="st36" d="M291.38,109.89c0.07-0.4,0.1-0.65,0.07-0.72c-0.31-0.65-2.34,6.08-2.34,6.08
					c-7.02-2.5-25.84-6.09-25.84-6.09l0.86-6.88c-1.61,1.15-4.53,15.89-4.53,15.89c-0.59-5.47-0.8-14.89,0.14-20.14
					c0.53-2.97,3.36-4.37,5.33-4.26c2.32-4.51,6.78-5.23,12-5.44c6.09-0.24,12.09,3.14,15.48,8.15c3.39,5.01,4.67,9.97,2.14,15.38
					c-2.65,5.65-3.36,10.55-7.76,14.66C286.94,126.53,290.77,113.21,291.38,109.89z"/>
			</g>
			<g>
				<path class="st37" d="M251.75,138.75c0,0-1.97,23.17-3.42,24.64c-9.05,9.12,3.75,24.43,3.75,24.43
					c3.12,10.26-0.39,25-2.16,31.48c-0.52,1.91,12.13,5.77,12.63,5.85c0.71-28.53,2.36-59.07,0-87.63L251.75,138.75z"/>
				<path class="st37" d="M300.46,163.38c-1.35-1.57-6.31-24.89-6.31-24.89l-10.35-1.35c-0.57,28.21-3.87,59.37,1.2,87.48
					c0.87-0.13,16.4-6.69,16.37-8.67c0,0-7.79-17.88-4.66-28.14C296.7,187.82,308.48,172.72,300.46,163.38z"/>
			</g>
			<g>
				<g>
					<g>
						<g>
							<g>
								<path class="st16" d="M258.23,215.64c0,0-23.36-1.1-32.44-5.02c-3.53-1.52-2.84-7.12-0.43-8.98
									c1.42-1.09,4.14-2.38,7.38-2.52c3.24-0.14,24.25,9.51,26.37,10.48C261.24,210.57,263.37,213.53,258.23,215.64z"/>
							</g>
						</g>
					</g>
				</g>
				<g>
					<path class="st16" d="M268.53,208.23c0,0,2.95-0.08,4.68,1.12c1.73,1.2,5.89,8.15,6.42,8.94c0.59,0.89-1.62,1.25-2.36,0.74
						c-1.5-1.04-5.03-7.27-6.02-7.76c-0.99-0.5-5.01-0.53-5.01-0.53L268.53,208.23z"/>
					<path class="st16" d="M266.03,209.97c0,0,2.95-0.08,4.68,1.12c1.73,1.2,5.27,7.36,6.03,8.47c0.75,1.11-1.74,1.24-2.55,0.6
						c-1.43-1.12-4.85-6.28-5.84-6.78c-0.99-0.5-4.62-0.92-4.62-0.92L266.03,209.97z"/>
					<path class="st16" d="M262.65,212.53c0,0,2.85-0.55,4.56,0.21c1.71,0.76,5.34,5.54,6.11,6.38c0.76,0.85-1.64,1.36-2.44,0.94
						c-1.42-0.74-4.9-4.67-5.87-4.94c-0.97-0.27-4.5-0.05-4.5-0.05L262.65,212.53z"/>
					<path class="st16" d="M259.76,213.72c0,0,2.71-0.79,4.03,0.19c0.98,0.72,4.58,4.21,5.26,4.95c0.68,0.75-0.21,1.75-0.92,1.38
						c-1.26-0.66-4.72-3.66-5.58-3.9c-0.86-0.24-4.69-0.37-4.69-0.37L259.76,213.72z"/>
					<path class="st16" d="M264.13,207.51c0,0,2.41-1.06,3.68-0.91c0.89,0.11,2.39,1.89,2.39,1.89l-1.52,0.28L264.13,207.51z"/>
					<path class="st16" d="M269,208.43l-6.58,7.82c0,0-4.4,1.08-5.93-0.65s-3.04-2.32-2.44-3.36s7-4.5,9.67-4.97
						C266.39,206.81,269,208.43,269,208.43z"/>
				</g>
			</g>
			<g>
				<g>
					<g>
						<g>
							<g>
								<path class="st16" d="M292.99,213.6c0,0,22.16-7.46,29.82-13.71c2.98-2.43,0.78-7.63-2.05-8.75
									c-1.67-0.66-4.63-1.16-7.79-0.4c-3.16,0.76-20.72,15.79-22.5,17.3C288.7,209.54,287.46,212.97,292.99,213.6z"/>
							</g>
						</g>
					</g>
				</g>
				<g>
					<path class="st16" d="M287.13,207.1c0,0-2.73,1.12-3.82,2.92s-2.08,9.84-2.23,10.77c-0.18,1.05,1.99,0.49,2.46-0.29
						c0.95-1.56,1.64-8.69,2.35-9.54s4.37-2.52,4.37-2.52L287.13,207.1z"/>
					<path class="st16" d="M290.12,207.67c0,0-2.73,1.12-3.82,2.92s-1.83,8.86-2.07,10.19s2.09,0.42,2.57-0.48
						c0.85-1.61,1.88-7.71,2.58-8.57c0.7-0.85,3.85-2.72,3.85-2.72L290.12,207.67z"/>
					<path class="st16" d="M294.25,208.64c0,0-2.83,0.65-4.08,2.04c-1.25,1.39-2.63,7.23-2.99,8.31c-0.35,1.08,2.05,0.57,2.61-0.13
						c1-1.26,2.58-6.26,3.35-6.9s4.09-1.87,4.09-1.87L294.25,208.64z"/>
					<path class="st16" d="M297.38,208.55c0,0-2.8,0.38-3.61,1.81c-0.6,1.06-2.48,5.7-2.79,6.66c-0.31,0.96,0.9,1.51,1.4,0.89
						c0.88-1.11,2.82-5.26,3.51-5.83c0.69-0.57,4.13-2.24,4.13-2.24L297.38,208.55z"/>
					<path class="st16" d="M290.86,204.65c0,0-2.64,0.01-3.73,0.67c-0.77,0.46-1.41,2.7-1.41,2.7l1.5-0.36L290.86,204.65z"/>
					<path class="st16" d="M286.78,207.47l9.19,4.48c0,0,4.46-0.8,5.16-3.01c0.69-2.2,1.83-3.35,0.87-4.06
						c-0.97-0.71-8.22-1.27-10.85-0.61C288.51,204.93,286.78,207.47,286.78,207.47z"/>
				</g>
			</g>
			<g id="laptop_3_">
				<path class="st29" d="M291.05,219.97h57.84c2.26,0,4.42-1.85,4.82-4.1l7.02-40.16c0.39-2.26-1.13-4.1-3.38-4.1h-57.84
					c-2.26,0-4.42,1.85-4.82,4.1l-7.02,40.16C287.27,218.12,288.8,219.97,291.05,219.97z"/>
				<path class="st22" d="M292.13,219.97h57.84c2.26,0,4.42-1.85,4.82-4.1l7.02-40.16c0.39-2.26-1.13-4.1-3.38-4.1h-57.84
					c-2.26,0-4.42,1.85-4.82,4.1l-7.02,40.16C288.35,218.12,289.87,219.97,292.13,219.97z"/>
				<path class="st22" d="M265.12,222.19h84.84c0.67,0,1.27-0.55,1.31-1.23v0c0.05-0.67-0.47-1.23-1.14-1.23h-84.84
					c-0.67,0-1.27,0.55-1.31,1.23v0C263.93,221.64,264.45,222.19,265.12,222.19z"/>
			</g>
		</g>
		<g id="desk_1_">
			<g>
				<polygon class="st40" points="360.81,270.11 185.02,270.11 192.76,227.84 353.07,227.84 				"/>
				<polygon class="st22" points="312.85,270.11 333.09,270.11 291.09,227.84 270.58,227.84 				"/>
				<polygon class="st22" points="250.74,270.11 271.12,270.11 228.85,227.84 208.55,227.84 				"/>
			</g>
			<g>
				<polygon class="st0" points="169.89,353.87 202.1,226.31 183.21,226.31 164.8,353.86 				"/>
				<polygon class="st0" points="380.57,354.58 362.06,226.31 343.17,226.31 375.56,354.55 				"/>
			</g>
			<g>
				<rect x="153.3" y="224.89" class="st41" width="238.68" height="4.16"/>
				<path class="st0" d="M395.96,226.67H149.32c-1.23,0-2.24-1.01-2.24-2.24l0,0c0-1.23,1.01-2.24,2.24-2.24h246.64
					c1.23,0,2.24,1.01,2.24,2.24l0,0C398.19,225.66,397.19,226.67,395.96,226.67z"/>
			</g>
		</g>
	</g>
	<g>
		<path class="st16" d="M301.82,135.62c2.49,3,5.47,5.58,6.03,7.1c0.56,1.53,1.75,9.56,1.71,10.83c-0.04,1.27-1.78-0.66-2.03-2.05
			c-0.25-1.39-2.68-7.55-2.68-7.55s-6.83-4.19-7.94-5.15l-3.64-0.52c0,0-3.69,3.86-4.55,4.63c-0.85,0.77-2.58,0.32-1.04-2.03
			s3.94-7.67,5.08-8.77c1.29-1.26,2.53-1.95,4.64-0.88C299.51,132.32,301.82,135.62,301.82,135.62z"/>
		<path class="st16" d="M298.96,133.31c0,0,5.61,4.19,6.8,5.39c1.18,1.2,4.08,6.74,4.49,7.28c0.41,0.53-0.49,1.62-1.72-0.19
			c-1.23-1.81-4.06-4.66-4.43-4.94c-0.37-0.28-5.34-3.41-6.52-4C296.4,136.26,297.47,132.18,298.96,133.31z"/>
	</g>
</g>
</svg>
