<?xml version="1.0" encoding="utf-8"?>
<!-- Generator: Adobe Illustrator 26.0.1, SVG Export Plug-In . SVG Version: 6.00 Build 0)  -->
<svg version="1.1" id="Layer_1" xmlns="http://www.w3.org/2000/svg" xmlns:xlink="http://www.w3.org/1999/xlink" x="0px" y="0px"
	 width="500px" height="377.4px" viewBox="0 0 500 377.4" style="enable-background:new 0 0 500 377.4;" xml:space="preserve">
<style type="text/css">
	.st0{fill:#ECECEC;}
	.st1{fill:#E7E7E7;}
	.st2{fill:#F0F0F0;}
	.st3{fill:#FAFAFA;}
	.st4{fill:#FFFFFF;}
	.st5{opacity:0.5;fill:#E1E1E1;}
	.st6{fill:#E1E1E1;}
	.st7{fill:#F5F5F5;}
	.st8{fill:#007CFF;}
	.st9{opacity:0.3;fill:#FFFFFF;}
	.st10{opacity:0.5;}
	.st11{opacity:0.2;}
	.st12{fill:#FFB570;}
	.st13{fill:#1A2E35;}
	.st14{opacity:0.3;}
	.st15{fill:#FF8935;}
</style>
<g>
	<rect x="-0.5" y="330.64" class="st0" width="500" height="0.25"/>
	<rect x="416.28" y="346.74" class="st0" width="33.12" height="0.25"/>
	<rect x="322.03" y="349.45" class="st0" width="8.69" height="0.25"/>
	<rect x="396.09" y="337.45" class="st0" width="19.19" height="0.25"/>
	<rect x="51.96" y="339.13" class="st0" width="43.19" height="0.25"/>
	<rect x="104.06" y="339.13" class="st0" width="6.33" height="0.25"/>
	<rect x="130.97" y="343.35" class="st0" width="93.68" height="0.25"/>
	<path class="st0" d="M236.51,286.04H43.42c-3.15,0-5.71-2.56-5.71-5.71V8.9c0-3.15,2.56-5.71,5.71-5.71h193.1
		c3.15,0,5.71,2.56,5.71,5.71v271.43C242.22,283.48,239.66,286.04,236.51,286.04z M43.42,3.45c-3.01,0-5.46,2.45-5.46,5.46v271.43
		c0,3.01,2.45,5.46,5.46,5.46h193.1c3.01,0,5.46-2.45,5.46-5.46V8.9c0-3.01-2.45-5.46-5.46-5.46H43.42z"/>
	<path class="st0" d="M452.81,286.04h-193.1c-3.15,0-5.71-2.56-5.71-5.71V8.9c0-3.15,2.56-5.71,5.71-5.71h193.1
		c3.15,0,5.71,2.56,5.71,5.71v271.43C458.52,283.48,455.96,286.04,452.81,286.04z M259.71,3.45c-3.01,0-5.46,2.45-5.46,5.46v271.43
		c0,3.01,2.45,5.46,5.46,5.46h193.1c3.01,0,5.46-2.45,5.46-5.46V8.9c0-3.01-2.45-5.46-5.46-5.46H259.71z"/>
</g>
<g>
	<g>
		<rect x="227.65" y="28.02" class="st1" width="194.79" height="171.1"/>
		<rect x="230.03" y="28.02" class="st2" width="197.5" height="171.1"/>
		<rect x="227.65" y="199.12" class="st1" width="194.79" height="4.72"/>
		<rect x="238.49" y="199.12" class="st2" width="197.5" height="4.72"/>
		
			<rect x="250.34" y="21.93" transform="matrix(-1.836970e-16 1 -1 -1.836970e-16 442.3441 -215.2065)" class="st3" width="156.88" height="183.27"/>
		<polygon class="st4" points="261.67,192.01 281.89,35.13 316.87,35.13 296.65,192.01 		"/>
		<polygon class="st4" points="304.16,192.01 324.38,35.13 338.02,35.13 317.8,192.01 		"/>
		
			<rect x="341.52" y="113.12" transform="matrix(-1.836970e-16 1 -1 -1.836970e-16 533.53 -306.3925)" class="st1" width="156.88" height="0.9"/>
		<polygon class="st5" points="429.21,50.08 234.41,50.08 233.76,37.9 428.55,37.9 		"/>
		<polygon class="st5" points="429.21,70.11 234.41,70.11 233.76,57.93 428.55,57.93 		"/>
		<polygon class="st5" points="429.21,90.15 234.41,90.15 233.76,77.96 428.55,77.96 		"/>
		<polygon class="st5" points="429.21,110.18 234.41,110.18 233.76,97.99 428.55,97.99 		"/>
		<polygon class="st5" points="429.21,130.21 234.41,130.21 233.76,118.02 428.55,118.02 		"/>
		<polygon class="st5" points="429.21,150.24 234.41,150.24 233.76,138.06 428.55,138.06 		"/>
	</g>
	<g>
		<g>
			<g>
				<rect x="58.15" y="63.96" class="st6" width="60.85" height="120.31"/>
				<rect x="60.56" y="63.96" class="st7" width="62.05" height="120.31"/>
				
					<rect x="38.39" y="98.29" transform="matrix(6.123234e-17 -1 1 6.123234e-17 -32.5283 215.7013)" class="st4" width="106.39" height="51.65"/>
			</g>
		</g>
		<g>
			<g>
				<rect x="139.39" y="45.6" class="st6" width="60.85" height="120.31"/>
				<rect x="141.8" y="45.6" class="st7" width="62.05" height="120.31"/>
				
					<rect x="119.63" y="79.93" transform="matrix(6.123234e-17 -1 1 6.123234e-17 67.0726 278.5804)" class="st4" width="106.39" height="51.66"/>
			</g>
		</g>
	</g>
	<g>
		<g>
			<rect x="163.82" y="219.77" class="st1" width="25.61" height="110.88"/>
			<polygon class="st2" points="184.57,330.64 189.43,330.64 189.43,319.35 179.46,319.35 			"/>
			<rect x="68.09" y="219.77" class="st1" width="25.61" height="110.88"/>
			<rect x="89.45" y="219.77" class="st2" width="99.98" height="103.95"/>
			
				<rect x="121.91" y="245.85" transform="matrix(6.123234e-17 -1 1 6.123234e-17 -104.7726 431.5047)" class="st1" width="82.92" height="44.58"/>
			
				<rect x="74.06" y="245.85" transform="matrix(6.123234e-17 -1 1 6.123234e-17 -152.6198 383.6576)" class="st1" width="82.92" height="44.58"/>
			<path class="st2" d="M119.93,229.84h-8.82c-3.83,0-7.49-1.29-10.13-3.55l0,0h29.08l0,0
				C127.42,228.55,123.76,229.84,119.93,229.84z"/>
			<path class="st2" d="M168.23,229.84h-8.82c-3.83,0-7.49-1.29-10.13-3.55l0,0h29.08l0,0
				C175.72,228.55,172.06,229.84,168.23,229.84z"/>
			<polygon class="st2" points="94.32,330.64 89.45,330.64 89.45,319.35 99.42,319.35 			"/>
		</g>
		<path class="st1" d="M112.92,209.18c0,0,0.76,10.58,29.91,10.58s29.91-10.58,29.91-10.58H112.92z"/>
	</g>
	<g>
		
			<rect x="227.83" y="238.29" transform="matrix(-1 -1.224647e-16 1.224647e-16 -1 674.4741 494.9041)" class="st0" width="218.82" height="18.32"/>
		
			<rect x="227.83" y="238.29" transform="matrix(-1 -1.224647e-16 1.224647e-16 -1 517.7673 494.9041)" class="st6" width="62.11" height="18.32"/>
		
			<rect x="433.55" y="256.61" transform="matrix(-1 -1.224647e-16 1.224647e-16 -1 880.1955 587.2557)" class="st0" width="13.1" height="74.03"/>
		<polygon class="st6" points="433.55,261.74 446.65,259.18 446.65,256.61 433.55,256.61 		"/>
		
			<rect x="227.83" y="256.61" transform="matrix(-1 -1.224647e-16 1.224647e-16 -1 468.7527 587.2557)" class="st6" width="13.1" height="74.03"/>
		
			<rect x="276.84" y="256.61" transform="matrix(-1 -1.224647e-16 1.224647e-16 -1 566.782 587.2557)" class="st0" width="13.1" height="74.03"/>
		<polygon class="st6" points="276.84,261.74 289.94,259.18 289.94,256.61 276.84,256.61 		"/>
		
			<rect x="392.54" y="256.61" transform="matrix(-1 -1.224647e-16 1.224647e-16 -1 798.181 587.2557)" class="st6" width="13.1" height="74.03"/>
	</g>
</g>
<ellipse id="_x3C_Path_x3E__274_" class="st7" cx="249.5" cy="364.48" rx="193.89" ry="11.32"/>
<g>
	<g>
		<g>
			<path class="st8" d="M232.01,77.58H112.72c-8.09,0-14.26,6.62-13.72,14.71l17.1,254.4c0.54,8.09,7.61,14.71,15.7,14.71h119.29
				c8.09,0,14.26-6.62,13.72-14.71l-17.1-254.4C247.16,84.19,240.1,77.58,232.01,77.58z"/>
			<path class="st9" d="M232.01,77.58H112.72c-8.09,0-14.26,6.62-13.72,14.71l17.1,254.4c0.54,8.09,7.61,14.71,15.7,14.71h119.29
				c8.09,0,14.26-6.62,13.72-14.71l-17.1-254.4C247.16,84.19,240.1,77.58,232.01,77.58z"/>
		</g>
		
			<rect x="98.97" y="132.08" transform="matrix(0.9977 -0.0671 0.0671 0.9977 -9.4393 6.9947)" class="st8" width="1" height="24.05"/>
		
			<rect x="100.99" y="168.73" transform="matrix(0.9977 -0.0671 0.0671 0.9977 -11.4506 7.1998)" class="st8" width="1" height="10.78"/>
		<path class="st8" d="M124.76,349.23c0.31,4.61-6.16,6-7.76,1.66c-0.49-1.33-0.8-2.75-0.9-4.21L99,92.28
			c-0.1-1.48,0.03-2.92,0.35-4.27c1.06-4.47,7.59-3.94,7.9,0.65L124.76,349.23z"/>
		<path class="st4" d="M251.09,356.57H140.26c-5.53,0-10.52-4.68-10.89-10.21l-17.1-254.4c-0.17-2.57,0.66-4.98,2.35-6.79
			c1.68-1.79,4.01-2.78,6.57-2.78h110.83c5.53,0,10.52,4.68,10.89,10.21L260,347c0.17,2.57-0.66,4.98-2.34,6.79
			C255.98,355.58,253.64,356.57,251.09,356.57z M121.18,83.46c-2.26,0-4.31,0.87-5.79,2.44c-1.48,1.58-2.21,3.71-2.06,5.99
			l17.1,254.4c0.34,5,4.83,9.22,9.82,9.22h110.83c2.26,0,4.31-0.87,5.79-2.44c1.48-1.58,2.21-3.71,2.06-5.98l-17.1-254.4
			c-0.34-5-4.83-9.22-9.82-9.22H121.18z"/>
	</g>
	<g>
		<g class="st10">
			
				<ellipse transform="matrix(0.6871 -0.7265 0.7265 0.6871 -60.3058 187.2892)" class="st8" cx="187.31" cy="163.67" rx="44.54" ry="49.79"/>
			
				<ellipse transform="matrix(0.6871 -0.7265 0.7265 0.6871 -60.3058 187.2899)" class="st4" cx="187.31" cy="163.67" rx="35.63" ry="39.83"/>
			
				<ellipse transform="matrix(0.6872 -0.7265 0.7265 0.6872 -60.3062 187.2852)" class="st8" cx="187.31" cy="163.67" rx="26.72" ry="29.87"/>
			
				<ellipse transform="matrix(0.6871 -0.7265 0.7265 0.6871 -60.3057 187.2906)" class="st4" cx="187.31" cy="163.67" rx="17.82" ry="19.92"/>
			
				<ellipse transform="matrix(0.6872 -0.7265 0.7265 0.6872 -60.3067 187.2798)" class="st8" cx="187.31" cy="163.67" rx="8.91" ry="9.96"/>
		</g>
		<path class="st4" d="M196.39,227.75c-0.18,0-0.35,0.02-0.52,0.03c-2.75-5.25-8.28-8.89-14.42-8.89c-1.59,0-3.1,0.24-4.51,0.7
			c-2.87-5.21-8.46-8.81-14.64-8.81c-8.13,0-14.39,6.23-14.55,14.18c-6.3,0.44-10.94,5.69-10.5,12.13c0.46,6.72,6.28,12.17,13,12.17
			h47.61c5.94,0,10.42-4.81,10.02-10.75C207.47,232.57,202.33,227.75,196.39,227.75z"/>
		<path class="st4" d="M226.72,111.41c-0.14,0-0.27,0.01-0.41,0.02c-2.14-4.09-6.46-6.93-11.24-6.93c-1.24,0-2.42,0.19-3.52,0.54
			c-2.24-4.06-6.59-6.87-11.41-6.87c-6.34,0-11.21,4.86-11.35,11.06c-4.91,0.34-8.53,4.44-8.19,9.45c0.36,5.24,4.89,9.49,10.13,9.49
			h37.11c4.63,0,8.13-3.75,7.81-8.38C235.36,115.16,231.35,111.41,226.72,111.41z"/>
		<g>
			<path class="st9" d="M241.5,267.1h-68.56c-2.13,0-3.73,1.72-3.59,3.85l2.77,40.89c0.14,2.13,1.98,3.85,4.11,3.85h9.2l0.77,11.31
				l10.54-11.31h48.05c2.13,0,3.73-1.72,3.59-3.85l-2.77-40.89C245.46,268.83,243.62,267.1,241.5,267.1z"/>
			<polygon class="st4" points="240.98,293.98 177.11,293.98 176.76,288.81 240.62,288.81 			"/>
			<polygon class="st4" points="221.5,304.72 177.84,304.72 177.49,299.55 221.15,299.55 			"/>
			<polygon class="st4" points="240.25,283.24 176.38,283.24 176.03,278.07 239.9,278.07 			"/>
		</g>
	</g>
</g>
<g>
	<g>
		<path class="st8" d="M295.14,94.26l2.63,1.89c0.91,0.64,1.83,1.27,2.76,1.89c1.85,1.24,3.71,2.47,5.59,3.58
			c1.89,1.1,3.78,2.18,5.66,3.12c1.86,0.92,3.79,1.74,5.46,2.27c-0.45-0.1-0.9-0.11-1.27-0.05c-0.34,0.04-0.6,0.15-0.73,0.2
			c-0.29,0.15-0.2,0.16-0.05,0.07c0.34-0.19,0.96-0.76,1.55-1.42c1.21-1.37,2.41-3.16,3.56-5c1.17-1.84,2.29-3.79,3.36-5.79
			c1.09-1.97,2.15-4.06,3.14-6.01l0.07-0.13c1.12-2.22,3.83-3.1,6.04-1.98c1.96,0.99,2.87,3.22,2.29,5.25
			c-1.38,4.81-3.02,9.3-5.15,13.93c-1.1,2.3-2.3,4.57-3.95,6.95c-0.86,1.19-1.79,2.41-3.29,3.71c-0.77,0.64-1.66,1.32-3.05,1.9
			c-0.67,0.28-1.52,0.53-2.44,0.65c-0.95,0.11-2,0.08-3.02-0.16c-2.89-0.66-5.36-1.53-7.81-2.51c-2.43-0.97-4.71-2.09-6.94-3.27
			c-2.22-1.18-4.38-2.42-6.49-3.73c-1.05-0.66-2.09-1.33-3.12-2.02c-1.05-0.7-2.02-1.37-3.13-2.19c-3.09-2.28-3.74-6.64-1.46-9.73
			c2.26-3.07,6.57-3.73,9.65-1.52L295.14,94.26z"/>
		<path class="st11" d="M295.14,94.26l2.63,1.89c0.91,0.64,1.83,1.27,2.76,1.89c1.85,1.24,3.71,2.47,5.59,3.58
			c1.89,1.1,3.78,2.18,5.66,3.12c1.86,0.92,3.79,1.74,5.46,2.27c-0.45-0.1-0.9-0.11-1.27-0.05c-0.34,0.04-0.6,0.15-0.73,0.2
			c-0.29,0.15-0.2,0.16-0.05,0.07c0.34-0.19,0.96-0.76,1.55-1.42c1.21-1.37,2.41-3.16,3.56-5c1.17-1.84,2.29-3.79,3.36-5.79
			c1.09-1.97,2.15-4.06,3.14-6.01l0.07-0.13c1.12-2.22,3.83-3.1,6.04-1.98c1.96,0.99,2.87,3.22,2.29,5.25
			c-1.38,4.81-3.02,9.3-5.15,13.93c-1.1,2.3-2.3,4.57-3.95,6.95c-0.86,1.19-1.79,2.41-3.29,3.71c-0.77,0.64-1.66,1.32-3.05,1.9
			c-0.67,0.28-1.52,0.53-2.44,0.65c-0.95,0.11-2,0.08-3.02-0.16c-2.89-0.66-5.36-1.53-7.81-2.51c-2.43-0.97-4.71-2.09-6.94-3.27
			c-2.22-1.18-4.38-2.42-6.49-3.73c-1.05-0.66-2.09-1.33-3.12-2.02c-1.05-0.7-2.02-1.37-3.13-2.19c-3.09-2.28-3.74-6.64-1.46-9.73
			c2.26-3.07,6.57-3.73,9.65-1.52L295.14,94.26z"/>
	</g>
	<path class="st12" d="M329.31,87.14l2.71-4.59l5.2,5.62c0,0-1.02,2.53-3.78,3.55c-0.75,0.28-1.6,0.13-2.27-0.3l-1-0.64
		C328.96,89.99,328.58,88.38,329.31,87.14z"/>
	<path class="st12" d="M339.39,79.82l1.15,0.71c1.55,0.96,1.74,3.14,0.38,4.35l-3.69,3.28l-5.2-5.62l4.53-2.74
		C337.42,79.28,338.52,79.29,339.39,79.82z"/>
	<g>
		<polygon class="st12" points="231.52,356.36 239.43,356.59 242.42,338.26 234.51,338.02 		"/>
		<path class="st13" d="M240.69,354.36l-8.84-1.12c-0.32-0.04-0.59,0.15-0.65,0.46l-1.31,6.94c-0.14,0.72,0.46,1.49,1.2,1.57
			c3.09,0.34,4.58,0.34,8.47,0.83c2.39,0.3,8.62,1.8,11.93,1.4c3.23-0.4,2.81-3.66,1.37-3.79c-6.44-0.55-8.86-3.62-10.87-5.65
			C241.62,354.65,241.16,354.42,240.69,354.36z"/>
		<g>
			<polygon class="st11" points="234.5,338.03 242.42,338.26 240.88,347.71 232.96,347.48 			"/>
		</g>
		<path class="st13" d="M277.79,162.2c0,0-6.91,65.59-11.51,87.87c-5.03,24.4-21.17,95.78-21.17,95.78l-14.49-1.07
			c0,0,7.94-73.84,14.44-97.74c0-24.82,6.03-94.38,6.03-94.38L277.79,162.2z"/>
		<path class="st14" d="M254.7,184.41c-0.13-5.13-2.91-6.78-5.65-6.72c-0.96,12.34-2.07,27.47-2.88,41.12
			C251.03,210.93,255.06,198.67,254.7,184.41z"/>
		<polygon class="st4" points="230.19,344.92 245.71,346.08 247.49,340.23 229.62,340.04 		"/>
	</g>
	<g>
		<polygon class="st12" points="151.21,294.9 156.2,301.06 171.13,290.3 166.13,284.13 		"/>
		<path class="st13" d="M157.28,301.07l-4.44-7.73c-0.16-0.28-0.48-0.38-0.76-0.24l-6.33,3.14c-0.66,0.33-0.91,1.27-0.53,1.91
			c1.59,2.66,2.49,3.86,4.44,7.26c1.2,2.09,4.36,8.09,6.02,10.98c1.62,2.82,4.47,1.16,4.02-0.21c-1.99-6.15-2.57-10.86-2.16-13.68
			C157.61,301.99,157.52,301.48,157.28,301.07z"/>
		<g>
			<polygon class="st11" points="166.13,284.13 171.13,290.3 163.43,295.85 158.43,289.68 			"/>
		</g>
		<path class="st13" d="M263.34,156.61c0,0-19.49,55.78-28.34,76.73c-9.7,22.95-67.64,63.71-67.64,63.71l-9.15-11.29
			c0,0,39.38-39.46,53.96-58.19c8.1-25.49,25.39-80.18,25.39-80.18L263.34,156.61z"/>
		<polygon class="st4" points="157.83,285.3 167.72,297.51 172.55,294.71 160.97,281.79 		"/>
	</g>
	<path class="st2" d="M277.71,162.62l-40.16-15.23c0.99-3.67,6.25-14.45,10.92-29.45c3.13-10.07,6.12-21.81,7.68-34.01
		c0-0.01,0-0.02,0-0.03c0.17-1.42,1.5-2.4,2.91-2.15c0.76,0.13,1.64,0.3,2.62,0.5c2.53,0.51,5.69,1.23,8.7,2.14
		c5.19,1.58,12.63,4.06,16.98,6.07c2.52,1.18,3.52,1.71,5.41,2.83c1.15,0.69,2.27,1.5,2.87,2.13c0.58,0.6,1.11,1.23,1.11,2.06
		C296.77,103.24,291.02,125.48,277.71,162.62z"/>
	<path class="st12" d="M286.58,90.11c-4.52-2.93-4.3-6.3-2.76-9.53c0.36-0.79,0.81-1.59,1.29-2.36l-4.35-7.35l-3.2-5.39
		c-0.7,5.92-2.84,16.4-7.84,18.72c0,0,3.74,5.87,11.13,8.2C288.22,94.72,286.58,90.11,286.58,90.11z"/>
	<polygon class="st6" points="280.56,92.3 280.49,90.42 275.49,91.4 	"/>
	<polygon class="st6" points="280.56,92.3 281.48,90.78 284.72,94.7 	"/>
	<path class="st4" d="M270.39,83.32c2.94,2.75,6.33,5.09,10.1,7.1c-1.97,1.23-3.9,4.48-4.61,7.15c-1.62-1.13-8.1-11.79-9.01-14.72
		L270.39,83.32z"/>
	<path class="st4" d="M285.64,88.97c-1.31,0.98-2.67,1.69-4.16,1.8c1.07,1.57,1.97,5.64,1.97,8c1.87-1.22,4.76-5.48,5.22-7.42
		L285.64,88.97z"/>
	<path class="st14" d="M285.8,88.83c0,0,4.36,2.1,8.22,4.48c3.24,2,4.81,5.93,3.77,9.59c-4.77,16.85-11.21,33.23-13.88,42.34
		c-2.84,9.7-6.77,21.89-6.77,21.89l-6.82,1.6C270.33,168.74,287.4,103.45,285.8,88.83z"/>
	<g>
		<path class="st14" d="M270.29,82.56c0,0-5.87-0.77-10.98-1c-3.71-0.17-7.03,2.29-7.94,5.89c-2.6,10.28-4.52,29.94-7.15,37.6
			c-3.29,9.56-7.71,28.23-7.71,28.23l23.27,13.44C259.77,166.72,283.26,94.49,270.29,82.56z"/>
		<path class="st8" d="M270.29,82.56c0,0-5.87-0.77-10.98-1c-3.71-0.17-7.03,2.29-7.94,5.89c-2.6,10.28-6.14,29.49-8.78,37.14
			c-3.29,9.56-10.27,25.81-10.27,25.81l29.34,13.77C261.66,164.17,283.26,94.49,270.29,82.56z"/>
		<path class="st11" d="M270.29,82.56c0,0-5.87-0.77-10.98-1c-3.71-0.17-7.03,2.29-7.94,5.89c-2.6,10.28-6.14,29.49-8.78,37.14
			c-3.29,9.56-10.27,25.81-10.27,25.81l29.34,13.77C261.66,164.17,283.26,94.49,270.29,82.56z"/>
	</g>
	<g>
		<path class="st8" d="M285.8,88.83c0,0,4.36,2.1,8.22,4.48c3.24,2,4.81,5.93,3.77,9.59c-4.77,16.85-8.54,34.53-10.44,43.83
			c-2.02,9.9-4.1,18.91-4.1,18.91l-11,1.48C272.26,167.13,287.4,103.45,285.8,88.83z"/>
		<path class="st11" d="M285.8,88.83c0,0,4.36,2.1,8.22,4.48c3.24,2,4.81,5.93,3.77,9.59c-4.77,16.85-8.54,34.53-10.44,43.83
			c-2.02,9.9-4.1,18.91-4.1,18.91l-11,1.48C272.26,167.13,287.4,103.45,285.8,88.83z"/>
	</g>
	<path class="st11" d="M285.1,78.22c-0.48,0.77-0.92,1.57-1.29,2.36c-2.14-1.29-4.35-4.85-3.83-7.32c0.2-0.93,0.48-1.79,0.76-2.39
		L285.1,78.22z"/>
	<path class="st13" d="M291.27,47.92c5.32,0.69,7.27,7.87,4.33,12.61C290.78,53.54,291.27,47.92,291.27,47.92z"/>
	<path class="st12" d="M274.71,61.17c1.79,7.69,2.45,12.27,7.06,15.72c6.93,5.19,15.95,0.35,16.49-7.63
		c0.49-7.19-2.52-18.56-10.67-20.62C279.57,46.6,272.92,53.48,274.71,61.17z"/>
	<path class="st13" d="M277.08,68.01c4.64,0.13,3.92-7.54,1.89-10.43c6.42,1.03,17.06-4.67,18.13-10.61
		c1.55-8.61-11.58-8.61-15.83-5.87c1.83,0.13,2.76,1.68,2.32,2.48c0,0-6.33-1.92-10.43,0.31c1.78,0.65,3.69,3.24-3.12,4.06
		c-6.49,0.78-4.52,7.3-1.25,7.18c-1.74,2.68-3.83,8.74,0.09,11.33c3.92,2.59,6.6,5.93,5.75,7.31
		C275.99,73.72,278.9,72.07,277.08,68.01z"/>
	<path class="st13" d="M269.71,54.53c-3.1,0.3-4.88,2.71-5,6C266.2,57.53,269.71,54.53,269.71,54.53z"/>
	<path class="st12" d="M272.86,68.11c0.84,1.71,2.36,2.9,3.8,3.42c2.17,0.78,3.31-1.13,2.75-3.27c-0.51-1.93-2.25-4.67-4.45-4.53
		C272.79,63.87,271.9,66.16,272.86,68.11z"/>
	<path class="st13" d="M286.9,61.75c0.11,0.63,0.53,1.1,0.94,1.04c0.41-0.06,0.66-0.61,0.56-1.24c-0.11-0.63-0.53-1.1-0.94-1.04
		S286.79,61.12,286.9,61.75z"/>
	<path class="st13" d="M294.07,60.79c0.11,0.63,0.53,1.1,0.94,1.04c0.41-0.06,0.66-0.61,0.56-1.24c-0.11-0.63-0.53-1.1-0.94-1.04
		C294.21,59.6,293.96,60.16,294.07,60.79z"/>
	<path class="st15" d="M291.84,61.41c0,0,2.06,3.45,3.95,4.99c-0.95,1.19-2.93,0.97-2.93,0.97L291.84,61.41z"/>
	<path class="st13" d="M290.55,69.42c-2.52,0.04-3.95-1.51-4.02-1.59c-0.07-0.08-0.06-0.2,0.01-0.27c0.08-0.07,0.2-0.06,0.27,0.01
		c0.02,0.02,1.65,1.79,4.43,1.41c0.1-0.01,0.2,0.06,0.21,0.16c0.01,0.1-0.06,0.2-0.16,0.21C291.03,69.4,290.79,69.42,290.55,69.42z"
		/>
	<path class="st13" d="M288.55,71.5c-2.01-1.53-2.18-3.63-2.18-3.73c-0.01-0.1,0.07-0.19,0.17-0.2c0.1-0.01,0.19,0.07,0.2,0.17
		c0,0.02,0.19,2.42,2.62,3.85c0.09,0.05,0.12,0.17,0.07,0.26c-0.05,0.09-0.17,0.12-0.26,0.07C288.95,71.78,288.74,71.64,288.55,71.5
		z"/>
	<path class="st13" d="M284.29,59.74c-0.06,0-0.12-0.01-0.18-0.04c-0.18-0.1-0.25-0.33-0.15-0.51c0.97-1.81,2.71-1.94,2.78-1.94
		c0.19-0.03,0.39,0.14,0.4,0.35c0.01,0.21-0.14,0.39-0.35,0.4c-0.07,0.01-1.41,0.13-2.17,1.55
		C284.55,59.67,284.42,59.74,284.29,59.74z"/>
	<path class="st13" d="M296.73,57.92c-0.12,0-0.24-0.05-0.31-0.16c-0.98-1.4-2.38-1.4-2.4-1.4c-0.21,0-0.38-0.16-0.38-0.37
		c0-0.21,0.16-0.38,0.37-0.38c0,0,0,0,0,0c0.07,0,1.81,0,3.02,1.72c0.12,0.17,0.08,0.4-0.09,0.52
		C296.88,57.9,296.8,57.92,296.73,57.92z"/>
	<g>
		<path class="st8" d="M261.44,94.51c-1.98,1.63-4.11,3.43-6.13,5.21c-2.03,1.79-4.06,3.59-6.01,5.44
			c-3.89,3.7-7.68,7.51-10.84,11.46l-1.14,1.48l-0.14,0.19c0-0.01,0.06-0.09,0.08-0.14c0.05-0.11,0.12-0.23,0.15-0.35
			c0.09-0.23,0.12-0.48,0.13-0.63c0-0.33-0.06-0.34-0.05-0.17c0.01,0.17,0.1,0.5,0.25,0.88c0.31,0.77,0.86,1.73,1.51,2.69
			c0.65,0.96,1.41,1.94,2.22,2.92c1.61,1.96,3.41,3.92,5.3,5.8c1.87,1.89,3.89,3.8,5.8,5.55l0.12,0.11
			c1.83,1.67,1.96,4.51,0.29,6.35c-1.5,1.64-3.95,1.92-5.76,0.75c-5.01-3.23-9.55-6.68-13.99-10.95c-1.09-1.09-2.16-2.23-3.21-3.5
			c-1.04-1.27-2.07-2.64-3.02-4.38c-0.47-0.88-0.92-1.84-1.27-3.02c-0.35-1.18-0.62-2.6-0.47-4.33c0.07-0.85,0.29-1.78,0.62-2.67
			c0.18-0.44,0.37-0.89,0.62-1.29l0.35-0.59l0.16-0.24l1.31-1.94c3.56-5.02,7.43-9.44,11.52-13.59c2.04-2.08,4.1-4.12,6.24-6.07
			c2.16-1.97,4.24-3.85,6.59-5.78c2.97-2.43,7.36-1.99,9.79,0.98c2.43,2.97,1.99,7.36-0.98,9.79L261.44,94.51z"/>
		<path class="st11" d="M261.44,94.51c-1.98,1.63-4.11,3.43-6.13,5.21c-2.03,1.79-4.06,3.59-6.01,5.44
			c-3.89,3.7-7.68,7.51-10.84,11.46l-1.14,1.48l-0.14,0.19c0-0.01,0.06-0.09,0.08-0.14c0.05-0.11,0.12-0.23,0.15-0.35
			c0.09-0.23,0.12-0.48,0.13-0.63c0-0.33-0.06-0.34-0.05-0.17c0.01,0.17,0.1,0.5,0.25,0.88c0.31,0.77,0.86,1.73,1.51,2.69
			c0.65,0.96,1.41,1.94,2.22,2.92c1.61,1.96,3.41,3.92,5.3,5.8c1.87,1.89,3.89,3.8,5.8,5.55l0.12,0.11
			c1.83,1.67,1.96,4.51,0.29,6.35c-1.5,1.64-3.95,1.92-5.76,0.75c-5.01-3.23-9.55-6.68-13.99-10.95c-1.09-1.09-2.16-2.23-3.21-3.5
			c-1.04-1.27-2.07-2.64-3.02-4.38c-0.47-0.88-0.92-1.84-1.27-3.02c-0.35-1.18-0.62-2.6-0.47-4.33c0.07-0.85,0.29-1.78,0.62-2.67
			c0.18-0.44,0.37-0.89,0.62-1.29l0.35-0.59l0.16-0.24l1.31-1.94c3.56-5.02,7.43-9.44,11.52-13.59c2.04-2.08,4.1-4.12,6.24-6.07
			c2.16-1.97,4.24-3.85,6.59-5.78c2.97-2.43,7.36-1.99,9.79,0.98c2.43,2.97,1.99,7.36-0.98,9.79L261.44,94.51z"/>
	</g>
	<path class="st12" d="M254.17,136.48l6.8,4.16l-8.69,4.95c0,0-5.78-4.31-3.3-7.11l2.9-1.95
		C252.56,136.07,253.46,136.05,254.17,136.48z"/>
	<path class="st12" d="M261.34,148.19l-3.74,2.21c-1.09,0.65-2.51,0.26-3.12-0.85l-2.21-3.96l8.69-4.95l1.4,5
		C262.64,146.62,262.22,147.67,261.34,148.19z"/>
</g>
<g>
	<g>
		<path class="st8" d="M326.39,77.62l9.22-1.81c-2.53,4.46,1.19,8.73,4.53,11.41c1.6,1.28,0.47,3.57-1.97,4.05l-5.99,1.17
			C324.89,93.87,326.39,77.62,326.39,77.62z"/>
		<g>
			<path class="st8" d="M322.73,78.34l21.11-4.14c6.85-1.34,11.36-8.05,10.02-14.9l0,0c-1.34-6.85-8.05-11.36-14.9-10.02
				l-21.11,4.14c-6.85,1.34-11.36,8.05-10.02,14.9l0,0C309.18,75.17,315.88,79.68,322.73,78.34z"/>
			<path class="st9" d="M322.73,78.34l21.11-4.14c6.85-1.34,11.36-8.05,10.02-14.9l0,0c-1.34-6.85-8.05-11.36-14.9-10.02
				l-21.11,4.14c-6.85,1.34-11.36,8.05-10.02,14.9l0,0C309.18,75.17,315.88,79.68,322.73,78.34z"/>
		</g>
		<path class="st8" d="M380.21,82.64l-35.98-0.48c-3.13,0.61-11.05-39.79-7.92-40.4l33.14-14.03L380.21,82.64z"/>
		<g>
			<path class="st8" d="M371.95,55.75c2.97,15.16,6.67,27.2,8.26,26.89c1.59-0.31,0.47-12.86-2.5-28.02
				c-2.97-15.16-6.67-27.2-8.26-26.89C367.85,28.04,368.98,40.59,371.95,55.75z"/>
			<path class="st14" d="M371.95,55.75c2.97,15.16,6.67,27.2,8.26,26.89c1.59-0.31,0.47-12.86-2.5-28.02
				c-2.97-15.16-6.67-27.2-8.26-26.89C367.85,28.04,368.98,40.59,371.95,55.75z"/>
		</g>
		<path class="st8" d="M385.48,53.88c-0.73-3.71-8.98-5.21-10.74-4.87c-1.76,0.35-2.61,3.63-1.88,7.34
			c0.73,3.71,2.75,6.43,4.51,6.09C379.13,62.09,386.2,57.59,385.48,53.88z"/>
	</g>
	
		<rect x="394.13" y="48.06" transform="matrix(0.9872 -0.1597 0.1597 0.9872 -2.3976 67.3422)" class="st8" width="47.45" height="1.07"/>
	
		<rect x="387.27" y="32.1" transform="matrix(0.761 -0.6488 0.6488 0.761 74.4028 267.2328)" class="st8" width="25.24" height="1.07"/>
	
		<rect x="421.45" y="72.68" transform="matrix(0.3328 -0.943 0.943 0.3328 209.4869 448.9185)" class="st8" width="1.07" height="7.47"/>
	
		<rect x="401.32" y="60.07" transform="matrix(0.318 -0.9481 0.9481 0.318 208.2166 428.3858)" class="st8" width="1.07" height="18.8"/>
</g>
</svg>
