<?xml version="1.0" encoding="utf-8"?>
<!-- Generator: Adobe Illustrator 26.0.1, SVG Export Plug-In . SVG Version: 6.00 Build 0)  -->
<svg version="1.1" id="Layer_1" xmlns="http://www.w3.org/2000/svg" xmlns:xlink="http://www.w3.org/1999/xlink" x="0px" y="0px"
	 width="56.4px" height="56.4px" viewBox="0 0 56.4 56.4" style="enable-background:new 0 0 56.4 56.4;" xml:space="preserve">
<style type="text/css">
	.st0{fill:#7D7D7D;}
</style>
<g>
	<path class="st0" d="M52.2,11.31c0,11.25,0,22.5,0,33.75c-8.09,0-16.18,0-24.28-0.01c-0.4,0-0.64,0.12-0.88,0.45
		c-3.02,4.19-8.46,6.17-13.4,4.76c-5.06-1.45-8.28-4.81-9.21-9.99C3.5,35.04,5.4,30.8,9.67,27.64c0.26-0.19,0.35-0.37,0.35-0.68
		c-0.01-5.03-0.01-10.06-0.01-15.09c0-0.18,0-0.36,0-0.55c1,0,1.92,0,2.84,0c0.92,0,1.83,0,2.79,0c0-0.57-0.02-1.08,0-1.59
		c0.08-2.18,1.91-3.99,4.09-4.03c2.37-0.05,4.29,1.8,4.33,4.17c0.01,0.48,0,0.95,0,1.43c0.97,0,1.87,0,2.81,0c0-0.24,0-0.45,0-0.67
		c-0.02-0.8,0.01-1.59,0.33-2.35c0.79-1.86,2.72-2.88,4.74-2.5c1.88,0.36,3.32,2.07,3.36,4.03c0.01,0.49,0,0.99,0,1.47
		c0.98,0,1.89,0,2.82,0c0-0.46,0-0.88,0-1.3c0.02-2.41,1.87-4.29,4.22-4.29c2.35,0,4.19,1.88,4.21,4.3c0,0.43,0,0.86,0,1.33
		C48.49,11.31,50.34,11.31,52.2,11.31z M49.35,42.23c0-6.57,0-13.11,0-19.64c-12.19,0-24.35,0-36.51,0c0,1.15,0,2.27,0,3.39
		c4.95-1.37,9.38-0.48,13,3.2c3.62,3.68,4.43,8.13,2.99,13.05C35.67,42.23,42.5,42.23,49.35,42.23z M16.84,47.88
		c5.42,0.01,9.85-4.4,9.86-9.82c0.01-5.42-4.39-9.85-9.81-9.87c-5.44-0.02-9.88,4.4-9.88,9.84C7.01,43.45,11.42,47.87,16.84,47.88z
		 M26.88,16.92c0-0.95,0-1.85,0-2.77c-2.82,0-5.61,0-8.44,0c0,0.94,0,1.85,0,2.76c-0.95,0-1.85,0-2.8,0c0-0.93,0-1.84,0-2.76
		c-0.96,0-1.87,0-2.79,0c0,1.87,0,3.71,0,5.57c12.18,0,24.34,0,36.51,0c0-1.87,0-3.72,0-5.57c-2.81,0-5.6,0-8.42,0
		c0,0.93,0,1.83,0,2.75c-0.95,0-1.86,0-2.82,0c0-0.94,0-1.85,0-2.76c-2.83,0-5.6,0-8.43,0c0,0.93,0,1.84,0,2.77
		C28.74,16.92,27.84,16.92,26.88,16.92z M21.26,11.3c0-0.53,0.02-1.01-0.01-1.49c-0.04-0.72-0.64-1.28-1.35-1.3
		c-0.68-0.02-1.34,0.47-1.42,1.17c-0.06,0.53-0.01,1.08-0.01,1.63C19.41,11.3,20.3,11.3,21.26,11.3z M32.51,11.29
		c0-0.52,0.02-0.99,0-1.45c-0.03-0.72-0.61-1.29-1.32-1.34c-0.68-0.04-1.35,0.43-1.45,1.13c-0.07,0.54-0.01,1.1-0.01,1.66
		C30.66,11.29,31.56,11.29,32.51,11.29z M43.76,11.3c0-0.53,0.02-1.01-0.01-1.49c-0.04-0.72-0.64-1.28-1.35-1.3
		c-0.68-0.02-1.34,0.47-1.42,1.17c-0.06,0.53-0.01,1.08-0.01,1.63C41.91,11.3,42.8,11.3,43.76,11.3z"/>
	<path class="st0" d="M32.54,25.4c1.86,0,3.69,0,5.56,0c0,0.91,0,1.82,0,2.76c-1.84,0-3.69,0-5.56,0
		C32.54,27.24,32.54,26.33,32.54,25.4z"/>
	<path class="st0" d="M40.97,28.16c0-0.92,0-1.82,0-2.76c1.85,0,3.7,0,5.58,0c0,0.91,0,1.82,0,2.76
		C44.7,28.16,42.86,28.16,40.97,28.16z"/>
	<path class="st0" d="M32.53,33.78c0-0.93,0-1.83,0-2.76c1.86,0,3.69,0,5.57,0c0,0.9,0,1.81,0,2.76
		C36.26,33.78,34.42,33.78,32.53,33.78z"/>
	<path class="st0" d="M46.55,31.03c0,0.93,0,1.83,0,2.76c-1.86,0-3.69,0-5.57,0c0-0.9,0-1.81,0-2.76
		C42.82,31.03,44.67,31.03,46.55,31.03z"/>
	<path class="st0" d="M32.54,36.65c1.88,0,3.71,0,5.57,0c0,0.92,0,1.82,0,2.76c-1.85,0-3.69,0-5.57,0
		C32.54,38.5,32.54,37.59,32.54,36.65z"/>
	<path class="st0" d="M46.55,36.66c0,0.93,0,1.83,0,2.76c-1.86,0-3.69,0-5.57,0c0-0.9,0-1.81,0-2.76
		C42.82,36.66,44.67,36.66,46.55,36.66z"/>
	<path class="st0" d="M15.48,31.02c0.93,0,1.83,0,2.77,0c0,1.86,0,3.7,0,5.59c0.94,0,1.86,0,2.8,0c0,0.96,0,1.87,0,2.81
		c-1.86,0-3.69,0-5.56,0C15.48,36.63,15.48,33.84,15.48,31.02z"/>
</g>
</svg>
