<?xml version="1.0" encoding="utf-8"?>
<!-- Generator: Adobe Illustrator 26.3.1, SVG Export Plug-In . SVG Version: 6.00 Build 0)  -->
<svg version="1.1" id="Layer_1" xmlns="http://www.w3.org/2000/svg" xmlns:xlink="http://www.w3.org/1999/xlink" x="0px" y="0px"
	 width="24.6px" height="24.6px" viewBox="0 0 24.6 24.6" style="enable-background:new 0 0 24.6 24.6;" xml:space="preserve">
<style type="text/css">
	.st0{fill:#EFEFEF;}
</style>
<circle class="st0" cx="12.6" cy="12.3" r="12.2"/>
<g>
	<path d="M10.19,16.99c-0.33-0.03-0.62-0.13-0.88-0.32c-0.28-0.21-0.47-0.49-0.58-0.82c-0.26-0.81-0.52-1.61-0.78-2.42
		c-0.03-0.09-0.07-0.12-0.16-0.11c-0.06,0.01-0.12,0-0.18-0.01c-0.15-0.03-0.25-0.16-0.25-0.3c0-0.15,0.12-0.28,0.27-0.29
		c0.04-0.01,0.09,0,0.13,0c3.22,0,6.45,0,9.67,0c0.04,0,0.09,0,0.13,0c0.15,0.02,0.26,0.14,0.26,0.28c0.01,0.16-0.09,0.28-0.24,0.31
		c-0.04,0.01-0.07,0.01-0.11,0.01c-0.2,0-0.2,0-0.26,0.2c-0.24,0.76-0.5,1.51-0.73,2.27c-0.22,0.72-0.72,1.11-1.47,1.21
		c0,0.07,0,0.14,0,0.21c-0.01,0.18-0.13,0.32-0.3,0.32c-0.17,0-0.3-0.13-0.31-0.32c0-0.06,0-0.13,0-0.2c-1.2,0-2.39,0-3.6,0
		c0,0.07,0,0.13,0,0.19c-0.01,0.2-0.14,0.34-0.31,0.33c-0.17,0-0.29-0.14-0.3-0.33C10.19,17.12,10.19,17.06,10.19,16.99z"/>
	<path d="M10.79,8.47c0.1,0,0.19,0,0.28,0c0.19,0,0.33,0.13,0.33,0.3c0,0.17-0.13,0.3-0.33,0.31c-0.4,0-0.79,0-1.19,0
		c-0.19,0-0.32-0.13-0.32-0.31c0-0.17,0.13-0.29,0.32-0.3c0.09,0,0.19,0,0.28,0c0.06-0.37-0.13-0.68-0.47-0.76
		C9.38,7.63,9.06,7.82,8.97,8.13C8.95,8.21,8.94,8.3,8.94,8.39c0,1.18,0,2.36,0,3.55c0,0.05,0,0.09,0,0.15c-0.2,0-0.4,0-0.61,0
		c0-0.03-0.01-0.06-0.01-0.1c0-1.21,0-2.43,0-3.64c0-0.62,0.4-1.12,0.98-1.24c0.75-0.15,1.45,0.41,1.47,1.17
		C10.79,8.33,10.79,8.39,10.79,8.47z"/>
</g>
</svg>
