<?xml version="1.0" encoding="utf-8"?>
<!-- Generator: Adobe Illustrator 26.0.1, SVG Export Plug-In . SVG Version: 6.00 Build 0)  -->
<svg version="1.1" id="Layer_1" xmlns="http://www.w3.org/2000/svg" xmlns:xlink="http://www.w3.org/1999/xlink" x="0px" y="0px"
	 width="23.82px" height="21.23px" viewBox="0 0 23.82 21.23" style="enable-background:new 0 0 23.82 21.23;" xml:space="preserve"
	>
<style type="text/css">
	.st0{fill:#777777;}
</style>
<g>
	<path class="st0" d="M11.26,2.27c0.27,0.11,0.37,0.32,0.35,0.61c-0.01,0.14,0,0.28,0,0.42c0,0.1-0.03,0.15-0.14,0.15
		c-0.22-0.01-0.43-0.01-0.65,0c-0.09,0-0.14-0.02-0.14-0.13c0-0.19,0-0.39,0-0.58c0.01-0.23,0.15-0.37,0.35-0.46
		C11.11,2.27,11.18,2.27,11.26,2.27z"/>
	<path class="st0" d="M5.29,8.28C5.37,7.17,5.87,6.25,6.67,5.5c1.01-0.94,2.23-1.44,3.59-1.6c1.42-0.17,2.78,0.04,4.06,0.69
		c1.08,0.55,1.92,1.35,2.41,2.49c0.19,0.45,0.28,0.92,0.29,1.41c0,0.05-0.04,0.14-0.06,0.15c-0.06,0.01-0.14-0.02-0.18-0.06
		c-0.35-0.32-0.75-0.54-1.22-0.61c-0.71-0.1-1.33,0.08-1.87,0.55c-0.18,0.16-0.18,0.16-0.38,0.01c-1.31-1.02-3.03-1.02-4.33,0
		C8.79,8.68,8.79,8.68,8.6,8.51C7.74,7.73,6.42,7.74,5.57,8.53C5.55,8.55,5.53,8.58,5.51,8.59C5.45,8.61,5.38,8.64,5.34,8.63
		C5.3,8.62,5.28,8.53,5.27,8.48C5.27,8.41,5.28,8.35,5.29,8.28z"/>
	<path class="st0" d="M8.25,16.88c-0.4,0-0.77,0-1.14,0c-0.21,0-0.25-0.04-0.25-0.25c0-0.18,0-0.37,0-0.55
		c0-0.19,0.05-0.24,0.24-0.24c0.51,0,1.02,0,1.53,0c1.27,0,2.54,0,3.81,0c0.12,0,0.18-0.03,0.23-0.15c0.17-0.36,0.36-0.72,0.53-1.08
		c0.07-0.16,0.17-0.22,0.35-0.22c0.89,0.01,1.77,0,2.66,0.01c0.12,0,0.18-0.03,0.23-0.14c0.31-0.65,0.63-1.28,0.94-1.93
		c0.07-0.15,0.17-0.21,0.33-0.2c0.19,0.01,0.38,0,0.57,0c0.27,0,0.32,0.09,0.2,0.33c-0.69,1.42-1.37,2.84-2.07,4.26
		c-0.06,0.12-0.06,0.21,0.01,0.33c0.28,0.53,0.56,1.07,0.84,1.6c0.11,0.22,0.06,0.31-0.19,0.31c-0.21,0-0.41-0.01-0.62,0
		c-0.15,0.01-0.23-0.06-0.29-0.19c-0.28-0.59-0.56-1.17-0.84-1.76c-0.05-0.1-0.11-0.14-0.22-0.14c-1.85,0-3.69,0-5.54,0
		c-0.12,0-0.17,0.04-0.22,0.14c-0.28,0.58-0.56,1.16-0.83,1.75c-0.07,0.14-0.16,0.2-0.32,0.2c-0.21-0.01-0.42,0-0.64,0
		c-0.19,0-0.26-0.1-0.17-0.27c0.26-0.54,0.52-1.09,0.78-1.63C8.19,17.01,8.22,16.96,8.25,16.88z M13.52,15.81
		c0.03,0.01,0.03,0.02,0.04,0.02c0.67,0,1.34,0,2.02,0c0.04,0,0.1-0.02,0.11-0.04c0.1-0.19,0.19-0.38,0.29-0.58
		c-0.04-0.01-0.05-0.02-0.07-0.02c-0.67,0-1.33,0-2,0c-0.04,0-0.1,0.03-0.11,0.06C13.69,15.44,13.61,15.63,13.52,15.81z"/>
	<path class="st0" d="M11.61,11.84c0,1.09,0,2.18,0,3.27c0,0.17-0.05,0.22-0.21,0.21c-0.19-0.01-0.39-0.01-0.59,0
		c-0.1,0-0.14-0.04-0.13-0.13c0-0.03,0-0.07,0-0.1c0-2.18,0-4.37,0-6.55c0-0.17,0.05-0.25,0.22-0.25c0.18,0,0.36,0.01,0.54,0.01
		c0.14,0,0.18,0.07,0.18,0.21C11.61,9.61,11.61,10.72,11.61,11.84z"/>
	<path class="st0" d="M11.61,18.02c0,0.15,0,0.29,0,0.44c-0.01,0.3-0.2,0.5-0.46,0.5c-0.27,0-0.46-0.2-0.46-0.5
		c-0.01-0.3,0-0.61,0-0.91c0-0.1,0.03-0.15,0.14-0.15c0.22,0.01,0.43,0,0.65,0c0.11,0,0.14,0.05,0.14,0.15
		C11.61,17.7,11.61,17.86,11.61,18.02z"/>
</g>
</svg>
