<?xml version="1.0" encoding="utf-8"?>
<!-- Generator: Adobe Illustrator 26.0.1, SVG Export Plug-In . SVG Version: 6.00 Build 0)  -->
<svg version="1.1" id="Layer_1" xmlns="http://www.w3.org/2000/svg" xmlns:xlink="http://www.w3.org/1999/xlink" x="0px" y="0px"
	 width="23.82px" height="21.23px" viewBox="0 0 23.82 21.23" style="enable-background:new 0 0 23.82 21.23;" xml:space="preserve"
	>
<style type="text/css">
	.st0{fill:#777777;}
</style>
<g>
	<path class="st0" d="M1.1,9.62c0.18-0.45,0.57-0.71,0.91-1C3.18,7.64,4.5,6.9,5.87,6.26c1.35-0.63,2.74-1.16,4.22-1.42
		c0.3-0.05,0.6-0.09,0.9-0.12c0.39-0.04,0.61,0.09,0.79,0.46c0.47,1,0.94,2,1.4,3c0.44,0.95,0.92,1.88,1.31,2.85
		c1.18,2.91,0.35,6.19-2.03,8.24c-0.44,0.38-0.96,0.44-1.49,0.48c-3.13,0.24-5.91-1.38-7.25-4.23C2.86,13.68,2,11.83,1.13,9.98
		C1.13,9.97,1.11,9.97,1.1,9.96C1.1,9.84,1.1,9.73,1.1,9.62z M8.75,16.66c0-0.02,0.01-0.03,0.01-0.05c1.7,0,3.26-1.07,3.82-2.63
		c0.14-0.38-0.02-0.74-0.37-0.87c-0.34-0.13-0.7,0.03-0.83,0.4c-0.5,1.38-2.08,2.16-3.51,1.65c-0.36-0.13-0.73,0.05-0.84,0.39
		c-0.12,0.35,0.06,0.72,0.44,0.83C7.88,16.49,8.32,16.57,8.75,16.66z M7.48,11.8c0-0.27-0.15-0.51-0.4-0.61
		c-1.07-0.44-2.43,0.2-2.77,1.3c-0.07,0.23-0.02,0.43,0.13,0.61c0.31,0.37,0.88,0.28,1.08-0.18c0.14-0.32,0.37-0.53,0.72-0.56
		c0.14-0.01,0.28,0.02,0.41,0.05C7.08,12.5,7.47,12.22,7.48,11.8z M11.59,10.17c0.36,0,0.62-0.21,0.68-0.52
		c0.06-0.3-0.11-0.6-0.41-0.72c-1.07-0.42-2.37,0.19-2.74,1.29c-0.15,0.45,0.2,0.89,0.66,0.85c0.26-0.02,0.43-0.17,0.54-0.41
		c0.23-0.49,0.59-0.65,1.11-0.52C11.5,10.16,11.56,10.17,11.59,10.17z"/>
	<path class="st0" d="M22.72,9.58c-0.07,0.38-0.11,0.77-0.21,1.14c-0.74,2.77-2.49,4.54-5.23,5.35c-0.43,0.13-0.83,0.01-1.25-0.15
		c0.36-1.42,0.38-2.84,0.03-4.28c0.48-0.15,0.95-0.16,1.42-0.06c0.48,0.11,0.9,0.34,1.27,0.67c0.11,0.1,0.25,0.19,0.39,0.23
		c0.28,0.08,0.56-0.06,0.7-0.31c0.14-0.26,0.1-0.56-0.13-0.79c-0.53-0.52-1.15-0.87-1.87-1.04c-0.68-0.16-1.35-0.16-2.02,0.03
		c-0.05,0.01-0.1,0.02-0.16,0.03c-0.46-0.97-0.91-1.94-1.37-2.92c0.23-0.03,0.44-0.05,0.64-0.1c0.36-0.08,0.68-0.27,0.94-0.53
		c0.27-0.26,0.29-0.64,0.05-0.91c-0.23-0.26-0.62-0.3-0.89-0.05c-0.37,0.34-0.89,0.34-1.3,0.01c-0.23-0.19-0.37-0.39-0.49-0.65
		c-0.21-0.46-0.44-0.91-0.64-1.37c-0.14-0.3-0.35-0.46-0.68-0.47c-0.29,0-0.57,0-0.87,0c0-0.21-0.02-0.4,0-0.59
		c0.04-0.3,0.23-0.49,0.51-0.59c0.95-0.34,1.92-0.53,2.92-0.64c1.59-0.17,3.17-0.17,4.76,0c0.95,0.1,1.89,0.29,2.8,0.59
		c0.32,0.11,0.56,0.27,0.68,0.6C22.72,5.05,22.72,7.31,22.72,9.58z M19.69,7.45c0.53,0,1.03-0.19,1.45-0.58
		c0.29-0.27,0.31-0.67,0.07-0.94c-0.24-0.26-0.63-0.27-0.93-0.02c-0.4,0.34-0.81,0.34-1.21,0c-0.29-0.25-0.68-0.24-0.93,0.03
		C17.9,6.2,17.93,6.6,18.21,6.86C18.61,7.24,19.09,7.43,19.69,7.45z"/>
</g>
</svg>
