<?xml version="1.0" encoding="utf-8"?>
<!-- Generator: Adobe Illustrator 26.0.1, SVG Export Plug-In . SVG Version: 6.00 Build 0)  -->
<svg version="1.1" id="Layer_1" xmlns="http://www.w3.org/2000/svg" xmlns:xlink="http://www.w3.org/1999/xlink" x="0px" y="0px"
	 width="56.4px" height="56.4px" viewBox="0 0 56.4 56.4" style="enable-background:new 0 0 56.4 56.4;" xml:space="preserve">
<style type="text/css">
	.st0{fill:#7D7D7D;}
</style>
<g>
	<path class="st0" d="M5.93,37.05c-0.1-0.02-0.13-0.04-0.17-0.03c-1.33,0.09-1.5-0.32-1.45-1.53c0.03-0.74,0-1.48,0.01-2.22
		c0-0.83,0.26-1.09,1.07-1.09c0.43,0,0.87,0,1.33,0c0-0.81,0-1.58,0-2.38c0.55,0,1.06,0,1.62,0c0,0.78,0,1.56,0,2.36
		c2.44,0,4.82,0,7.23,0c0-0.78,0-1.56,0-2.38c-1.31,0-2.61,0-3.96,0c0-0.55,0-1.06,0-1.63c0.17,0,0.34,0,0.52,0c2.15,0,4.3,0,6.46,0
		c2.62,0,4.09,1.35,4.31,4c0.51,0,1.02,0,1.57,0c0.01-0.17,0.02-0.33,0.02-0.49c0-2.76,0-5.51,0-8.27c0-0.91-0.21-1.21-1.07-1.54
		c-0.69-0.26-1.38-0.52-2.18-0.82c0.24,0.63,0.44,1.16,0.66,1.69c0.16,0.37,0.27,0.73-0.02,1.09c-0.29,0.35-0.66,0.31-1.06,0.24
		c-1.41-0.25-2.81-0.54-4.23-0.68c-0.71-0.07-1.46,0.17-2.18,0.28c-0.86,0.14-1.72,0.3-2.58,0.43c-0.77,0.12-1.22-0.44-0.95-1.18
		c0.11-0.3,0.24-0.59,0.35-0.89c0.12-0.29,0.23-0.58,0.39-1c-0.97,0.38-1.85,0.69-2.7,1.07c-0.45,0.2-0.58,0.66-0.57,1.15
		c0.01,1.43,0,2.86,0,4.29c0,0.18,0,0.37,0,0.59c-0.53,0-1.04,0-1.61,0c0-0.62,0-1.23,0-1.85c0-1.03,0-2.05,0-3.08
		c0.01-1.32,0.7-2.32,1.94-2.78c1.13-0.43,2.27-0.83,3.39-1.28c0.21-0.08,0.41-0.28,0.52-0.48c0.32-0.57,0.6-1.16,0.91-1.79
		c-0.16-0.1-0.31-0.2-0.46-0.3c-0.97-0.59-1.45-1.46-1.45-2.59c0-1.41-0.01-2.82,0-4.24c0-0.27-0.05-0.45-0.31-0.61
		c-0.86-0.54-1.28-1.35-1.3-2.36c-0.01-0.64-0.01-1.28,0-1.92c0.01-0.6,0.31-0.9,0.91-0.9c1.75-0.01,3.5-0.02,5.24,0.01
		c0.4,0.01,0.88,0.1,1.19,0.33c0.66,0.47,1.41,0.57,2.14,0.8c0.55,0.17,1.13,0.37,1.59,0.71c1.07,0.8,1.16,2,0.97,3.2
		c-0.04,0.27-0.43,0.49-0.75,0.83c0,1.19-0.03,2.56,0.01,3.92c0.03,1.32-0.48,2.3-1.64,2.95c-0.09,0.05-0.16,0.11-0.27,0.19
		c0.33,0.65,0.63,1.3,0.98,1.93c0.08,0.15,0.29,0.27,0.46,0.34c1.1,0.42,2.2,0.82,3.3,1.24c1.37,0.52,2.01,1.47,2.01,2.93
		c0,2.76,0,5.51,0,8.27c0,0.18,0,0.36,0,0.6c0.38,0,0.73,0,1.08,0c1.71,0,3.43,0,5.14,0c0.76,0,1.04,0.27,1.04,1.03
		c0,0.89,0,1.78,0,2.67c0,0.9-0.24,1.14-1.13,1.14c-0.13,0-0.27,0-0.46,0c0,2.95,0,5.88,0,8.84c-0.56,0-1.07,0-1.62,0
		c0-2.92,0-5.84,0-8.8c-7.54,0-15.04,0-22.58,0c0,4.53,0,9.07,0,13.67c6.16,0,12.32,0,18.5,0c0,0.55,0,1.05,0,1.62
		c-0.18,0-0.36,0-0.53,0c-6.15,0-12.31,0-18.46,0c-0.93,0-1.16-0.23-1.16-1.16c0-4.5,0-9.01,0-13.51
		C5.93,37.47,5.93,37.27,5.93,37.05z M31.73,33.82c-8.62,0-17.2,0-25.76,0c0,0.55,0,1.05,0,1.55c8.61,0,17.17,0,25.76,0
		C31.73,34.85,31.73,34.35,31.73,33.82z M13.2,9.6c0,1.55-0.01,3.04,0,4.54c0,0.45,0.25,0.79,0.64,1.02
		c0.63,0.38,1.27,0.76,1.9,1.14c0.46,0.28,0.92,0.27,1.38,0c0.62-0.37,1.24-0.75,1.86-1.11c0.48-0.28,0.69-0.7,0.68-1.26
		c-0.01-0.86,0-1.71,0-2.57c0-0.58,0-1.16,0-1.75C17.47,9.6,15.36,9.6,13.2,9.6z M11.58,5.54c0,0.38,0,0.71,0,1.04
		c0.01,0.89,0.48,1.37,1.37,1.37c1.16,0.01,2.32,0,3.47,0c0.26,0,0.52,0,0.81,0c0-0.44,0.01-0.81,0-1.17
		c-0.02-0.74-0.5-1.24-1.24-1.24C14.54,5.53,13.1,5.54,11.58,5.54z M14.89,17.68c-0.26,0.51-0.48,0.96-0.66,1.33
		c0.77,0.77,1.5,1.51,2.2,2.21c0.7-0.7,1.43-1.44,2.2-2.2c-0.2-0.39-0.43-0.85-0.68-1.33C16.92,18.25,15.92,18.25,14.89,17.68z
		 M21.22,32.15c0.11-1.01-0.48-2.03-1.46-2.25c-0.81-0.18-1.67-0.14-2.51-0.19c0,0.89,0,1.66,0,2.44
		C18.59,32.15,19.91,32.15,21.22,32.15z M20.44,7.95c-0.09-0.87-0.56-1.25-1.56-1.3c0,0.43,0,0.86,0,1.3
		C19.41,7.95,19.91,7.95,20.44,7.95z M13.44,20.81c-0.18,0.45-0.36,0.91-0.57,1.45c0.65-0.11,1.21-0.2,1.81-0.3
		C14.26,21.56,13.87,21.2,13.44,20.81z M19.98,22.26c-0.23-0.56-0.42-1.03-0.59-1.44c-0.42,0.39-0.8,0.74-1.23,1.14
		C18.76,22.06,19.32,22.15,19.98,22.26z"/>
	<path class="st0" d="M48.45,20.99c0.26,0.17,0.58,0.33,0.85,0.54c0.59,0.47,0.94,1.11,0.99,1.86c0.05,0.75,0.01,1.51,0.01,2.29
		c-0.52,0-1.02,0-1.6,0c0-0.56,0-1.14,0-1.72c0-1.03-0.45-1.47-1.47-1.47c-1.61,0-3.23-0.01-4.84,0.01c-0.16,0-0.41,0.07-0.45,0.17
		c-0.57,1.48-1.39,2.88-1.31,4.55c0.05,1.11,0.01,2.22,0.01,3.33c0,0.25,0,0.5,0,0.78c1.35,0,2.67,0,4.02,0c0-1.85,0-3.7,0-5.58
		c0.55,0,1.06,0,1.6,0c0.01,0.14,0.03,0.29,0.03,0.43c0,1.9,0,3.8,0,5.7c0,0.83-0.26,1.09-1.08,1.09c-0.97,0-1.94,0-2.94,0
		c0,0.82,0,1.58,0,2.39c2.13,0,4.25,0,6.41,0c0-2.65,0-5.3,0-7.99c0.55,0,1.06,0,1.57,0c0.16,0.72,0.05,11.95-0.14,12.87
		c0.56,0,1.1,0,1.65,0c0.69,0.01,0.99,0.29,0.98,0.98c-0.02,0.62,0,1.26-0.15,1.85c-0.41,1.65-1.91,2.79-3.63,2.81
		c-1.14,0.02-2.28,0-3.44,0c0,1.08,0,2.12,0,3.23c0.66,0,1.32-0.01,1.99,0c1.73,0.03,2.96,1.43,2.79,3.2c-0.51,0-1.02,0-1.56,0
		c-0.01-0.13-0.01-0.24-0.02-0.35c-0.05-0.75-0.51-1.22-1.26-1.23c-1.85-0.01-3.7-0.01-5.55,0c-0.83,0.01-1.22,0.49-1.28,1.57
		c-0.51,0-1.02,0-1.53,0c-0.35-1.54,0.97-3.13,2.66-3.18c0.69-0.02,1.37,0,2.08,0c0-1.08,0-2.11,0-3.19
		c-0.1-0.01-0.21-0.04-0.32-0.04c-1.31,0-2.62,0.01-3.93-0.01c-0.3,0-0.45,0.08-0.53,0.38c-0.15,0.58-0.27,1.2-0.54,1.73
		c-0.6,1.17-0.76,2.46-1.12,3.7c-0.12,0.42-0.4,0.65-0.85,0.65c-2.66,0-5.31,0.01-7.97,0c-0.57,0-0.86-0.35-0.85-0.96
		c0.03-2.05,1.8-3.81,3.9-3.88c0.96-0.03,0.96-0.03,1.17-0.99c0.5-2.37,1-4.73,1.49-7.1c0.19-0.91,0.56-1.72,1.06-2.28
		c-0.14-0.49-0.32-0.86-0.35-1.24c-0.08-1.01,0.04-1.98,0.64-2.84c0.8-1.15,1.92-1.69,3.38-1.71c0-0.16,0-0.32,0-0.48
		c0-1.21,0.02-2.42-0.01-3.63c-0.02-1.13,0.19-2.2,0.63-3.24c0.16-0.37,0.29-0.75,0.46-1.12c0.31-0.7,0.62-1.35,0-2.11
		c-0.28-0.34-0.24-0.95-0.37-1.51c-0.14,0-0.36,0.01-0.57,0c-1.03-0.06-1.66-1.04-1.24-1.98c0.28-0.63,0.62-1.23,0.9-1.86
		c0.11-0.25,0.18-0.54,0.19-0.81c0.05-0.71,0.08-1.36-0.73-1.83c-0.63-0.37-0.86-1.14-0.87-1.9C37.39,9.94,37.4,9,37.41,8.05
		c0.01-0.59,0.31-0.89,0.91-0.89c2.22-0.01,4.44-0.02,6.66,0.01c2.02,0.03,3.69,1.69,3.71,3.71c0.03,2.94,0.02,5.88,0,8.83
		C48.69,20.13,48.54,20.55,48.45,20.99z M48.7,37.04c-0.12-0.01-0.17-0.02-0.22-0.02c-3.11,0-6.22-0.01-9.33,0
		c-1.66,0-2.91,1.03-3.26,2.66c-0.33,1.56-0.66,3.12-0.99,4.68c-0.22,1.03-0.43,2.06-0.65,3.12c0.94,0,1.83,0,2.74,0
		c0.06-0.19,0.14-0.37,0.19-0.56c0.59-1.91,1.17-3.82,1.75-5.73c0.26-0.85,0.4-0.95,1.28-0.95c2.37,0,4.74,0,7.11,0
		c0.79,0,1.32-0.42,1.36-1.12C48.73,38.44,48.7,37.76,48.7,37.04z M39.51,17.65c0.43,0,0.77-0.01,1.1,0
		c0.51,0.02,0.8,0.32,0.83,0.83c0.02,0.34,0,0.67,0.01,1.01c0.01,0.9,0.47,1.38,1.36,1.38c0.98,0.01,1.95,0.01,2.93,0
		c0.89-0.01,1.36-0.48,1.36-1.38c0.01-1.7,0-3.4,0-5.09c0-0.25,0-0.49,0-0.75c-2.18,0-4.3,0-6.52,0
		C40.98,15.16,40.18,16.34,39.51,17.65z M39.71,44.2c0.05,0.03,0.07,0.05,0.08,0.05c3.12,0,6.24,0.05,9.36-0.01
		c1.21-0.02,2.1-1.22,1.91-2.39c-0.91,0-1.84,0-2.76,0c-2.48,0-4.97,0-7.45,0.01c-0.17,0-0.44,0.09-0.48,0.2
		C40.12,42.77,39.92,43.5,39.71,44.2z M47.09,11.99c0-0.29,0-0.52,0-0.76c0-1.57-0.9-2.46-2.47-2.46c-1.7,0-3.4,0-5.09,0
		c-0.16,0-0.32,0.01-0.5,0.02c0,0.62,0,1.19,0,1.76c0,0.1,0,0.2,0.01,0.3c0.05,0.63,0.51,1.13,1.14,1.13
		C42.45,12.01,44.74,11.99,47.09,11.99z M29.56,50.71c2.14,0,4.28,0,6.42,0c0.13-0.53,0.25-1.04,0.38-1.58
		c-1.64,0-3.2-0.02-4.76,0.01C30.63,49.16,29.76,49.86,29.56,50.71z M36.62,35.37c1.35,0,2.67,0,3.97,0c0-0.81,0-1.59,0-2.38
		c-0.67,0-1.31-0.03-1.94,0.01C37.44,33.06,36.56,34.1,36.62,35.37z"/>
	<path class="st0" d="M18.84,45.89c-2.59,0-5.18,0-7.77,0c-0.86,0-1.11-0.25-1.11-1.11c0-1.45,0-2.89,0-4.34
		c0-0.73,0.28-1.01,1.01-1.01c5.25,0,10.49,0,15.74,0c0.72,0,1.01,0.28,1.01,1.01c0,1.48,0,2.96,0,4.44c0,0.72-0.29,1.01-1.01,1.01
		C24.09,45.89,21.47,45.89,18.84,45.89z M11.62,41.07c0,1.1,0,2.14,0,3.18c4.84,0,9.64,0,14.46,0c0-1.07,0-2.12,0-3.18
		C21.25,41.07,16.45,41.07,11.62,41.07z"/>
	<path class="st0" d="M27.64,17.65c-1.78,0-3.56,0-5.34,0c-0.39,0-0.74-0.07-0.94-0.45c-0.2-0.39-0.04-0.7,0.2-1.02
		c0.64-0.84,1.28-1.68,1.9-2.55c0.13-0.19,0.22-0.45,0.22-0.68c0.02-1.23,0-2.45,0.01-3.68c0.01-1.71,1.21-2.92,2.92-2.92
		c2.08-0.01,4.17-0.01,6.25,0c1.71,0.01,2.92,1.21,2.93,2.92c0.01,1.81,0.01,3.63,0,5.44c-0.01,1.74-1.22,2.93-2.96,2.94
		C31.1,17.65,29.37,17.65,27.64,17.65z M23.71,16.01c0.15,0.02,0.22,0.03,0.28,0.03c2.96,0,5.91,0.01,8.87,0
		c0.82,0,1.31-0.5,1.31-1.33c0.01-1.78,0.01-3.56,0-5.34c0-0.92-0.47-1.39-1.4-1.39c-2.02,0-4.03,0-6.05,0
		c-0.96,0-1.43,0.46-1.43,1.41c0,1.34,0.01,2.69-0.01,4.03c-0.01,0.28-0.12,0.59-0.27,0.83C24.62,14.82,24.18,15.37,23.71,16.01z"/>
	<path class="st0" d="M26.94,9.6c1.86,0,3.71,0,5.58,0c0,0.51,0,1.02,0,1.56c-1.85,0-3.7,0-5.58,0
		C26.94,10.65,26.94,10.16,26.94,9.6z"/>
	<path class="st0" d="M26.95,12.83c1.88,0,3.72,0,5.59,0c0,0.52,0,1.02,0,1.55c-1.85,0-3.7,0-5.59,0
		C26.95,13.88,26.95,13.37,26.95,12.83z"/>
</g>
</svg>
