<?xml version="1.0" encoding="utf-8"?>
<!-- Generator: Adobe Illustrator 26.0.1, SVG Export Plug-In . SVG Version: 6.00 Build 0)  -->
<svg version="1.1" id="Layer_1" xmlns="http://www.w3.org/2000/svg" xmlns:xlink="http://www.w3.org/1999/xlink" x="0px" y="0px"
	 width="23.82px" height="21.23px" viewBox="0 0 23.82 21.23" style="enable-background:new 0 0 23.82 21.23;" xml:space="preserve"
	>
<style type="text/css">
	.st0{fill:#777777;}
</style>
<g>
	<path class="st0" d="M2.32,12.27c0-0.17,0-0.35,0-0.52c0.01-0.02,0.02-0.03,0.02-0.05c0.14-0.77,0.56-1.33,1.27-1.68
		C3.64,10,3.67,9.91,3.67,9.86C3.63,9.32,3.57,8.79,3.53,8.25C3.48,7.47,3.52,6.7,3.79,5.96c0.65-1.72,2-2.51,3.74-2.75
		c0.17-0.02,0.3-0.08,0.43-0.18c1.15-0.89,2.44-1.4,3.91-1.41c0.78-0.01,1.55,0.08,2.31,0.23c1.44,0.3,2.8,0.79,3.98,1.69
		c1.43,1.09,2.2,2.51,2.14,4.33c-0.02,0.65-0.09,1.31-0.15,1.96c-0.01,0.11,0.02,0.16,0.12,0.21c0.9,0.45,1.36,1.34,1.21,2.34
		c-0.14,0.91-0.89,1.64-1.85,1.79c-0.12,0.02-0.16,0.07-0.21,0.17c-0.17,0.39-0.33,0.8-0.54,1.17c-1.93,3.49-6.21,5.02-9.9,3.53
		c-2.2-0.89-3.72-2.47-4.57-4.69c-0.05-0.12-0.1-0.17-0.23-0.19c-0.8-0.14-1.37-0.58-1.69-1.32C2.41,12.66,2.37,12.46,2.32,12.27z
		 M9.02,7.72C8.84,7.96,8.67,8.21,8.46,8.44c-0.63,0.68-1.43,1.1-2.29,1.4c-0.11,0.04-0.18,0.08-0.21,0.2
		c-0.24,0.85-0.48,1.69-0.72,2.54c-0.02,0.06-0.03,0.14-0.02,0.2c0.59,3.54,3.94,6.02,7.52,5.58c2.9-0.36,5.27-2.56,5.83-5.41
		c0.03-0.16,0.02-0.34-0.02-0.49c-0.2-0.74-0.43-1.47-0.62-2.21C17.88,10.05,17.8,10,17.61,10c-1.51-0.02-3.02-0.14-4.5-0.46
		c-1.12-0.24-2.21-0.58-3.2-1.18C9.6,8.16,9.31,7.93,9.02,7.72z"/>
	<path class="st0" d="M11.9,16.81c-0.9-0.02-1.69-0.31-2.35-0.92c-0.28-0.26-0.31-0.63-0.08-0.88c0.23-0.25,0.6-0.26,0.89-0.01
		c0.92,0.81,2.19,0.81,3.12,0c0.28-0.25,0.66-0.25,0.89,0.01c0.23,0.26,0.2,0.62-0.08,0.88C13.6,16.51,12.81,16.79,11.9,16.81z"/>
	<path class="st0" d="M16.31,12.01c0,0.67-0.53,1.2-1.2,1.2c-0.66,0-1.2-0.55-1.2-1.21c0.01-0.65,0.54-1.19,1.2-1.19
		C15.77,10.81,16.31,11.34,16.31,12.01z"/>
	<path class="st0" d="M7.52,12.02c0-0.67,0.53-1.21,1.19-1.21c0.66,0,1.21,0.54,1.2,1.2c0,0.65-0.54,1.19-1.19,1.2
		C8.06,13.22,7.52,12.68,7.52,12.02z"/>
</g>
</svg>
