<?xml version="1.0" encoding="utf-8"?>
<!-- Generator: Adobe Illustrator 26.0.1, SVG Export Plug-In . SVG Version: 6.00 Build 0)  -->
<svg version="1.1" id="Layer_1" xmlns="http://www.w3.org/2000/svg" xmlns:xlink="http://www.w3.org/1999/xlink" x="0px" y="0px"
	 width="23.82px" height="21.23px" viewBox="0 0 23.82 21.23" style="enable-background:new 0 0 23.82 21.23;" xml:space="preserve"
	>
<style type="text/css">
	.st0{fill:#777777;}
</style>
<g>
	<path class="st0" d="M17.94,18.64c0-0.06,0.01-0.13,0.01-0.19c0-4.72,0-9.44,0-14.16c0-0.06,0-0.13,0-0.2c-4.02,0-8.03,0-12.05,0
		c0,0.05-0.01,0.1-0.01,0.15c0,4.76,0,9.52,0,14.27c0,0.04,0,0.08,0.01,0.13c-0.67,0-1.33,0-2.01,0c0-5.35,0-10.71,0-16.06
		c0.66,0,1.33,0,2.01,0c0,0.18,0,0.33,0,0.49c4.03,0,8.03,0,12.06,0c0-0.17,0-0.32,0-0.48c0.67,0,1.33,0,2,0c0,5.35,0,10.71,0,16.05
		C19.27,18.64,18.6,18.64,17.94,18.64z"/>
	<path class="st0" d="M15.9,18.64c-0.12-0.05-0.25-0.09-0.37-0.17c-0.26-0.17-0.39-0.42-0.42-0.74c0-0.05,0-0.1,0-0.15
		c0-4.06,0-8.13,0-12.2c0-0.04,0-0.09,0-0.14c0.17,0.45,0.48,0.72,0.98,0.71c0.45-0.01,0.74-0.27,0.91-0.69c0,0.06,0,0.12,0,0.18
		c0,4-0.01,8.01,0.01,12.01c0,0.59-0.19,1-0.76,1.19C16.13,18.64,16.01,18.64,15.9,18.64z"/>
	<path class="st0" d="M7.59,18.64c-0.05-0.02-0.09-0.03-0.14-0.05c-0.37-0.14-0.6-0.46-0.61-0.85c0-0.07,0-0.14,0-0.2
		c0-4.03,0-8.06,0-12.09c0-0.06,0-0.12,0-0.18c0.18,0.44,0.48,0.7,0.95,0.7c0.47-0.01,0.76-0.28,0.93-0.72c0,0.05,0,0.1,0,0.15
		c0,4.03,0,8.06,0,12.09c0,0.68-0.15,0.91-0.78,1.16C7.81,18.64,7.7,18.64,7.59,18.64z"/>
	<path class="st0" d="M10.37,18.64c-0.15-0.08-0.33-0.14-0.47-0.25c-0.21-0.16-0.31-0.4-0.32-0.67c0-0.05,0-0.09,0-0.14
		c0-4.06,0-8.13,0-12.19c0-0.05,0-0.09,0-0.14c0.19,0.45,0.51,0.72,1.01,0.69c0.44-0.03,0.71-0.3,0.87-0.71c0,0.05,0,0.11,0,0.16
		c0,4.03,0,8.06,0,12.09c0,0.68-0.16,0.92-0.78,1.16C10.59,18.64,10.48,18.64,10.37,18.64z"/>
	<path class="st0" d="M13.17,18.64c-0.17-0.08-0.35-0.14-0.49-0.25c-0.2-0.15-0.3-0.38-0.31-0.64c-0.01-0.06,0-0.12,0-0.17
		c0-4.06,0-8.13,0-12.19c0-0.05,0-0.1,0-0.15c0.17,0.45,0.48,0.72,0.96,0.71c0.46-0.01,0.75-0.26,0.92-0.74
		c0.01,0.09,0.01,0.15,0.01,0.2c0,4.05,0,8.12,0,12.17c0,0.57-0.22,0.87-0.76,1.04c-0.01,0-0.02,0.02-0.03,0.02
		C13.36,18.64,13.26,18.64,13.17,18.64z"/>
</g>
</svg>
