<?xml version="1.0" encoding="utf-8"?>
<!-- Generator: Adobe Illustrator 26.0.1, SVG Export Plug-In . SVG Version: 6.00 Build 0)  -->
<svg version="1.1" id="Layer_1" xmlns="http://www.w3.org/2000/svg" xmlns:xlink="http://www.w3.org/1999/xlink" x="0px" y="0px"
	 width="93.6px" height="93.6px" viewBox="0 0 93.6 93.6" style="enable-background:new 0 0 93.6 93.6;" xml:space="preserve">
<style type="text/css">
	.st0{fill:#D8D8D8;}
</style>
<g>
	<path class="st0" d="M57.14,80.3c-0.84-0.38-1.77-0.65-2.52-1.16c-1.42-0.98-2.15-2.43-2.21-4.17c-0.03-0.98-0.01-1.96-0.01-3.04
		c-0.28,0-0.51,0-0.74,0c-2.73,0-5.45,0-8.18,0c-4.47-0.01-7.81-3.33-7.84-7.8c-0.01-1.31-0.01-2.62,0-3.93
		c0.01-1.3,0.88-2.22,2.06-2.23c1.17-0.01,2.09,0.93,2.11,2.2c0.02,1.31,0,2.62,0.01,3.93c0.02,2.19,1.47,3.64,3.66,3.65
		c2.75,0.01,5.5,0,8.24,0c0.19,0,0.38-0.02,0.65-0.03c0-0.31,0-0.58,0-0.86c0-14,0-28,0-42.01c0-2.97,1.4-4.89,4.21-5.82
		c0.95-0.31,1.9-0.64,2.85-0.96c0.45-0.15,0.89-0.3,1.33-0.58c-0.18,0-0.35,0-0.53,0c-5.54,0-11.08,0-16.62,0
		c-2.37,0-3.79,1.41-3.8,3.77c-0.01,1.29,0.02,2.57-0.01,3.86c-0.02,0.99-0.61,1.77-1.46,2.04c-0.84,0.26-1.75,0-2.27-0.72
		c-0.2-0.27-0.4-0.62-0.4-0.94c-0.03-1.87-0.16-3.77,0.05-5.62c0.37-3.27,2.94-5.83,6.18-6.45c0.15-0.03,0.29-0.08,0.43-0.13
		c11.04,0,22.07,0,33.11,0c0.92,0.42,1.9,0.74,2.74,1.29c1.19,0.79,1.73,2.08,2.11,3.42c0,17.32,0,34.63,0,51.95
		c-0.62,2.75-2.47,4.12-5.07,4.93c-5.49,1.71-10.93,3.59-16.39,5.41C58.27,80.3,57.7,80.3,57.14,80.3z M56.58,49.56
		c0,8.24,0.03,16.49-0.03,24.73c-0.01,1.43,1.11,2.05,2.29,1.65c5.29-1.81,10.61-3.56,15.92-5.33c1.07-0.36,1.35-0.74,1.35-1.86
		c0-16.49,0-32.97,0-49.46c0-1.52-0.8-2.1-2.25-1.61c-5.27,1.76-10.53,3.52-15.79,5.28c-1.32,0.44-1.49,0.68-1.49,2.07
		C56.58,33.21,56.58,41.38,56.58,49.56z"/>
	<path class="st0" d="M13.3,42.09c0.51-1.2,1.42-1.6,2.7-1.59c6.67,0.04,13.35,0.02,20.02,0.02c0.23,0,0.46,0,0.81,0
		c-0.24-0.26-0.37-0.41-0.52-0.56c-2.1-2.1-4.2-4.19-6.29-6.29c-0.68-0.68-0.84-1.61-0.47-2.41c0.37-0.79,1.22-1.34,2.07-1.17
		c0.5,0.1,1.05,0.35,1.42,0.71c3.47,3.41,6.9,6.85,10.34,10.29c0.9,0.9,0.91,2.13,0.01,3.03c-3.45,3.46-6.91,6.91-10.37,10.35
		c-0.92,0.91-2.19,0.93-3.04,0.08c-0.85-0.85-0.81-2.15,0.12-3.09c2.06-2.07,4.13-4.13,6.2-6.2c0.15-0.15,0.29-0.31,0.53-0.57
		c-0.35,0-0.58,0-0.81,0c-6.67,0-13.35-0.02-20.02,0.02c-1.29,0.01-2.19-0.4-2.7-1.59C13.3,42.79,13.3,42.44,13.3,42.09z"/>
</g>
</svg>
