<svg width="295" height="82" xmlns="http://www.w3.org/2000/svg" xmlns:xlink="http://www.w3.org/1999/xlink"><defs><path id="c" d="M.38.462h86.652v242.84H.38z"/><path id="e" d="M.28.057H86.31v205.48H.28z"/><path id="g" d="M.28.365h70.353v174.097H.279z"/><path id="i" d="M.28.494h307.633V109.16H.279z"/><path id="k" d="M.525.244h85.691v199.207H.525z"/><path id="m" d="M.463.244h52.005V270.66H.463z"/><path id="o" d="M.28 307.912h307.633V.244H.279z"/><rect id="a" x="0" y="0" width="295" height="82" rx="3"/></defs><g fill="none" fill-rule="evenodd"><mask id="b" fill="#fff"><use xlink:href="#a"/></mask><use fill="#C1C1C1" xlink:href="#a"/><g mask="url(#b)"><path fill="#DFDFDF" d="M-7.95 228.65h307.366V-79.633H-7.949z"/><g transform="translate(-7.95 -78.75)"><g transform="translate(220.88 64.61)"><mask id="d" fill="#fff"><use xlink:href="#c"/></mask><path d="M12.675 277.863L.38 277.348c1.494-35.692 3.354-80.112 25.88-114.864 2.407-3.713 5.023-7.274 7.552-10.718 4.352-5.926 8.462-11.522 11.477-17.684 5.94-12.143 7.332-26.488 7.882-37.63.194-3.92.305-7.947.413-11.842.272-9.786.552-19.906 2.135-29.926 2.703-17.107 8.885-30.67 18.372-40.312C86.097 2.171 103.798-2.612 118.144 2.468l-4.109 11.6c-9.927-3.516-22.454.075-31.173 8.936-7.65 7.776-12.694 19.081-14.989 33.601-1.46 9.235-1.716 18.518-1.989 28.347-.109 3.96-.223 8.055-.422 12.107-.608 12.318-2.195 28.273-9.12 42.431-3.498 7.15-8.132 13.46-12.612 19.56-2.537 3.455-4.932 6.717-7.144 10.128-20.698 31.932-22.48 74.49-23.911 108.685" fill="#C0D2FF" mask="url(#d)"/></g><g transform="translate(0 39.997)"><mask id="f" fill="#fff"><use xlink:href="#e"/></mask><path d="M1.186 198.769h.002c4.6 0 9.324-.345 14.038-1.024 13.276-1.914 32.188-7.315 46.887-22.173 13.775-13.926 20.065-33.465 16.414-50.993-3.441-16.52-14.86-29.28-24.935-40.54-9.666-10.8-18.795-21.002-20.83-33.21-.327-1.961-.485-4.091-.653-6.347-.284-3.825-.607-8.152-1.872-12.511C28.07 24.5 23.24 17.809 16.632 13.13c-3.366-2.383-7.016-4.115-10.851-5.147a34.07 34.07 0 00-8.853-1.158c-9.062 0-17.932 3.51-24.337 9.63l-1.846 1.765-35.615 139.087 1.135 2.746c5.913 14.294 18.205 26.228 33.723 32.74 9.447 3.964 19.943 5.974 31.198 5.975m.002 6.768h-.003c-12.158 0-23.535-2.188-33.816-6.502-17.151-7.197-30.768-20.462-37.358-36.393l-1.997-4.83L-35.33 14.667l3.245-3.102C-24.433 4.25-13.859.057-3.072.057.54.057 4.111.525 7.54 1.448c4.609 1.24 8.984 3.313 13.003 6.16 7.851 5.559 13.603 13.54 16.195 22.477 1.462 5.038 1.812 9.74 2.12 13.888.156 2.106.303 4.086.58 5.742 1.712 10.27 10.205 19.762 19.198 29.81C69.278 91.42 81.34 104.9 85.152 123.199c4.109 19.723-2.876 41.615-18.228 57.135-16.02 16.192-36.43 22.049-50.732 24.11a105.56 105.56 0 01-15.004 1.094" fill="#FFF" mask="url(#f)"/></g><g transform="translate(0 55.38)"><mask id="h" fill="#fff"><use xlink:href="#g"/></mask><path d="M-55.49 141.26c5.255 12.706 16.25 22.602 28.93 27.923 12.678 5.32 26.905 6.309 40.514 4.346 15.51-2.234 30.796-8.476 41.817-19.616 11.021-11.14 17.218-27.556 14.022-42.898-6.003-28.825-40.99-45.06-45.83-74.103-.988-5.923-.62-12.072-2.293-17.839C19.194 10.54 12.042 3.526 3.463 1.217c-8.58-2.309-18.285.17-24.708 6.308L-55.491 141.26z" fill="#C0D2FF" mask="url(#h)"/></g><g transform="translate(0 17.23)"><mask id="j" fill="#fff"><use xlink:href="#i"/></mask><path d="M333.32 109.161L145.513 84.498c-17.756-2.332-33.404-5.134-45.102-15.855-5.409-4.957-9.253-11.109-12.97-17.059-2.092-3.347-4.254-6.808-6.627-9.915C68.294 25.27 49.24 17.413 35.46 13.709 17.558 8.897-1.422 8.062-19.777 7.255l.297-6.761c18.72.822 38.077 1.673 56.697 6.678 14.794 3.978 35.3 12.478 48.976 30.389 2.565 3.359 4.813 6.957 6.987 10.436 3.637 5.822 7.074 11.32 11.803 15.655 10.242 9.387 24.814 11.956 41.411 14.135l187.807 24.663-.881 6.711z" fill="#FFF" mask="url(#j)"/></g><path d="M86.994 87.213c-4.504-4.819-9.076-13.845-14.318-17.846-5.077-3.875-11.476-4.092-17.12-.041-7.266 5.217-9.374 15.095-5.363 23.092 4.692 9.354 12.751 16.091 20.019 23.656 16.41 17.083 27.363 38.613 31.95 61.512.745 3.717 5.932 4.039 7.139.445l20.222-57.49c1.862-5.296-1.302-11.026-6.774-12.279-13.443-3.078-26.605-11.257-35.755-21.049" fill="#9ACF89"/><g transform="translate(78.754)"><mask id="l" fill="#fff"><use xlink:href="#k"/></mask><path d="M30.229 199.451c-1.487 0-2.988-.115-4.493-.35a37.091 37.091 0 01-1.237-.218c-9.788-1.902-18.751-8.11-23.974-16.605l5.765-3.546c4.25 6.911 11.538 11.96 19.5 13.506.332.065.665.123.999.176 10.755 1.688 21.283-4.717 25.033-15.232l27.411-76.879L58.271-14.944l6.659-1.212 21.286 117.028-28.02 78.583c-4.319 12.113-15.653 19.996-27.967 19.996" fill="#FFF" mask="url(#l)"/></g><g transform="translate(193.809)"><mask id="n" fill="#fff"><use xlink:href="#m"/></mask><path fill="#FFF" mask="url(#n)" d="M7.155 270.659l-6.692-1.012 9.629-63.664.06-.21 27.618-96.291 7.943-131.39 6.755.41-7.988 132.13-.102.358-27.66 96.438z"/></g><path fill="#FFF" d="M49.93 114.627l-2.115-2.234 44.722-42.315 2.115 2.234zM79.195 153.342l-2.61-1.628c6.692-10.74 19.489-18.204 34.23-19.97 14.937-1.786 29.76 2.155 39.609 5.276l-.93 2.932c-15.219-4.822-27.392-6.459-38.313-5.152-13.824 1.655-25.782 8.586-31.986 18.542"/><path fill="#FFF" d="M104.867 135.133l-35.383-39.72 2.298-2.046 35.382 39.72z"/><path d="M146.476 77.513c-1.468-.513-3.08-.236-4.61.046l-7.084 1.309c-1.97.364-4.002.752-5.667 1.868-1.664 1.115-2.876 3.162-2.395 5.107.359 1.448 1.578 2.558 2.94 3.163 1.363.605 2.87.783 4.35.953l14.238 1.64 1.318.163 2.24-.768c-.922-2.362-.826-4.983-1.261-7.482-.434-2.499-1.675-5.162-4.069-5.999z" fill="#9ACF89"/><path d="M118.073 89.326L115 89.211c.214-5.748 3.625-11.223 8.69-13.948 2.75-1.48 5.822-2.117 8.485-2.599a127.212 127.212 0 0123.883-2.017l-.033 3.077c-7.784-.083-15.635.58-23.303 1.968-2.43.44-5.22 1.014-7.574 2.28-4.123 2.219-6.9 6.675-7.075 11.354" fill="#FFF"/><mask id="p" fill="#fff"><use xlink:href="#o"/></mask><path fill="#FFF" mask="url(#p)" d="M346.264 210.09H206.04l-67.638-53.355 4.191-5.314 65.795 51.9h137.876zM226.367 141.116l-77.223-1.48.058-3.076 77.224 1.48z"/><path fill="#C6C1BD" mask="url(#p)" d="M192.242 96.698l34.154 3.89 1.012-21.908h-35.166zM171.323 95.62h14.46V74.546h-14.46zM293.761 169.256h20.304V129.26h-20.304zM243.638 167.41v-17.23h-7.506l-12.306 47.177h35.89V167.41zM243.38 121.67l-4.787 17.168h30.148v-14.613zM253.667 160.641h15.074v-15.075h-15.074zM172.862 131.804h45.632v-13.845h-45.632zM166.812 112.953h8.818v-4h-8.818zM191.627 145.566h-3.842v21.126h20.557l6.357-21.126zM161.685 147.72h13.022v-4.308h-13.022zM161.685 154.682h13.022v-4.307h-13.022zM161.685 161.645h13.022v-4.307h-13.022zM246.119 82.77l-.964 18.433 29.995 3.34 1.372-21.773z"/></g></g></g></svg>