<?xml version="1.0" encoding="utf-8"?>
<!-- Generator: Adobe Illustrator 26.0.1, SVG Export Plug-In . SVG Version: 6.00 Build 0)  -->
<svg version="1.1" id="Layer_1" xmlns="http://www.w3.org/2000/svg" xmlns:xlink="http://www.w3.org/1999/xlink" x="0px" y="0px"
	 width="1122px" height="925px" viewBox="0 0 1122 925" style="enable-background:new 0 0 1122 925;" xml:space="preserve">
<style type="text/css">
	.st0{fill:#DDE2F3;}
	.st1{fill:#7C98CE;}
	.st2{fill:#243B7A;}
	.st3{fill:#FFFFFF;}
	.st4{fill:#487ABD;}
	.st5{fill:#F79B80;}
	.st6{fill:#7A7BA5;}
	.st7{fill:#8282A9;}
	.st8{fill:#D1D0DF;}
	.st9{fill:#7677A2;}
	.st10{fill:#849ED1;}
	.st11{fill:#424F86;}
	.st12{fill:#F0EFF4;}
	.st13{fill:#CCCBDB;}
	.st14{fill:#555D90;}
	.st15{fill:#71739F;}
	.st16{fill:#ADACC6;}
	.st17{fill:#686B9A;}
	.st18{fill:#8D8CB1;}
	.st19{fill:#D4DBEF;}
	.st20{fill:#F15F46;}
	.st21{font-family:'Quicksand-Bold';}
	.st22{font-size:27.9818px;}
	.st23{fill:#809BD0;}
</style>
<g>
	<path class="st0" d="M224.87,806.48c0,0-127.37-90.7-164.03-245.08c-36.67-154.38,19.3-341.57,125.44-436.13
		c106.14-94.56,297.19-30.88,382.1,48.24s84.91,79.12,84.91,79.12s81.05,44.38,187.19,40.53c106.14-3.86,200.7,140.87,225.78,254.73
		c25.09,113.86-34.74,264.38-34.74,264.38L224.87,806.48z"/>
	<path class="st0" d="M166.98,829.63c0,0-88.77-48.24-111.93-160.17s77.19-214.21,86.84-270.17
		c9.65-55.96-11.58-125.44,77.19-179.47c88.77-54.03,247.01-34.74,306.83-48.24c59.82-13.51,129.3-106.14,248.94-84.91
		c119.65,21.23,235.43,84.91,241.22,223.85c5.79,138.94-38.6,142.8,5.79,218.07c44.39,75.26,61.75,127.37,40.53,204.56
		c-21.23,77.19-65.61,98.42-65.61,98.42L166.98,829.63z"/>
	<path class="st0" d="M352.33,804.55c-5.52-5.79-86.51-167.89,3.68-316.48c90.19-148.59,316.6-131.23,406.79-73.33
		s134.37,133.15,143.57,212.28c9.2,79.12-51.54,202.63-51.54,202.63L352.33,804.55z"/>
	<g>
		<g>
			<path class="st1" d="M994.03,531.64H876.67c-2.76,0-5-2.24-5-5v-65.26c0-2.76,2.24-5,5-5h117.37c2.76,0,5,2.24,5,5v65.26
				C999.03,529.41,996.79,531.64,994.03,531.64z"/>
			<polygon class="st1" points="935.35,561.07 951.84,522 918.86,522 			"/>
		</g>
		<g>
			<g>
				<g>
					<polygon class="st2" points="934.96,481.09 964.74,481.09 964.74,485.45 979.34,477.03 964.74,468.61 964.74,472.97 
						934.96,472.97 					"/>
				</g>
				<g>
					<polygon class="st3" points="979.34,498.22 949.56,498.22 949.56,493.86 934.96,502.28 949.56,510.7 949.56,506.34 
						979.34,506.34 					"/>
				</g>
			</g>
			<g>
				<path class="st2" d="M916.68,505.88l-1.42,0.52c0,0-4.42-5.04-6.71-10.54c-2.29-5.5-2.37-12.21-2.37-12.21l1.04-0.43l-6.3-15.07
					c-1.12,0.88-2.19,2.01-3.06,3.47c-3.57,6.02-3.21,15.27,0.37,24.3c3.58,9.03,7.42,17.08,14.41,22.15
					c4.13,2.99,7.67,3.51,10.41,3.08L916.68,505.88z"/>
				<path class="st2" d="M921.2,504.1l-1.96,0.71l6.45,15.43c0.73-0.24,1.38-0.53,1.95-0.84c1.66-0.91,2.4-2.91,1.69-4.68
					l-3.37-8.48C925.21,504.36,923.1,503.41,921.2,504.1z"/>
				<path class="st2" d="M905.83,465.5c-0.79,0.29-1.66,0.67-2.52,1.19l6.43,15.39l2.17-0.9c1.88-0.78,2.79-2.92,2.05-4.82
					l-3.38-8.68C909.84,465.79,907.73,464.81,905.83,465.5z"/>
			</g>
		</g>
	</g>
	<g>
		<path class="st4" d="M322.24,778.5V604.82c0,0-1.93-46.8,22.67-60.31c24.6-13.51,128.33-6.27,128.33-6.27V778.5H322.24z"/>
	</g>
	<g>
		<g>
			<path class="st5" d="M505.65,375.65c0,0-6.27,52.59-8.68,56.93c-2.41,4.34-2.41,4.34-2.41,4.34l-12.06,8.2
				c0,0,23.16,32.81,51.62,38.11c28.46,5.31,26.05-11.58,26.05-11.58l-4.34-9.17l5.79-50.17C561.62,412.32,510,388.68,505.65,375.65
				z"/>
		</g>
		<path class="st3" d="M467.54,449.47l18.82-8.2c0,0,12.06,19.78,40.04,31.36c27.98,11.58,28.46,4.82,29.91,0
			c1.45-4.82-0.48-10.13-0.48-10.13l2.07-16.89l11.19,3.73l38.84,314.21l-99.87,4.82L467.54,449.47z"/>
		<g>
			<path class="st2" d="M559.69,445.93c0,0,6.75,15.6,13.03,52.26c6.27,36.67,12.06,98.42,13.51,140.87
				c1.45,42.46,2.41,139.43,2.41,139.43s124.47,0,125.92,0c1.45,0,10.13-47.76,10.13-47.76s-55-47.12-57.89-54.84
				c-1.93-5.15-0.96-100.51-9.17-144.41c-8.2-43.9-18.82-52.75-41.01-63.68C593.68,456.5,559.69,445.93,559.69,445.93z"/>
		</g>
		<g>
			<path class="st6" d="M625.3,723.22c-0.64,0-1.17-0.52-1.17-1.17c0-3.45-0.61-52.46-1.2-99.85c-0.59-47.4-1.21-96.42-1.21-99.88
				c0-0.64,0.52-1.17,1.17-1.17c0.64,0,1.17,0.52,1.17,1.17c0,3.45,0.61,52.46,1.2,99.85c0.59,47.4,1.21,96.42,1.21,99.88
				C626.46,722.69,625.94,723.22,625.3,723.22z"/>
		</g>
		<g>
			<path class="st2" d="M374.43,711.44l-0.96,67.06h146.66c0,0,6.27-56.93,3.86-62.24C521.57,710.95,374.43,711.44,374.43,711.44z"
				/>
		</g>
		<g>
			<path class="st7" d="M537.66,431.14c5.98,4.82,14.15,8.68,20.52,11.02l3.44-29.84c0,0-38.77-17.76-51.93-30.98
				C512.43,396.36,519.2,416.25,537.66,431.14z"/>
		</g>
		<g>
			<path class="st5" d="M606.97,277.72c0,0,10.13,17.37,12.06,38.6c1.93,21.23,0,75.74-17.37,98.9
				c-17.37,23.16-53.55,16.4-69.95,2.41c-15.05-12.84-29.91-27.02-33.77-55c-3.86-27.98,8.2-81.05,42.46-92.15
				C574.64,259.38,606.97,277.72,606.97,277.72z"/>
		</g>
		<g>
			<g>
				<path class="st5" d="M650.49,748.17c0,0-1.7,0-4.29-0.07c-0.61-0.02-1.28,0-1.98-0.02c-2.5-0.07-5.53-0.14-8.58-0.23
					c-0.68-0.02-1.38-0.05-2.05-0.07c-3.03-0.07-5.62,0.3-8.04,0.16h-0.07c-0.51-0.02-1.26,0.05-1.87,0.07
					c-0.3,0.02-0.58,0.05-0.77,0.02c-1.4-0.26-1.68-0.58-3.19-1.26c-1.96-0.89-28.47-6.81-50.04-6.67
					c-21.55,0.09-40.88,1.56-44.02-1.07c-3.17-2.68-5.08-29.75,13.31-31.53l22.62,8.58c0,0,51.65-6.13,70.58,7.83
					C651.07,737.88,650.49,748.17,650.49,748.17z"/>
			</g>
			<g>
				<g>
					<path class="st2" d="M625.47,747.93c-0.51-0.02-1.26,0.05-1.87,0.07c-0.47-0.75-1.45-2.1-1.98-2.66
						c-5.83-5.95-19.91-9.79-25.02-11.03c-0.47-0.12-0.77-0.58-0.65-1.05c0.09-0.47,0.58-0.75,1.07-0.65
						c7.44,1.8,23.22,6.39,27.7,13.92C624.86,746.74,625.24,747.47,625.47,747.93z"/>
				</g>
			</g>
			<g>
				<g>
					<path class="st2" d="M635.64,747.84c-0.68-0.02-1.38-0.03-2.05-0.07c-6.36-11.61-16.78-14.94-29.65-19.08l-0.76-0.25
						c-0.44-0.15-0.71-0.65-0.56-1.11c0.15-0.44,0.62-0.71,1.11-0.56l0.74,0.25C618.08,731.38,629.03,734.89,635.64,747.84z"/>
				</g>
			</g>
			<g>
				<g>
					<path class="st2" d="M646.2,748.09c-0.61-0.01-1.28-0.01-1.98-0.02c-3.86-8.12-16.64-21.7-33.54-24.87
						c-0.49-0.08-0.8-0.53-0.72-1.02c0.1-0.46,0.56-0.78,1.02-0.7C628.39,724.76,642.43,738.98,646.2,748.09z"/>
				</g>
			</g>
		</g>
		<g>
			<path class="st2" d="M509.51,338.75c0,0,10.61-5.07,18.09-19.3c7.48-14.23,6.51-27.02,6.51-27.02s13.51-2.17,33.77,3.86
				c20.26,6.03,44.38,14.23,64.65,2.65c20.26-11.58,20.26-30.15,10.37-37.87c-11.08-8.65-33.05-3.38-33.05-3.38s8.44-8.2,3.86-13.03
				c-4.58-4.82-21.23,1.45-21.23,1.45s-20.26-16.16-58.62-14.23c-38.35,1.93-56.69,28.71-58.86,58.62
				c-2.17,29.91,8.68,59.82,8.68,59.82L509.51,338.75z"/>
		</g>
		<g>
			<g>
				<path class="st7" d="M587.33,346c-2.17,5.36-2.12,11.58-2.67,17.27c-0.43,4.42-1.24,9.58,2.81,12.57
					c1.94,1.43,11.09,5.28,6.38,8.39c-1.8,1.19-4.8,0.86-6.85,0.77c-1.41-0.07-2.83-0.12-4.24-0.23c-1.51-0.11-3-0.57-4.51-0.58
					c-0.89,0-1.16,1.18-0.44,1.63c2.44,1.53,6.01,2,8.85,2.11c2.84,0.11,4.77-0.02,7.32-1.29c1.57-0.78,3.1-1.88,3.34-3.75
					c0.28-2.1-1.3-3.99-2.88-5.17c-1.82-1.35-4.06-1.98-5.9-3.3c-2.55-1.83-2.34-4.91-2.16-7.76c0.43-6.86,2.01-13.6,2.62-20.43
					C589.1,345.18,587.66,345.18,587.33,346L587.33,346z"/>
			</g>
		</g>
		<g>
			<path class="st2" d="M607.05,362.04c-0.72,4.07-3.68,6.94-6.61,6.42c-2.93-0.52-4.72-4.24-4-8.3c0.72-4.07,3.68-6.94,6.61-6.42
				C605.97,354.26,607.76,357.97,607.05,362.04z"/>
		</g>
		<g>
			<path class="st2" d="M570.13,358.82c-0.65,4.39-3.74,7.56-6.91,7.09c-3.16-0.47-5.19-4.41-4.54-8.8
				c0.65-4.39,3.74-7.56,6.91-7.09C568.75,350.49,570.78,354.43,570.13,358.82z"/>
		</g>
		<g>
			<g>
				<path class="st2" d="M598.45,345.28c2.25,0.38,4.53-0.01,6.8,0.15c0.55,0.04,1.09,0.12,1.63,0.17c0.39,0.04-0.72-0.11-0.18-0.03
					c0.12,0.02,0.23,0.04,0.35,0.06c0.28,0.05,0.57,0.11,0.85,0.18c0.48,0.12,0.95,0.3,1.44,0.41c0.44,0.1,0.93,0.2,1.37,0.18
					c0.25-0.03,0.5-0.07,0.74-0.1c-0.16,0.03-0.31,0.06-0.47,0.08c0,0.05,0.85-0.08,0.92-0.1c1.29-0.3,2.09-1.8,1.73-3.05
					c-0.1-0.36-0.26-0.69-0.49-0.98c-0.1-0.13-0.19-0.25-0.3-0.38c0.09,0.1,0.18,0.21,0.27,0.31c-0.1-0.14-0.2-0.27-0.3-0.4
					c-0.13-0.22-0.3-0.39-0.52-0.52c-0.18-0.14-0.36-0.28-0.54-0.41c-0.6-0.42-1.38-0.66-2.09-0.84c-1.35-0.35-2.76-0.52-4.15-0.53
					c-1.38-0.01-2.74,0.14-4.11,0.33c-1.2,0.17-2.54,0.57-3.52,1.3c-0.76,0.56-1.22,1.28-1.09,2.27
					C596.93,344.2,597.57,345.13,598.45,345.28L598.45,345.28z"/>
			</g>
		</g>
		<g>
			<g>
				<path class="st2" d="M572.72,338.82c-0.3-0.18-0.62-0.34-0.94-0.49c-0.28-0.12-1.02-0.52-0.46-0.21
					c-0.21-0.11-0.41-0.23-0.62-0.33c-0.93-0.47-1.9-0.79-2.91-1.04c-2.2-0.56-4.52-0.7-6.78-0.47c-2.41,0.25-4.61,0.84-6.69,2.09
					c-0.29,0.18-0.6,0.35-0.84,0.6c-0.17,0.21-0.33,0.42-0.49,0.63c0.05-0.07,0.09-0.14,0.14-0.21c-0.64,0.45-1.02,1.19-1.01,1.97
					c0.01,0.75,0.39,1.38,1.04,1.74c0.79,0.44,1.53,0.23,2.34,0.02c-0.41,0-0.81,0-1.22,0c0.67,0.1,1.14,0.13,1.82-0.02
					c0.02-0.01,0.65-0.16,0.24-0.07c-0.39,0.08,0.66-0.08,0.77-0.1c0.13-0.02,0.86-0.09,0.09-0.02c0.14-0.01,0.28-0.03,0.42-0.05
					c0.36-0.04,0.73-0.09,1.09-0.12c1.59-0.13,3.18-0.2,4.77-0.25c1.48-0.05,2.99-0.06,4.47,0c0.63,0.03,1.27,0.05,1.9,0.07
					c0.36,0.01,0.21,0.07-0.04-0.01c0.13,0.04,0.27,0.07,0.4,0.1c0.26,0.07,0.52,0.16,0.78,0.26c1.03,0.39,2.26-0.35,2.64-1.3
					C574.05,340.59,573.7,339.41,572.72,338.82L572.72,338.82z"/>
			</g>
		</g>
		<g>
			<path class="st2" d="M584.17,405.89c2.21-4.45,6.24-7.71,10.9-9.81c-4.04-0.41-23.13-2.18-27.94,0.56
				c-5.39,3.06,1,15.36,12.15,15.98c1.17,0.06,2.24-0.03,3.25-0.19C582.63,410.18,583.14,407.95,584.17,405.89z"/>
		</g>
		<g>
			<path class="st8" d="M496,380c0,0,1.93,7.48,13.03,16.16c11.1,8.68,27.18,15.04,27.18,15.04l1.29-5.63c0,0-16.64-7.24-24.36-15.2
				c-7.72-7.96-8.68-12.3-8.68-12.3L496,380z"/>
		</g>
		<g>
			<path class="st2" d="M539.42,401.4c8.93-0.42,13.91,6.65,14.54,11.21c0.62,4.57-3.67,9.69-13.71,5.19
				C527.79,412.22,530.5,401.82,539.42,401.4z"/>
		</g>
		<g>
			<path class="st8" d="M503,324.76c0,0,3.86-27.73,22.43-46.56c35.46-35.94,65.61-33.77,65.61-33.77s-0.24-5.07-11.58-8.93
				c-10.64-3.62-15.44-1.69-15.44-1.69s-29.19,2.41-53.79,29.67c-24.6,27.26-27.26,61.99-27.26,61.99L503,324.76z"/>
		</g>
		<g>
			<g>
				<path class="st3" d="M500.35,321.38c-23.23-3.94-36.18,14.23-37.15,32.56c-0.96,18.33,12.36,32.27,30.15,30.88
					C533.39,381.68,528.81,326.2,500.35,321.38z"/>
			</g>
			<g>
				<path class="st9" d="M488.78,367c-6.13,0-11.32-3.08-14.28-8.51c-3.17-5.81-2.91-12.97,0.68-18.23c0.27-0.4,0.82-0.5,1.22-0.23
					c0.4,0.27,0.5,0.82,0.23,1.22c-3.22,4.72-3.45,11.16-0.59,16.41c2.72,4.98,7.51,7.79,13.19,7.59c5.31-0.14,9.81-2.57,12.67-6.84
					c3.27-4.87,4.02-11.6,1.91-17.13c-2.09-5.49-7.81-9.24-13.01-8.56c-0.47,0.06-0.92-0.27-0.98-0.75
					c-0.06-0.48,0.27-0.92,0.75-0.98c6.09-0.81,12.48,3.35,14.88,9.67c2.3,6.05,1.48,13.4-2.09,18.73
					c-3.18,4.75-8.18,7.45-14.07,7.61C489.11,367,488.94,367,488.78,367z"/>
			</g>
		</g>
		<g>
			<path class="st2" d="M471.88,442.71c0,0-70.44,17.37-95.04,45.35c-24.6,27.98-36.18,165.96-36.67,191.53
				c-0.48,25.57,17.37,36.18,27.98,43.42c10.61,7.24,57.41,20.26,95.04,22.19s73.33,0,73.33,0s-0.12-8.2,5.67-20.26
				c5.37-11.19,12.18-13.51,12.18-13.51l-32.32-11.58c0,0-5.66-101.42-14.47-150.52C497.45,492.89,471.88,442.71,471.88,442.71z"/>
		</g>
		<g>
			<path class="st6" d="M588.63,683.65c-0.16,0-0.32-0.03-0.47-0.1c-0.59-0.26-0.86-0.95-0.59-1.54
				c6.6-14.89,13.44-44.12,17.29-64.63l0.32-1.66c1.17-6.03,2.62-13.54-0.28-18.71c-1.48-2.64-4.81-8.37-8.02-13.88
				c-3.33-5.72-6.47-11.12-7.34-12.74c-1.7-3.15,3.65-11.56,11.4-23.1c2.09-3.12,3.9-5.81,4.95-7.64c2.76-4.78,0.92-9.15-1.2-14.22
				l-0.72-1.74c-1.93-4.73-4.12-9.48-6.24-14.06c-0.87-1.87-1.73-3.75-2.59-5.64c-1.13-2.49-2.27-5.03-3.42-7.6
				c-6.82-15.2-13.87-30.91-22.89-46.09c-0.33-0.55-0.15-1.27,0.41-1.6c0.55-0.33,1.27-0.15,1.6,0.41
				c9.1,15.3,16.17,31.07,23.02,46.33c1.15,2.56,2.29,5.1,3.42,7.59c0.85,1.88,1.72,3.75,2.58,5.62c2.13,4.61,4.33,9.38,6.28,14.16
				l0.72,1.72c2.17,5.16,4.41,10.51,1.07,16.28c-1.09,1.89-2.92,4.62-5.03,7.77c-4.04,6.02-12.44,18.55-11.28,20.7
				c0.85,1.58,3.99,6.97,7.31,12.67c3.21,5.52,6.56,11.27,8.04,13.92c3.31,5.92,1.77,13.89,0.53,20.29l-0.32,1.64
				c-1.4,7.47-8.83,45.71-17.45,65.15C589.51,683.4,589.08,683.65,588.63,683.65z"/>
		</g>
		<g>
			<path class="st6" d="M519.89,687.76c-0.3,0-0.6-0.11-0.83-0.34c-5.48-5.52-31.92-51.3-33.89-59.91
				c-1.08-4.71,1.63-16.67,4.24-28.23c2.03-8.96,4.12-18.22,3.53-20.72c-0.89-3.75-7.65-9.27-14.19-14.61
				c-7.9-6.45-16.06-13.12-17.65-19.13c-1.8-6.83-0.26-49.59,0.76-77.88c0.37-10.17,0.65-18.21,0.65-21.07
				c0-0.64,0.52-1.17,1.16-1.17c0,0,0,0,0,0c0.64,0,1.17,0.52,1.17,1.16c0,2.91-0.29,10.96-0.65,21.16
				c-0.95,26.44-2.54,70.7-0.83,77.2c1.39,5.27,9.61,11.99,16.87,17.92c7.15,5.84,13.91,11.36,14.98,15.88
				c0.72,3.03-1.24,11.72-3.52,21.78c-2.44,10.78-5.2,22.99-4.24,27.19c1.93,8.44,27.89,53.36,33.27,58.78
				c0.45,0.46,0.45,1.2-0.01,1.65C520.48,687.64,520.18,687.76,519.89,687.76z"/>
		</g>
		<g>
			<path class="st6" d="M425.09,667.73c-0.05,0-0.11,0-0.16-0.01c-0.64-0.09-1.08-0.68-0.99-1.32
				c0.86-6.06,14.24-126.85,14.85-136.1c0.04-0.64,0.6-1.15,1.24-1.09c0.64,0.04,1.13,0.6,1.09,1.24
				c-0.62,9.27-14.01,130.2-14.87,136.28C426.16,667.31,425.66,667.73,425.09,667.73z"/>
		</g>
		<g>
			<path class="st6" d="M521.09,700.54c-0.15,0-0.29-0.03-0.44-0.08c-2.96-1.2-16.07-5.62-32.66-11.21
				c-33.48-11.29-79.34-26.75-88.05-31.29c-0.57-0.3-0.79-1-0.5-1.57c0.3-0.57,1-0.8,1.57-0.5c8.56,4.45,56.2,20.51,87.72,31.14
				c16.63,5.61,29.76,10.04,32.79,11.26c0.6,0.24,0.88,0.92,0.64,1.52C521.99,700.26,521.55,700.54,521.09,700.54z"/>
		</g>
		<g>
			<path class="st6" d="M504.99,748.64c-29.47,0-86.59-5.31-129.99-20.66c-0.61-0.22-0.93-0.88-0.71-1.49
				c0.21-0.61,0.89-0.92,1.49-0.71c54.82,19.39,131.51,22.7,145.78,19.5c0.63-0.13,1.25,0.26,1.39,0.88
				c0.14,0.63-0.25,1.25-0.88,1.39C518.98,748.24,513.01,748.64,504.99,748.64z"/>
		</g>
	</g>
	<g>
		<g>
			<g>
				<path class="st10" d="M167.73,458.98c9.15,8.05,20.73,13.2,28.76,22.51c3.16,3.66,6,7.56,8.93,11.4
					c2.13,2.79,7.83,7.43,8.76,10.94c0.41,1.55,0.32-0.55-0.09-2.1c-0.02-0.07-0.05-0.13-0.07-0.19c-0.8-7.11-1.37-14.25-1.62-21.4
					c-0.25-7.13,0.2-14.29-0.25-21.42c-0.63-10.05-3.77-19.78-11.98-26.07c-4.01-3.08-9.17-4.95-12.86-8.36
					c-3.5-3.24-2.1-6.95-0.04-10.57c1.93-3.38,4.26-6.71,5.01-10.6c0.85-4.43-0.81-8.99-3.06-12.76
					c-4.78-8.02-15.37-16.96-25.41-15.76c-8.37,1-9.32,10.65-9.2,17.38c0.12,6.54,0.76,13.06,0.83,19.6
					c0.06,6.72-1.08,13.31-1.17,20.01C154.11,442.95,159.37,451.62,167.73,458.98z"/>
				<path class="st10" d="M252.72,563.41c2.55-6.07,5.47-11.75,9.06-17.28c4.93-7.58,10.4-14.96,13.71-23.45
					c3.38-8.67,2.88-17.93,3.22-27.06c0.24-6.71,2.24-13.39,1.7-20.12c-0.26-3.22-2.12-8.44-6.29-7.91
					c-3.25,0.42-5.17,4.44-6.42,7.01c-2.18,4.48-3.69,9.26-5.3,13.96c-0.63,1.84-1.23,3.71-2.03,5.49
					c-0.46,1.03-1.94,3.55-3.33,3.21c-2.37-0.59-0.22-10.26,0.13-11.98c1.77-8.61,4.44-16.61,4.81-25.47
					c0.54-12.84-0.46-28.13-13.02-35.16c-3.28-1.84-7.44-2.93-10.56-0.18c-3.08,2.71-3.95,7.4-4.41,11.27
					c-1.4,11.86,1.39,23.1,5.19,34.26c3.14,9.21,6.88,18.72,7.15,28.58c0.26,9.49-4.67,17.89-6.99,26.85
					c-3.69,14.28-2.93,21.85-2.95,26.48c-0.02,5.79,0.19,11.52,0.61,17.3c0.39,5.31,0.85,10.62,1.5,15.91
					c0.13,1.07,0.25,2.19,0.4,3.3c-2.04-4.91-2.75-10.54-4.44-15.48c-3-8.78-6.49-17.37-9.37-26.19
					c-2.38-7.29-4.63-14.62-7.77-21.63c-2.95-6.57-6.51-13.52-12.01-18.34c-3.32-2.92-7.36-4.62-11.8-4.59
					c-2.84,0.02-5.4,1.01-8.12,1.72c-3.34,0.88-5.97,0.58-8.72-1.53c-9-6.92-11.74-19.33-18.41-28.09
					c-4.97-6.54-16.77-17.68-25.44-10.55c-4.6,3.78-5.87,11.09-5.63,16.69c0.3,7.03,3.37,13.45,7.03,19.33
					c3.89,6.25,8.91,11.84,12.49,18.27c2.11,3.79,2.44,7.43,2.11,11.71c-0.32,4.03-0.67,7.94,0.71,11.82
					c4.13,11.68,17.01,10.05,27.04,10.36c7.01,0.21,14.54,1.26,21.2,3.5c7.7,2.59,12.7,7.6,15.45,15.21
					c1.99,5.51,3.05,11.76,6.81,16.44c1.76,2.2,4.1,3.83,6.66,4.96c3.91,1.73,15.83,2.48,15.91,1.39c0.3-3.64,2.02-7.49,3.11-10.95
					C247.71,576,250.1,569.67,252.72,563.41z"/>
				<path class="st10" d="M308.06,561.21c-1.04-6.68-0.84-14.04-4-20.17c-0.23-0.44-0.82-0.55-1.23-0.32
					c-2.27,1.26-2.36,4.92-2.55,7.16c-0.31,3.72-0.08,7.45-0.54,11.16c-0.8,6.52-2.31,13.24-4.66,19.39
					c-2.66,6.95-7.49,10.89-14.51,13.06c-4.51,1.39-8.93,2.61-12.7,5.6c-3.37,2.68-5.71,6.38-7.45,10.27
					c-4.69,10.51-6.92,22.26-9.09,33.48c-1.46,7.56-2.66,15.15-4.49,22.64c-1.84,7.48-3.8,14.92-4.86,22.56
					c-0.18,0.39-0.37,0.77-0.53,1.16c-0.48,1.14,1.31,1.76,1.92,0.81c7.25-11.15,16.07-21.16,28.11-27.31
					c5.44-2.77,12.66-3.35,17.2-7.71c3.45-3.32,3.93-8.37,3.41-12.88c-0.68-5.93-3.52-10.8-6.48-15.85
					c-1.62-2.77-3.54-5.75-2.89-9.11c0.62-3.18,3.26-5.52,5.89-7.15c5.01-3.11,10.86-4.51,14.96-8.99
					c3.81-4.16,5.92-9.34,6.34-14.94C310.49,576.59,309.2,568.58,308.06,561.21z"/>
				<path class="st10" d="M209.27,599.71c-6.39-8.24-14.11-15.34-22.79-21.1c-4.63-3.08-15.56-9.15-17.77-0.07
					c-1.29,5.32,3.91,10.55,7.34,13.89c5.15,5.01,11.1,9.33,15.45,15.11c-5.38,1.72-11,2.05-15.67,5.77
					c-5.53,4.4-8.02,12.9-2.53,18.3c2.67,2.63,6.22,4.24,9.55,5.85c4.33,2.1,8.74,4,13.17,5.85c9.58,4,19.28,8.06,27.45,14.61
					c8.33,6.68,16.15,17.97,16.81,28.87c0.06,1.04-0.33,0.09,0.29-0.38c0.34,0.3,1.48-0.24,1.47-0.85
					c-0.17-16.17-3.08-31.57-9.68-46.38C226.23,625.44,218.51,611.61,209.27,599.71z"/>
			</g>
			<g>
				<path class="st11" d="M187.19,449.18c3.53,7.32,7.22,14.47,11.13,21.61c3.77,6.87,7.53,13.69,10.35,21.02
					c3.47,9.03,7.11,17.92,10.78,26.87c3.82,9.3,7.23,18.77,9.96,28.45c5.34,18.88,9.31,38.32,11.27,57.85
					c1,9.93,1.45,19.92,1.18,29.9c-0.21,7.8-1.09,15.51-1.83,23.27c-0.76,8.07-1.31,16.24-0.64,24.34
					c0.56,6.77,1.64,14.82,6.9,19.65c1.03,0.95,2.48-0.23,1.89-1.46c-6.24-12.81-5.89-26.77-4.7-40.65
					c0.66-7.67,1.57-15.29,1.83-22.99c0.33-9.79-0.06-19.6-0.98-29.35c-1.81-19.17-5.63-38.11-10.59-56.7
					c-2.54-9.53-5.69-18.88-9.31-28.05c-3.63-9.2-7.83-18.14-11.35-27.38c-6.37-16.71-16.07-31.53-24.66-47.1
					C187.97,447.66,186.8,448.37,187.19,449.18L187.19,449.18z"/>
			</g>
			<g>
				<path class="st11" d="M240.97,585.84c1.01-12.17,2.09-23.89,6.19-35.5c1.91-5.41,4.23-10.68,6.08-16.12
					c1.53-4.49,3.81-10.65,2.63-15.43c-0.13-0.53-0.91-0.51-1.05,0c-0.79,2.73-0.7,5.72-1.27,8.52c-0.55,2.72-1.29,5.4-2.13,8.04
					c-1.8,5.62-4.15,11.02-6.19,16.55c-3.94,10.7-5.96,22.54-5.1,33.94C240.17,586.38,240.92,586.38,240.97,585.84L240.97,585.84z"
					/>
			</g>
			<g>
				<path class="st11" d="M170.45,515.9c4.83,11.67,19.35,12.34,29.93,14.96c7.55,1.87,13.13,6.91,17.13,13.45
					c4.38,7.16,7.35,15.56,9.78,23.55c0.03,0.09,0.16,0.05,0.14-0.04c-2.96-13.99-7.2-30.83-21.62-37.34
					c-11.55-5.22-26.78-2.6-34.17-15.08C171.28,514.78,170.15,515.19,170.45,515.9L170.45,515.9z"/>
			</g>
			<g>
				<path class="st11" d="M233.33,583.99c0.57,0.78,1.1,1.59,1.69,2.35c0.29,0.38,0.59,0.73,0.96,1.04c0.38,0.31,0.82,0.7,1.34,0.68
					c0.22,0,0.37-0.25,0.25-0.44c-0.24-0.39-0.67-0.62-1.01-0.92c-0.35-0.31-0.7-0.6-1.03-0.92c-0.67-0.64-1.29-1.33-1.95-1.99
					C233.46,583.67,233.22,583.84,233.33,583.99L233.33,583.99z"/>
			</g>
			<g>
				<path class="st11" d="M203.12,621.01c8.33,6.84,16.02,14.93,22.13,23.8c2.92,4.24,5.61,8.73,8.06,13.26
					c2.67,4.95,4.42,10.18,6.51,15.36c0.16,0.39,0.88,0.4,0.82-0.11c-1.16-10.97-8.11-20.38-13.68-29.51
					c-2.89-4.74-6.49-8.57-10.35-12.52c-3.99-4.09-8.06-7.95-12.74-11.25C203.31,619.64,202.58,620.57,203.12,621.01L203.12,621.01z
					"/>
			</g>
			<g>
				<path class="st11" d="M269.48,608.09c-4.01,2.27-4.14,8.61-4.22,12.66c-0.15,7.78,1.77,15.08-1.64,22.49
					c-3.08,6.69-8.01,12.28-11.88,18.5c-3.62,5.82-7.2,13.26-7.12,20.26c0,0.41,0.63,0.63,0.81,0.22c1.46-3.18,1.98-6.79,3.03-10.12
					c1.18-3.75,2.82-7.15,4.94-10.44c3.73-5.77,8.3-11.03,11.32-17.24c3.18-6.54,2.72-13.03,2.51-20.12
					c-0.13-4.52-0.59-11.79,3.06-15.15C270.87,608.62,270.13,607.72,269.48,608.09L269.48,608.09z"/>
			</g>
		</g>
		<path class="st3" d="M242.64,682.73c-16.17-0.22-46.96-0.4-46.96-0.4l7.62,56.57c1.71,12.73,12.58,22.23,25.42,22.23H242h1.28
			h13.28c12.84,0,23.71-9.5,25.42-22.23l7.62-56.57C289.6,682.33,258.81,682.51,242.64,682.73z"/>
	</g>
	<g>
		<g>
			<g>
				<polygon class="st12" points="1024.04,578.76 931.81,761.45 662.93,763.38 745.91,576.19 				"/>
			</g>
			<g>
				<path class="st13" d="M484.48,762.24l0.05-14.62h174.06l80.09-175.61h278.37l7,6.75H752.1l-83.22,183.33
					C668.88,762.09,484.48,761.76,484.48,762.24z"/>
			</g>
			<g>
				<path class="st13" d="M884.42,679.57c-3.04,9.11-19.52,16.15-36.82,15.72s-28.86-8.17-25.82-17.28
					c3.04-9.11,19.52-16.15,36.82-15.72C875.89,662.72,887.45,670.46,884.42,679.57z"/>
			</g>
		</g>
		<g>
			<path class="st3" d="M668.88,763.26c-0.16,0-0.33-0.03-0.48-0.1c-0.59-0.27-0.84-0.96-0.58-1.54l83.53-184.01h272.69
				c0.64,0,1.17,0.52,1.17,1.17c0,0.64-0.52,1.17-1.17,1.17H752.85l-82.91,182.65C669.75,763,669.32,763.26,668.88,763.26z"/>
		</g>
	</g>
	<g>
		<g>
			<rect x="152.5" y="776.08" class="st14" width="319.86" height="70.92"/>
			<rect x="470.54" y="776.08" class="st15" width="575.49" height="70.92"/>
		</g>
		<polygon class="st16" points="472.36,776.08 470.54,776.08 152.5,776.08 152.5,789.11 470.54,789.11 472.36,789.11 
			1046.03,789.11 1046.03,776.08 		"/>
		<rect x="137.07" y="762.09" class="st17" width="349.29" height="17.37"/>
		<rect x="484.53" y="762.09" class="st18" width="575.49" height="17.37"/>
	</g>
	<g>
		<path class="st3" d="M398.83,390H271.47c-3,0-5.43-2.43-5.43-5.43v-70.82c0-3,2.43-5.43,5.43-5.43h127.37c3,0,5.43,2.43,5.43,5.43
			v70.82C404.26,387.57,401.83,390,398.83,390z"/>
		<polygon class="st3" points="436.44,349.16 394.03,331.27 394.03,367.06 		"/>
		<g>
			<circle class="st2" cx="308.36" cy="349.16" r="7.81"/>
			<circle class="st2" cx="335.15" cy="349.16" r="7.81"/>
			<circle class="st2" cx="361.94" cy="349.16" r="7.81"/>
		</g>
	</g>
	<g>
		<path class="st1" d="M966.47,134.91H705.79c-16.74,0-30.31,13.57-30.31,30.31v123.67c0,16.74,13.57,30.31,30.31,30.31h23.37
			c0.66,11.21-0.95,27.89-10.31,49.21c30.12-13.89,47.46-34.75,56.52-49.21h191.11c16.74,0,30.31-13.57,30.31-30.31V165.23
			C996.78,148.49,983.21,134.91,966.47,134.91z"/>
		<path class="st3" d="M855.26,193.85h-129.3c-3.55,0-6.43-2.88-6.43-6.43l0,0c0-3.55,2.88-6.43,6.43-6.43h129.3
			c3.55,0,6.43,2.88,6.43,6.43l0,0C861.7,190.97,858.82,193.85,855.26,193.85z"/>
		<path class="st19" d="M947.97,231.32h-224.5c-2.18,0-3.94-1.76-3.94-3.94l0,0c0-2.18,1.76-3.94,3.94-3.94h224.5
			c2.18,0,3.94,1.76,3.94,3.94l0,0C951.91,229.56,950.15,231.32,947.97,231.32z"/>
		<path class="st19" d="M947.97,253.19h-224.5c-2.18,0-3.94-1.76-3.94-3.94l0,0c0-2.18,1.76-3.94,3.94-3.94h224.5
			c2.18,0,3.94,1.76,3.94,3.94l0,0C951.91,251.43,950.15,253.19,947.97,253.19z"/>
		<path class="st19" d="M899,276.51H723.48c-2.18,0-3.94-1.76-3.94-3.94l0,0c0-2.18,1.76-3.94,3.94-3.94H899
			c2.18,0,3.94,1.76,3.94,3.94l0,0C902.94,274.75,901.18,276.51,899,276.51z"/>
		<path class="st3" d="M946.21,193.85h-61.68c-3.55,0-6.43-2.88-6.43-6.43l0,0c0-3.55,2.88-6.43,6.43-6.43h61.68
			c3.55,0,6.43,2.88,6.43,6.43l0,0C952.64,190.97,949.76,193.85,946.21,193.85z"/>
	</g>
	<g>
		<path class="st3" d="M793.42,478.25h-75.36c-1.1,0-2-0.9-2-2v-53.17c0-1.1,0.9-2,2-2h75.36c1.1,0,2,0.9,2,2v53.17
			C795.42,477.36,794.53,478.25,793.42,478.25z"/>
		<g>
			<g>
				<path class="st17" d="M756.22,458.21c-0.39,0-0.79-0.13-1.11-0.4L717,426.33c-0.74-0.61-0.85-1.72-0.23-2.46
					c0.62-0.75,1.72-0.85,2.46-0.23l36.97,30.54l36.03-31.35c0.73-0.63,1.83-0.56,2.47,0.17c0.64,0.73,0.56,1.83-0.17,2.47
					l-37.15,32.32C757.04,458.07,756.63,458.21,756.22,458.21z"/>
			</g>
			<g>
				<path class="st17" d="M718.11,476.95c-0.43,0-0.87-0.16-1.2-0.48c-0.7-0.67-0.73-1.77-0.06-2.47l26.66-28.02
					c0.66-0.7,1.77-0.73,2.47-0.06c0.7,0.67,0.73,1.77,0.06,2.47l-26.66,28.02C719.03,476.77,718.57,476.95,718.11,476.95z"/>
			</g>
			<g>
				<path class="st17" d="M793.37,475.92c-0.45,0-0.9-0.17-1.24-0.51l-26.55-26.62c-0.68-0.68-0.68-1.79,0-2.47
					c0.69-0.68,1.79-0.68,2.47,0l26.55,26.62c0.68,0.68,0.68,1.79,0,2.47C794.26,475.75,793.82,475.92,793.37,475.92z"/>
			</g>
		</g>
		<g>
			<g>
				<circle class="st20" cx="799.06" cy="419.32" r="23.4"/>
			</g>
			<text transform="matrix(1 0 0 1 782.6143 429.1895)" class="st3 st21 st22">85</text>
		</g>
	</g>
	<g>
		<g>
			<path class="st2" d="M1039.39,410.7H892.05c-2.21,0-4-1.79-4-4v-32.04c0-2.21,1.79-4,4-4h147.35c2.21,0,4,1.79,4,4v32.04
				C1043.39,408.91,1041.6,410.7,1039.39,410.7z"/>
		</g>
		<g>
			<path class="st3" d="M907.24,401.18c-0.61,0-1.11-0.22-1.48-0.66c-0.37-0.44-0.54-0.98-0.49-1.64l0.59-5.18
				c0.04-0.13,0.02-0.22-0.07-0.26c-0.09-0.04-0.2-0.02-0.33,0.07l-4.27,3.08c-0.53,0.39-1.07,0.54-1.64,0.43
				c-0.57-0.11-1.03-0.45-1.38-1.02c-0.39-0.7-0.47-1.31-0.23-1.84c0.24-0.52,0.65-0.9,1.21-1.12l4.79-2.17
				c0.13-0.04,0.2-0.11,0.2-0.2c0-0.09-0.07-0.15-0.2-0.2l-4.79-2.17c-0.61-0.26-1.01-0.68-1.18-1.25c-0.17-0.57-0.11-1.14,0.2-1.71
				c0.35-0.57,0.81-0.91,1.38-1.02c0.57-0.11,1.12,0.01,1.64,0.36l4.27,3.15c0.13,0.09,0.24,0.11,0.33,0.07
				c0.09-0.04,0.11-0.13,0.07-0.26l-0.59-5.18c-0.04-0.66,0.13-1.2,0.53-1.64c0.39-0.44,0.92-0.66,1.58-0.66
				c0.61,0,1.12,0.22,1.51,0.66c0.39,0.44,0.55,0.98,0.46,1.64l-0.59,5.18c-0.04,0.13-0.02,0.22,0.07,0.26
				c0.09,0.04,0.2,0.02,0.33-0.07l4.27-3.08c0.52-0.39,1.08-0.54,1.67-0.43c0.59,0.11,1.04,0.45,1.35,1.02
				c0.39,0.7,0.47,1.31,0.23,1.84c-0.24,0.52-0.65,0.9-1.21,1.12l-4.79,2.17c-0.13,0.04-0.2,0.11-0.2,0.2c0,0.09,0.07,0.15,0.2,0.2
				l4.79,2.17c0.61,0.26,1.02,0.68,1.21,1.25c0.2,0.57,0.12,1.14-0.23,1.71c-0.31,0.57-0.76,0.91-1.35,1.02
				c-0.59,0.11-1.15-0.01-1.67-0.36l-4.27-3.15c-0.13-0.09-0.24-0.11-0.33-0.07c-0.09,0.04-0.11,0.13-0.07,0.26l0.59,5.18
				c0.09,0.66-0.08,1.2-0.49,1.64C908.43,400.96,907.9,401.18,907.24,401.18z"/>
		</g>
		<g>
			<path class="st3" d="M935.52,401.18c-0.61,0-1.11-0.22-1.48-0.66c-0.37-0.44-0.54-0.98-0.49-1.64l0.59-5.18
				c0.04-0.13,0.02-0.22-0.07-0.26c-0.09-0.04-0.2-0.02-0.33,0.07l-4.27,3.08c-0.53,0.39-1.07,0.54-1.64,0.43
				c-0.57-0.11-1.03-0.45-1.38-1.02c-0.39-0.7-0.47-1.31-0.23-1.84c0.24-0.52,0.65-0.9,1.21-1.12l4.79-2.17
				c0.13-0.04,0.2-0.11,0.2-0.2c0-0.09-0.07-0.15-0.2-0.2l-4.79-2.17c-0.61-0.26-1.01-0.68-1.18-1.25c-0.17-0.57-0.11-1.14,0.2-1.71
				c0.35-0.57,0.81-0.91,1.38-1.02c0.57-0.11,1.12,0.01,1.64,0.36l4.27,3.15c0.13,0.09,0.24,0.11,0.33,0.07
				c0.09-0.04,0.11-0.13,0.07-0.26l-0.59-5.18c-0.04-0.66,0.13-1.2,0.53-1.64c0.39-0.44,0.92-0.66,1.58-0.66
				c0.61,0,1.12,0.22,1.51,0.66c0.39,0.44,0.55,0.98,0.46,1.64l-0.59,5.18c-0.04,0.13-0.02,0.22,0.07,0.26
				c0.09,0.04,0.2,0.02,0.33-0.07l4.27-3.08c0.52-0.39,1.08-0.54,1.67-0.43c0.59,0.11,1.04,0.45,1.34,1.02
				c0.39,0.7,0.47,1.31,0.23,1.84c-0.24,0.52-0.65,0.9-1.21,1.12l-4.79,2.17c-0.13,0.04-0.2,0.11-0.2,0.2c0,0.09,0.07,0.15,0.2,0.2
				l4.79,2.17c0.61,0.26,1.02,0.68,1.21,1.25c0.2,0.57,0.12,1.14-0.23,1.71c-0.31,0.57-0.76,0.91-1.34,1.02
				c-0.59,0.11-1.15-0.01-1.67-0.36l-4.27-3.15c-0.13-0.09-0.24-0.11-0.33-0.07c-0.09,0.04-0.11,0.13-0.07,0.26l0.59,5.18
				c0.09,0.66-0.08,1.2-0.49,1.64C936.71,400.96,936.17,401.18,935.52,401.18z"/>
		</g>
		<g>
			<path class="st3" d="M963.79,401.18c-0.61,0-1.11-0.22-1.48-0.66c-0.37-0.44-0.54-0.98-0.49-1.64l0.59-5.18
				c0.04-0.13,0.02-0.22-0.07-0.26c-0.09-0.04-0.2-0.02-0.33,0.07l-4.27,3.08c-0.53,0.39-1.07,0.54-1.64,0.43
				c-0.57-0.11-1.03-0.45-1.38-1.02c-0.39-0.7-0.47-1.31-0.23-1.84c0.24-0.52,0.65-0.9,1.21-1.12l4.79-2.17
				c0.13-0.04,0.2-0.11,0.2-0.2c0-0.09-0.07-0.15-0.2-0.2l-4.79-2.17c-0.61-0.26-1.01-0.68-1.18-1.25c-0.17-0.57-0.11-1.14,0.2-1.71
				c0.35-0.57,0.81-0.91,1.38-1.02c0.57-0.11,1.12,0.01,1.64,0.36l4.27,3.15c0.13,0.09,0.24,0.11,0.33,0.07
				c0.09-0.04,0.11-0.13,0.07-0.26l-0.59-5.18c-0.04-0.66,0.13-1.2,0.53-1.64c0.39-0.44,0.92-0.66,1.58-0.66
				c0.61,0,1.12,0.22,1.51,0.66c0.39,0.44,0.55,0.98,0.46,1.64l-0.59,5.18c-0.04,0.13-0.02,0.22,0.07,0.26
				c0.09,0.04,0.2,0.02,0.33-0.07l4.27-3.08c0.52-0.39,1.08-0.54,1.67-0.43c0.59,0.11,1.04,0.45,1.35,1.02
				c0.39,0.7,0.47,1.31,0.23,1.84c-0.24,0.52-0.65,0.9-1.21,1.12l-4.79,2.17c-0.13,0.04-0.2,0.11-0.2,0.2c0,0.09,0.07,0.15,0.2,0.2
				l4.79,2.17c0.61,0.26,1.02,0.68,1.21,1.25c0.2,0.57,0.12,1.14-0.23,1.71c-0.31,0.57-0.76,0.91-1.35,1.02
				c-0.59,0.11-1.15-0.01-1.67-0.36l-4.27-3.15c-0.13-0.09-0.24-0.11-0.33-0.07c-0.09,0.04-0.11,0.13-0.07,0.26l0.59,5.18
				c0.09,0.66-0.08,1.2-0.49,1.64C964.98,400.96,964.44,401.18,963.79,401.18z"/>
		</g>
		<g>
			<path class="st3" d="M992.06,401.18c-0.61,0-1.11-0.22-1.48-0.66c-0.37-0.44-0.54-0.98-0.49-1.64l0.59-5.18
				c0.04-0.13,0.02-0.22-0.07-0.26c-0.09-0.04-0.2-0.02-0.33,0.07l-4.27,3.08c-0.53,0.39-1.07,0.54-1.64,0.43
				c-0.57-0.11-1.03-0.45-1.38-1.02c-0.39-0.7-0.47-1.31-0.23-1.84c0.24-0.52,0.65-0.9,1.21-1.12l4.79-2.17
				c0.13-0.04,0.2-0.11,0.2-0.2c0-0.09-0.07-0.15-0.2-0.2l-4.79-2.17c-0.61-0.26-1.01-0.68-1.18-1.25c-0.17-0.57-0.11-1.14,0.2-1.71
				c0.35-0.57,0.81-0.91,1.38-1.02c0.57-0.11,1.12,0.01,1.64,0.36l4.27,3.15c0.13,0.09,0.24,0.11,0.33,0.07
				c0.09-0.04,0.11-0.13,0.07-0.26l-0.59-5.18c-0.04-0.66,0.13-1.2,0.53-1.64c0.39-0.44,0.92-0.66,1.58-0.66
				c0.61,0,1.12,0.22,1.51,0.66c0.39,0.44,0.55,0.98,0.46,1.64l-0.59,5.18c-0.04,0.13-0.02,0.22,0.07,0.26
				c0.09,0.04,0.2,0.02,0.33-0.07l4.27-3.08c0.52-0.39,1.08-0.54,1.67-0.43c0.59,0.11,1.04,0.45,1.34,1.02
				c0.39,0.7,0.47,1.31,0.23,1.84c-0.24,0.52-0.65,0.9-1.21,1.12l-4.79,2.17c-0.13,0.04-0.2,0.11-0.2,0.2c0,0.09,0.07,0.15,0.2,0.2
				l4.79,2.17c0.61,0.26,1.02,0.68,1.21,1.25c0.2,0.57,0.12,1.14-0.23,1.71c-0.31,0.57-0.76,0.91-1.34,1.02
				c-0.59,0.11-1.15-0.01-1.67-0.36l-4.27-3.15c-0.13-0.09-0.24-0.11-0.33-0.07c-0.09,0.04-0.11,0.13-0.07,0.26l0.59,5.18
				c0.09,0.66-0.08,1.2-0.49,1.64C993.25,400.96,992.72,401.18,992.06,401.18z"/>
		</g>
		<g>
			<path class="st23" d="M1020.33,401.18c-0.61,0-1.11-0.22-1.48-0.66c-0.37-0.44-0.54-0.98-0.49-1.64l0.59-5.18
				c0.04-0.13,0.02-0.22-0.07-0.26c-0.09-0.04-0.2-0.02-0.33,0.07l-4.27,3.08c-0.53,0.39-1.07,0.54-1.64,0.43
				c-0.57-0.11-1.03-0.45-1.38-1.02c-0.39-0.7-0.47-1.31-0.23-1.84s0.65-0.9,1.21-1.12l4.79-2.17c0.13-0.04,0.2-0.11,0.2-0.2
				c0-0.09-0.07-0.15-0.2-0.2l-4.79-2.17c-0.61-0.26-1.01-0.68-1.18-1.25c-0.17-0.57-0.11-1.14,0.2-1.71
				c0.35-0.57,0.81-0.91,1.38-1.02c0.57-0.11,1.12,0.01,1.64,0.36l4.27,3.15c0.13,0.09,0.24,0.11,0.33,0.07
				c0.09-0.04,0.11-0.13,0.07-0.26l-0.59-5.18c-0.04-0.66,0.13-1.2,0.53-1.64c0.39-0.44,0.92-0.66,1.58-0.66
				c0.61,0,1.12,0.22,1.51,0.66c0.39,0.44,0.55,0.98,0.46,1.64l-0.59,5.18c-0.04,0.13-0.02,0.22,0.07,0.26
				c0.09,0.04,0.2,0.02,0.33-0.07l4.27-3.08c0.52-0.39,1.08-0.54,1.67-0.43c0.59,0.11,1.04,0.45,1.35,1.02
				c0.39,0.7,0.47,1.31,0.23,1.84c-0.24,0.52-0.65,0.9-1.21,1.12l-4.79,2.17c-0.13,0.04-0.2,0.11-0.2,0.2c0,0.09,0.07,0.15,0.2,0.2
				l4.79,2.17c0.61,0.26,1.02,0.68,1.21,1.25c0.2,0.57,0.12,1.14-0.23,1.71c-0.31,0.57-0.76,0.91-1.35,1.02
				c-0.59,0.11-1.15-0.01-1.67-0.36l-4.27-3.15c-0.13-0.09-0.24-0.11-0.33-0.07c-0.09,0.04-0.11,0.13-0.07,0.26l0.59,5.18
				c0.09,0.66-0.08,1.2-0.49,1.64C1021.52,400.96,1020.99,401.18,1020.33,401.18z"/>
		</g>
	</g>
</g>
</svg>
