<?xml version="1.0" encoding="utf-8"?>
<!-- Generator: Adobe Illustrator 26.3.1, SVG Export Plug-In . SVG Version: 6.00 Build 0)  -->
<svg version="1.1" id="Layer_1" xmlns="http://www.w3.org/2000/svg" xmlns:xlink="http://www.w3.org/1999/xlink" x="0px" y="0px"
	 width="24.6px" height="24.6px" viewBox="0 0 24.6 24.6" style="enable-background:new 0 0 24.6 24.6;" xml:space="preserve">
<style type="text/css">
	.st0{fill:#EFEFEF;}
</style>
<circle class="st0" cx="12.3" cy="12.3" r="12.2"/>
<g>
	<path d="M5.93,14.58c0.07-0.17,0.2-0.26,0.38-0.3C7.32,14,8.35,13.86,9.4,13.89c0.8,0.03,1.59,0.16,2.38,0.3
		c0.8,0.15,1.6,0.31,2.41,0.41c1.3,0.18,2.59,0.06,3.86-0.26c0.06-0.02,0.12-0.03,0.18-0.04c0.21-0.03,0.39,0.09,0.43,0.28
		c0.05,0.19-0.07,0.39-0.27,0.44c-0.44,0.1-0.87,0.2-1.31,0.27c-0.83,0.14-1.68,0.18-2.51,0.1c-0.74-0.08-1.47-0.2-2.2-0.33
		c-0.84-0.15-1.66-0.34-2.51-0.4c-1.13-0.09-2.23,0.03-3.32,0.33c-0.1,0.03-0.2,0.04-0.3,0.04c-0.16-0.01-0.23-0.14-0.3-0.27
		C5.93,14.7,5.93,14.64,5.93,14.58z"/>
	<path d="M5.93,16.33c0.07-0.17,0.2-0.26,0.38-0.3c1.02-0.28,2.06-0.43,3.12-0.39c0.79,0.03,1.57,0.16,2.35,0.3
		c0.8,0.15,1.59,0.31,2.4,0.41c1.3,0.18,2.6,0.06,3.87-0.26c0.06-0.02,0.12-0.03,0.18-0.04c0.21-0.03,0.39,0.09,0.43,0.28
		c0.05,0.19-0.07,0.39-0.27,0.44c-0.44,0.1-0.87,0.2-1.31,0.27c-0.83,0.14-1.68,0.18-2.51,0.1c-0.74-0.08-1.47-0.2-2.2-0.33
		c-0.84-0.15-1.66-0.34-2.51-0.4c-1.13-0.09-2.23,0.03-3.32,0.33c-0.1,0.03-0.2,0.04-0.3,0.04c-0.16-0.01-0.23-0.14-0.3-0.27
		C5.93,16.44,5.93,16.38,5.93,16.33z"/>
	<path d="M12.63,10.22c0.47,0.75,0.93,1.5,1.39,2.24c-0.12-0.47-0.1-0.92,0.13-1.35c0.23-0.43,0.59-0.71,1.06-0.84
		c0.77-0.2,1.56,0.17,1.91,0.87c0.35,0.71,0.16,1.57-0.46,2.06c-0.6,0.47-1.55,0.53-2.25-0.13c0.17,0.27,0.34,0.55,0.53,0.85
		c-0.24-0.02-0.46-0.02-0.68-0.06c-0.88-0.15-1.76-0.31-2.64-0.47c-0.69-0.13-1.39-0.23-2.1-0.25c-0.04,0-0.08-0.01-0.15-0.01
		c0.6-0.37,1.17-0.73,1.75-1.09c-0.18-0.29-0.35-0.56-0.52-0.84c-0.16-0.25-0.32-0.51-0.47-0.76c-0.49-0.8-0.11-1.78,0.79-2.04
		c1.1-0.32,2.19-0.64,3.29-0.95c0.53-0.15,1.06,0.08,1.3,0.56c0.23,0.47,0.11,1.04-0.31,1.36c-0.12,0.09-0.26,0.15-0.4,0.2
		c-0.68,0.21-1.37,0.4-2.05,0.6C12.71,10.19,12.68,10.2,12.63,10.22z"/>
</g>
</svg>
