<?xml version="1.0" encoding="utf-8"?>
<!-- Generator: Adobe Illustrator 26.0.1, SVG Export Plug-In . SVG Version: 6.00 Build 0)  -->
<svg version="1.1" id="Layer_1" xmlns="http://www.w3.org/2000/svg" xmlns:xlink="http://www.w3.org/1999/xlink" x="0px" y="0px"
	 width="93.6px" height="93.6px" viewBox="0 0 93.6 93.6" style="enable-background:new 0 0 93.6 93.6;" xml:space="preserve">
<style type="text/css">
	.st0{fill:#D8D8D8;}
</style>
<g>
	<path class="st0" d="M28.2,78.36c-0.55-0.19-1.14-0.33-1.66-0.59c-2.14-1.06-3.36-2.81-3.37-5.18c-0.05-9.3-0.04-18.6-0.01-27.9
		c0.01-3.13,2.62-5.68,5.76-5.75c0.68-0.02,1.35,0,2.11,0c0-0.25,0-0.47,0-0.68c0-2.34,0-4.68,0-7.02
		c0.01-8.01,5.56-14.51,13.47-15.79c8.29-1.34,16.51,4.61,17.82,12.92c0.16,1.01,0.23,2.04,0.24,3.06c0.03,2.48,0.01,4.96,0.01,7.52
		c0.61,0,1.18,0,1.74,0c3.58,0.01,6.14,2.55,6.14,6.13c0.01,9.03,0,18.07,0,27.1c0,3.17-1.8,5.41-4.9,6.11
		c-0.05,0.01-0.1,0.06-0.15,0.1C53.01,78.36,40.6,78.36,28.2,78.36z M46.82,74.42c5.79,0,11.58,0,17.37,0
		c1.58,0,2.33-0.75,2.33-2.34c0-8.95,0-17.91,0-26.86c0-1.6-0.73-2.34-2.33-2.34c-11.58,0-23.16,0-34.75,0
		c-1.63,0-2.36,0.73-2.36,2.37c0,8.93,0,17.87,0,26.8c0,1.64,0.73,2.37,2.36,2.37C35.24,74.42,41.03,74.42,46.82,74.42z M58.61,38.9
		c0-2.96,0-5.85-0.01-8.74c0-0.35-0.06-0.7-0.12-1.04c-1.02-6.06-6.54-10.39-12.57-9.89c-6.2,0.52-10.9,5.58-10.94,11.78
		c-0.01,2.46,0,4.93,0,7.39c0,0.16,0.02,0.32,0.03,0.49C42.88,38.9,50.72,38.9,58.61,38.9z"/>
	<path class="st0" d="M44.83,62.93c0-0.94-0.02-1.89,0.01-2.83c0.01-0.38-0.11-0.57-0.45-0.74c-1.9-0.98-3.03-3.04-2.82-5.07
		c0.24-2.24,1.69-4.03,3.75-4.63c2.59-0.75,5.3,0.55,6.33,3.03c1.03,2.48,0.04,5.32-2.34,6.6c-0.43,0.23-0.56,0.48-0.55,0.94
		c0.03,1.81,0.01,3.61,0.01,5.42c0,1.3-0.82,2.2-1.98,2.2c-1.15,0-1.96-0.92-1.96-2.21C44.83,64.73,44.83,63.83,44.83,62.93z
		 M48.12,54.67c-0.02-0.7-0.62-1.28-1.31-1.28c-0.72,0-1.33,0.63-1.31,1.34c0.02,0.7,0.62,1.28,1.31,1.28
		C47.52,56.01,48.13,55.38,48.12,54.67z"/>
</g>
</svg>
